<svg xmlns="http://www.w3.org/2000/svg" width="72.0" height="72.0" viewBox="0.0 0.0 72.0 72.0" fill="none">
<rect width="72" height="72" fill="white" />
<g clip-path="url(#clip0_5959_4309)">
<path d="M36.9156 17.7584C36.9156 19.1217 36.8968 20.4824 36.9237 21.8457C36.9344 22.4603 36.7465 22.4818 36.2823 22.1865C35.2088 21.5049 34.036 21.1265 32.7585 21.0352C32.3211 21.003 32.1869 21.1345 32.2245 21.5371C32.2379 21.6686 32.2245 21.8055 32.2245 21.9396C32.2352 22.5408 32.0715 23.2305 32.3103 23.719C32.5599 24.2315 33.3516 24.033 33.8911 24.2074C35.7992 24.83 36.9049 26.3034 36.9129 28.3135C36.9183 30.1223 36.8942 31.9312 36.9264 33.74C36.9371 34.3331 36.7358 34.5076 36.1561 34.5022C33.5207 34.478 30.8853 34.5076 28.2499 34.4807C27.6594 34.4754 27.442 34.6686 27.485 35.251C27.5226 35.7609 27.5145 36.2788 27.485 36.7914C27.4555 37.3147 27.6594 37.4919 28.1854 37.4892C30.7994 37.4704 33.4107 37.4785 36.0246 37.4811C36.9103 37.4811 36.9129 37.4865 36.9156 38.3694C36.9156 40.0897 36.8056 41.818 36.9398 43.5276C37.2108 46.952 33.679 48.8602 30.7269 47.6793C29.2187 47.0755 28.1774 46.0583 27.8634 44.4132C27.8124 44.1502 27.7077 44.0107 27.434 44.0107C26.7201 44.0133 26.0036 44.016 25.2897 44.0107C24.9596 44.008 24.8898 44.1609 24.9059 44.4749C25.0857 47.674 27.8983 50.5724 31.0892 50.9105C32.9813 51.1091 34.7284 50.771 36.3359 49.7619C36.8458 49.4425 36.9237 49.6438 36.921 50.1296C36.9103 52.5422 36.9344 54.9522 36.9103 57.3649C36.8888 59.5065 35.1175 61.4254 32.7746 61.9031C30.1875 62.4318 27.3723 60.7759 26.8436 58.3096C26.6799 57.5528 26.4652 57.4884 25.762 57.6172C22.5603 58.1969 19.5089 56.0794 18.94 52.9555C18.8273 52.3302 18.8514 51.7103 19.0178 51.0984C19.1064 50.7737 19.0285 50.6368 18.6636 50.559C15.9101 49.9578 14.2086 48.0524 13.959 45.2747C13.8758 44.3408 14.1576 43.4578 14.6058 42.6446C14.8151 42.2635 14.8178 42.0972 14.375 41.9066C12.2146 40.9727 11.0525 39.2846 11.0015 36.9551C10.9559 34.7947 11.9489 33.1362 13.8597 32.0815C14.2757 31.8533 14.2649 31.7031 13.9939 31.3408C11.2779 27.6855 13.1485 22.2751 17.5686 21.0379C18.2422 20.85 18.422 20.6568 18.2878 19.9295C17.8745 17.7101 19.5546 15.2062 21.9511 14.3125C23.344 13.7918 24.7449 13.765 26.1404 14.2803C26.5215 14.4225 26.6987 14.3769 26.7819 13.9341C27.4716 10.1688 32.3103 8.81887 35.1927 11.1403C35.5899 11.4597 35.9307 11.8542 36.2635 12.2433C36.7304 12.7827 36.9666 13.3866 36.929 14.138C36.8673 15.3403 36.9129 16.548 36.9129 17.7557L36.9156 17.7584ZM21.0628 34.4968C20.5958 34.4968 20.1289 34.5102 19.6619 34.4941C19.2808 34.4807 19.0769 34.6015 19.0903 35.0228C19.1091 35.6669 19.1091 36.3137 19.0903 36.9578C19.0769 37.3765 19.2781 37.4946 19.6592 37.4892C20.5932 37.4758 21.5271 37.4758 22.4637 37.4892C22.8448 37.4946 23.0515 37.3792 23.0407 36.9605C23.0246 36.3164 23.0246 35.6696 23.0407 35.0255C23.0515 34.6095 22.8475 34.4834 22.4664 34.4968C21.9994 34.5129 21.5325 34.4995 21.0655 34.4995L21.0628 34.4968ZM25.126 27.9673C25.3944 27.9673 25.6627 27.9431 25.9284 27.9727C26.4195 28.0237 26.6503 27.8546 26.7067 27.3339C26.7604 26.8267 26.9563 26.3329 27.2622 25.9169C27.5091 25.5815 27.4152 25.3748 27.12 25.1386C26.6316 24.7495 26.1539 24.3469 25.703 23.9176C25.4024 23.6304 25.2387 23.7243 25.0213 24.0115C24.4282 24.7898 24.0605 25.662 23.8405 26.6067C23.6294 27.5155 23.9908 27.97 24.9247 27.97C24.9918 27.97 25.0589 27.97 25.126 27.97V27.9673Z" fill="url(#paint0_angular_5959_4309)" />
<path d="M46.3018 44.2042C47.9979 44.2042 49.6967 44.1961 51.3928 44.2042C52.7132 44.2122 53.3681 44.8617 53.3734 46.1875C53.3842 48.152 53.3842 50.1165 53.3708 52.0836C53.3681 52.5264 53.4862 52.8002 53.8994 53.0471C55.6117 54.0589 56.3631 56.0448 55.7968 57.9073C55.2145 59.8289 53.5184 60.9775 51.3848 60.889C49.635 60.8165 48.0167 59.3861 47.5954 57.5316C47.2062 55.8194 47.9764 54.0079 49.5652 53.0525C49.9678 52.8109 50.1208 52.5533 50.1127 52.0997C50.0885 50.8276 50.0778 49.5529 50.1154 48.2808C50.1342 47.6743 49.949 47.4676 49.321 47.4757C46.6185 47.5079 43.916 47.4676 41.2161 47.5025C40.5318 47.5105 40.2876 47.2878 40.3385 46.6222C40.3788 46.0882 40.3708 45.5487 40.3385 45.0147C40.3037 44.4216 40.5076 44.18 41.1383 44.1908C42.8559 44.2257 44.5762 44.2015 46.2964 44.2042H46.3018Z" fill="#E7ABAF" />
<path d="M46.3233 27.6564C44.5815 27.6564 42.8398 27.6403 41.1007 27.6645C40.5586 27.6725 40.3197 27.4954 40.3466 26.9372C40.3734 26.336 40.3788 25.7295 40.3466 25.131C40.3144 24.546 40.5559 24.3581 41.1302 24.3608C43.8086 24.3823 46.487 24.3715 49.1653 24.3688C49.7933 24.3688 50.1082 24.045 50.11 23.3973C50.11 22.2138 50.0966 21.0303 50.1181 19.8494C50.1261 19.4227 49.9892 19.1758 49.6055 18.945C48.014 17.9762 47.3109 16.5162 47.5792 14.6886C47.8208 13.0408 48.7762 11.8841 50.373 11.3125C52.41 10.5825 54.6133 11.5218 55.5902 13.5319C56.4973 15.3944 55.829 17.7507 53.9987 18.8645C53.4915 19.1731 53.3627 19.5032 53.3707 20.0453C53.3949 21.8756 53.3842 23.706 53.3788 25.5363C53.3734 27.0633 52.7857 27.6537 51.2801 27.6564C49.6296 27.6564 47.9764 27.6564 46.3259 27.6564H46.3233Z" fill="#E7ABAF" />
<path d="M47.0915 34.3999C49.056 34.3999 51.0205 34.3918 52.985 34.4052C53.4225 34.4079 53.6989 34.3194 53.9351 33.8765C54.8502 32.1455 56.8442 31.3834 58.8168 31.9469C60.6202 32.4622 61.9299 34.3006 61.8118 36.155C61.6803 38.192 60.2821 39.8022 58.3632 40.1296C56.439 40.4571 54.81 39.7002 53.876 37.9827C53.6506 37.5667 53.35 37.5747 52.9904 37.5747C49.107 37.5747 45.2237 37.5747 41.3376 37.5747C40.6864 37.5747 40.359 37.258 40.3554 36.6247C40.3554 36.1121 40.3715 35.5968 40.3527 35.0842C40.3339 34.5663 40.5486 34.3838 41.0692 34.3891C43.0767 34.4106 45.0868 34.3972 47.0969 34.3972L47.0915 34.3999Z" fill="#E7ABAF" />
</g>
<defs>
<radialGradient id="paint0_angular_5959_4309" cx="0" cy="0" r="1" gradientUnits="userSpaceOnUse" gradientTransform="translate(23.883 41.3994) rotate(131.716) scale(23.1898 16.9639)">
<stop stop-color="#EE4136" />
<stop offset="1" stop-color="#941209" />
</radialGradient>
<clipPath id="clip0_5959_4309">
<rect width="50.8111" height="52" fill="white" transform="translate(11 10)" />
</clipPath>
</defs>
</svg>