<svg xmlns="http://www.w3.org/2000/svg" width="72.0" height="72.0" viewBox="0.0 0.0 72.0 72.0" fill="none">
<rect width="72" height="72" fill="white" />
<path d="M8.35156 52.6426C8.38198 52.6426 8.38198 52.6426 8.35156 52.6426C8.35156 52.673 8.35156 52.673 8.35156 52.6426Z" fill="#808080" />
<path d="M14.6357 37.5V45.8434C14.6357 45.8792 14.5999 45.915 14.5641 45.915C14.3134 46.0225 14.0986 46.1299 13.8479 46.2373C13.5256 46.3806 13.1675 46.5238 12.8453 46.7028L11.6636 47.24L10.6967 47.6697L9.51505 48.2068C9.19277 48.35 8.87049 48.4933 8.5124 48.6723C8.26174 48.7797 7.97527 48.923 7.72461 49.0304C7.6888 49.0304 7.6888 49.0662 7.653 49.0304H7.61719C7.72461 48.8514 7.83204 48.7081 7.93947 48.5291C8.5124 47.5622 9.12115 46.5954 9.69409 45.6286C10.3028 44.5901 10.9474 43.5517 11.5561 42.5132C12.1291 41.5464 12.702 40.5795 13.275 39.6485C13.7047 38.9323 14.1344 38.252 14.5283 37.5358C14.5999 37.5358 14.5999 37.5 14.6357 37.5Z" fill="#E7ABAF" />
<path d="M21.5806 49.031C21.0434 49.3891 20.4705 49.7114 19.9334 50.0336C18.1787 51.0721 16.4599 52.0747 14.7053 53.1132C14.6695 53.1132 14.6695 53.149 14.6337 53.149C14.5979 53.149 14.5979 53.1132 14.5979 53.1132V45.9156C14.5979 45.8798 14.6337 45.8798 14.6695 45.8798C14.8127 45.9515 14.9559 46.0231 15.135 46.0947C15.5647 46.3095 16.0302 46.4886 16.4599 46.7034C16.8538 46.8825 17.2119 47.0615 17.6058 47.2048C17.9997 47.3838 18.3578 47.5628 18.7517 47.7419C19.0739 47.8851 19.432 48.0284 19.7543 48.2074C20.0766 48.3506 20.4347 48.4939 20.757 48.6729C21.0076 48.7803 21.2583 48.9236 21.5447 49.031C21.5447 48.9952 21.5447 49.031 21.5806 49.031Z" fill="#E7ABAF" />
<path d="M14.6336 60.1671C14.5977 60.1671 14.5977 60.1671 14.5619 60.1313C13.8458 59.1287 13.1654 58.1618 12.4492 57.1592L10.3007 54.1513C9.62034 53.1844 8.90417 52.2176 8.2238 51.2149L7.68667 50.463C7.68667 50.4272 7.65086 50.4272 7.65086 50.3913C7.68667 50.3913 7.68667 50.4272 7.72248 50.4272C8.68931 51.0001 9.69196 51.573 10.6588 52.146C11.7689 52.8263 12.9147 53.4709 14.0248 54.1513C14.2039 54.2587 14.4187 54.3661 14.5977 54.4735C14.6336 54.4735 14.6336 54.5093 14.6336 54.5452V60.1671Z" fill="#E7ABAF" />
<path d="M7.6879 49.0664C7.6879 49.0306 7.6879 49.0306 7.6879 49.0664C8.04599 48.8874 8.40408 48.7441 8.76216 48.5651L10.1587 47.9205C10.5168 47.7415 10.8749 47.5983 11.233 47.4192C11.7343 47.1686 12.2714 46.9537 12.7727 46.703C13.1308 46.5598 13.4889 46.3808 13.847 46.2375C14.0977 46.1301 14.3483 46.0227 14.599 45.8794C14.6348 45.8794 14.6348 45.8436 14.6706 45.8436V53.1486C14.6348 53.1844 14.6348 53.1486 14.599 53.1486C14.4916 53.077 14.3841 53.0412 14.3125 52.9696L7.75952 49.1022C7.72371 49.0664 7.6879 49.0664 7.6879 49.0664Z" fill="#E7ABAF" />
<path d="M21.5493 50.3913C21.5493 50.4272 21.5493 50.4272 21.5135 50.463C19.4366 53.3993 17.3597 56.2998 15.2828 59.2361C15.068 59.5584 14.8531 59.8448 14.6383 60.1671V54.4735C15.1038 54.1871 15.5693 53.9006 16.0348 53.6499L21.5135 50.4272C21.5135 50.3913 21.5493 50.3913 21.5493 50.3913Z" fill="#E7ABAF" />
<path d="M14.6383 45.8788V37.5354L21.5135 48.9225C21.5493 48.9583 21.5852 48.9941 21.5852 49.0299C21.4419 48.9583 21.2987 48.8867 21.1196 48.8151C20.9406 48.7435 20.7616 48.6361 20.5825 48.5644C20.4751 48.5286 20.3677 48.457 20.2244 48.4212C20.0454 48.3496 19.8305 48.2422 19.6515 48.1705C19.5441 48.1347 19.4366 48.0631 19.3292 48.0273L18.5772 47.705C18.434 47.6334 18.3266 47.5976 18.1833 47.526C18.0043 47.4544 17.8252 47.3469 17.6462 47.2753C17.5388 47.2395 17.4313 47.1679 17.3239 47.1321L16.5719 46.8098C16.4287 46.7382 16.3213 46.7024 16.178 46.6308C15.999 46.5591 15.82 46.4517 15.6409 46.3801C15.5335 46.3085 15.3903 46.2727 15.2828 46.2011L14.6383 45.8788Z" fill="#E7ABAF" />
<path d="M63.3595 39.1933C63.3595 43.0821 63.3241 46.9709 63.3808 50.8598C63.3949 52.0144 63.0053 52.6944 61.9641 53.2115C55.2631 56.5407 48.5905 59.9124 41.9178 63.3054C40.7278 63.9075 40.2036 63.7588 40.2036 62.3208C40.2249 54.3661 40.2249 46.4113 40.2036 38.4566C40.2036 37.5074 40.5932 36.9407 41.4291 36.5228C48.2221 33.1227 55.0152 29.7085 61.7799 26.2589C63.1541 25.5576 63.3808 26.1101 63.3666 27.3568C63.3312 31.3023 63.3524 35.2549 63.3524 39.2004L63.3595 39.1933Z" fill="url(#paint0_angular_5959_4290)" />
<path d="M39.0633 12C39.5096 12.1913 40.0054 12.3754 40.473 12.6092C46.9897 15.9101 53.4995 19.211 60.0021 22.526C60.4484 22.7527 61.1567 22.8448 61.178 23.4469C61.1992 24.0632 60.505 24.1977 60.0517 24.4244C53.4357 27.7749 46.7985 31.1041 40.1896 34.4759C39.3608 34.8938 38.6737 34.8584 37.8662 34.4475C31.2078 31.0475 24.5281 27.6757 17.8696 24.2827C17.4729 24.0773 16.8637 23.9569 16.9204 23.3902C16.9416 23.1494 17.3879 22.8944 17.6854 22.7456C24.5068 19.2676 31.3353 15.8109 38.1637 12.3542C38.4258 12.2196 38.7092 12.1417 39.0633 12Z" fill="url(#paint1_angular_5959_4290)" />
<path d="M14.725 34.3473L24.62 49.8966L21.006 55.5955C26.0958 58.1593 31.1736 60.7461 36.2515 63.3408C37.5194 63.9925 37.8948 63.6242 37.8948 62.2854C37.8665 54.3944 37.8736 46.5034 37.8948 38.6124C37.9019 37.6137 37.569 36.9691 36.6552 36.5086C29.8692 33.1015 23.0904 29.666 16.3327 26.2093C15.0506 25.5505 14.6894 25.933 14.7035 27.2647C14.729 29.6256 14.729 31.9864 14.725 34.3473Z" fill="url(#paint2_angular_5959_4290)" />
<defs>
<radialGradient id="paint0_angular_5959_4290" cx="0" cy="0" r="1" gradientUnits="userSpaceOnUse" gradientTransform="translate(51.5 45.5) rotate(30.6507) scale(15.6924 22.1047)">
<stop stop-color="#EE4136" />
<stop offset="0.492924" stop-color="#AE2017" />
<stop offset="1" stop-color="#941209" />
</radialGradient>
<radialGradient id="paint1_angular_5959_4290" cx="0" cy="0" r="1" gradientUnits="userSpaceOnUse" gradientTransform="translate(51.5 45.5) rotate(30.6507) scale(15.6924 22.1047)">
<stop stop-color="#EE4136" />
<stop offset="0.492924" stop-color="#AE2017" />
<stop offset="1" stop-color="#941209" />
</radialGradient>
<radialGradient id="paint2_angular_5959_4290" cx="0" cy="0" r="1" gradientUnits="userSpaceOnUse" gradientTransform="translate(51.5 45.5) rotate(30.6507) scale(15.6924 22.1047)">
<stop stop-color="#EE4136" />
<stop offset="0.492924" stop-color="#AE2017" />
<stop offset="1" stop-color="#941209" />
</radialGradient>
</defs>
</svg>