<svg xmlns="http://www.w3.org/2000/svg" width="72.0" height="72.0" viewBox="0.0 0.0 72.0 72.0" fill="none">
<rect width="72" height="72" fill="white" />
<g clip-path="url(#clip0_5959_4281)">
<path d="M59.4697 27.343C58.1553 26.8028 56.7129 26.5801 55.2983 26.1958C55.4431 17.6581 48.9661 11.5431 42.89 10.3123C36.5355 9.02582 29.3958 11.6434 25.6087 19.0115C25.3414 18.9056 25.1242 18.811 24.9014 18.733C20.4738 17.1012 15.6509 19.5127 14.4034 24.0182C14.2029 24.7534 13.8576 25.1265 13.1781 25.4384C8.34961 27.6382 5.61511 32.4779 6.04394 37.6629C6.58972 44.3014 11.7858 49.0185 18.4522 49.0297C20.162 49.0297 21.8662 49.0297 23.5759 49.0352C23.5703 48.1497 23.2306 47.2698 22.5567 46.8075C21.1589 45.8441 20.407 44.5353 20.4126 42.82C20.4126 41.3274 20.4014 39.8349 20.4126 38.3423C20.4349 35.4017 22.4676 33.3523 25.3859 33.3411C28.9669 33.33 32.548 33.3411 36.1345 33.3411C39.7156 33.3411 43.2966 33.33 46.8832 33.3411C49.7346 33.3523 51.7952 35.4017 51.8287 38.2476C51.8454 39.7402 51.8231 41.2327 51.8287 42.7253C51.8398 44.4907 51.0991 45.8385 49.6511 46.8243C49.0106 47.2587 48.682 48.1442 48.6653 49.0297C50.687 49.0297 52.7086 49.0297 54.7302 49.0185C59.5086 48.9963 63.0507 46.8187 65.167 42.4691C67.8848 36.8943 65.2115 29.6988 59.4752 27.343H59.4697Z" fill="url(#paint0_angular_5959_4281)" />
<path d="M36.4862 34.9503C39.5715 34.9503 42.6513 34.9391 45.7367 34.9503C48.1927 34.9614 49.9637 36.7213 49.9916 39.1717C50.0083 40.4582 49.9916 41.7392 49.9916 43.0257C50.0027 44.5461 49.3623 45.7045 48.1203 46.5566C47.012 47.314 46.9731 49.6419 48.0758 50.3771C49.3678 51.2459 50.0194 52.421 49.9971 53.9915C49.9749 55.278 50.0083 56.5589 49.986 57.8454C49.947 60.1622 48.2874 61.9499 45.9817 61.9666C39.6328 62.0112 33.2839 62.0112 26.9349 61.9666C24.7017 61.9499 23.0142 60.1678 22.9696 57.9234C22.9418 56.5645 22.9696 55.2056 22.9641 53.8523C22.9585 52.3708 23.6045 51.2514 24.813 50.4272C25.9882 49.6252 25.977 47.3474 24.813 46.5454C23.6101 45.7156 22.9641 44.5906 22.9696 43.1148C22.9696 41.8283 22.9585 40.5474 22.9696 39.2609C22.9863 36.7269 24.7351 34.967 27.2468 34.9558C30.3322 34.9447 33.412 34.9558 36.4973 34.9558L36.4862 34.9503ZM36.4695 47.2249C34.1916 47.2249 31.9194 47.2639 29.6416 47.2082C28.7004 47.1859 28.55 47.6314 28.5611 48.4167C28.5723 49.1852 28.5834 49.7422 29.6471 49.731C34.1972 49.6809 38.7529 49.692 43.3029 49.731C44.2441 49.7366 44.3945 49.3078 44.3834 48.5225C44.3722 47.7539 44.3611 47.1747 43.2974 47.2082C41.0251 47.275 38.7473 47.2304 36.4695 47.2304V47.2249ZM30.5159 39.9236C29.4745 39.9125 29.1738 39.9737 28.8842 40.358C28.472 40.9038 28.4832 41.4551 28.99 41.9285C29.5023 42.413 31.4404 42.4019 31.9027 41.9062C32.3705 41.405 32.3649 40.8314 31.9472 40.3134C31.5852 39.8623 31.0283 39.9292 30.5159 39.918V39.9236ZM30.5382 57.0156C31.0172 56.9933 31.7467 57.1325 32.1087 56.3918C32.3538 55.8962 32.2925 55.3838 31.8526 54.9884C31.4182 54.5985 29.6249 54.5596 29.1069 54.9271C28.6224 55.2669 28.4776 55.7514 28.6892 56.2805C28.9955 57.0434 29.6917 57.0267 30.5327 57.0156H30.5382ZM39.371 41.16C39.4156 41.8895 39.8444 42.2348 40.5239 42.2126C41.2534 42.1903 41.699 41.7726 41.66 41.0207C41.621 40.3413 41.181 39.957 40.496 39.9626C39.7275 39.9681 39.3933 40.4304 39.371 41.16ZM40.5461 56.9933C41.22 56.9098 41.699 56.5589 41.66 55.7959C41.6266 55.1109 41.1978 54.7211 40.5127 54.7211C39.7497 54.7211 39.3766 55.1722 39.3822 55.9129C39.3822 56.6425 39.8389 56.9376 40.5461 56.9933ZM45.6699 41.1377C45.642 40.4025 45.28 39.957 44.5282 39.9626C43.8487 39.9626 43.4199 40.3524 43.392 41.043C43.3642 41.7949 43.8042 42.207 44.5393 42.2181C45.2299 42.2293 45.6142 41.845 45.6754 41.1433L45.6699 41.1377ZM45.6699 55.8962C45.642 55.161 45.28 54.7211 44.5226 54.7211C43.8431 54.7211 43.4143 55.1109 43.3865 55.8015C43.3586 56.5533 43.7986 56.9655 44.5337 56.971C45.2187 56.9822 45.6086 56.5979 45.6699 55.8906V55.8962Z" fill="#E7ABAF" />
</g>
<defs>
<radialGradient id="paint0_angular_5959_4281" cx="0" cy="0" r="1" gradientUnits="userSpaceOnUse" gradientTransform="translate(36.0739 25.8726) rotate(89.2818) scale(31.3799 70.9658)">
<stop stop-color="#EE4136" />
<stop offset="1" stop-color="#941209" />
</radialGradient>
<clipPath id="clip0_5959_4281">
<rect width="60.2313" height="52" fill="white" transform="translate(6 10)" />
</clipPath>
</defs>
</svg>