<svg xmlns="http://www.w3.org/2000/svg" width="298.0" height="316.0" viewBox="0.0 0.0 298.0 316.0" fill="none">
<g clip-path="url(#clip0_5057_3183)">
<path d="M179.185 250.559C178.527 240.677 178.746 230.137 183.137 220.914C187.088 212.569 194.112 206.42 200.698 200.491C207.502 194.342 213.649 187.974 218.259 180.069C222.868 172.163 225.941 163.379 227.039 154.376C229.454 135.93 224.185 116.825 212.332 102.112C201.576 88.7162 185.551 79.4931 168.649 75.9796C132.21 68.0741 92.2585 85.2026 68.9902 113.531C57.7951 127.146 50.1122 143.835 49.6732 161.622C49.4536 169.308 50.1122 176.775 52.0878 184.241C55.3805 197.417 62.6244 209.714 74.2585 217.18C88.0878 226.184 108.283 229.917 115.527 246.606C117.502 250.998 118.38 256.049 119.039 260.88C119.478 263.735 123.868 263.735 123.429 260.88C122.332 252.096 120.356 243.532 114.429 236.725C109.38 230.576 102.137 226.623 95.1122 223.11C87.8683 219.596 80.4049 216.522 74.039 211.69C68.5512 207.299 64.161 201.589 61.0878 195.44C56.478 186.217 54.5024 175.677 54.2829 165.575C54.0634 152.838 57.3561 140.98 63.5024 129.781C81.0634 98.1588 118.161 76.8579 154.38 78.3951C171.502 79.0539 188.844 85.4222 201.795 97.0609C215.405 109.139 223.527 126.926 223.527 145.153C223.527 163.818 215.185 180.727 201.795 193.464C195.649 199.393 188.844 204.883 183.795 211.69C178.307 218.937 175.893 227.282 175.015 236.285C174.576 241.116 174.795 245.948 175.015 250.559C175.015 253.194 179.405 253.194 179.185 250.559Z" fill="white" />
<path d="M110.036 261.32C109.377 261.32 108.499 261.32 107.841 261.539C107.841 263.076 107.841 264.394 107.841 265.931C121.011 264.174 134.182 262.637 147.353 261.32C153.938 260.661 160.304 260.002 166.89 259.563C173.036 259.124 180.06 257.586 186.207 259.563C185.987 258.245 185.548 257.147 185.329 255.83C176.548 263.515 164.475 264.833 153.499 266.151C142.304 267.468 130.451 268.566 120.792 275.154C119.914 275.813 119.255 277.13 119.914 278.228C122.109 281.522 125.621 282.181 129.353 282.401C134.621 282.62 139.89 282.62 145.158 282.84C150.646 283.06 155.914 283.06 161.402 283.279C164.255 283.279 167.109 283.499 169.963 283.499C171.06 283.499 175.89 283.06 176.548 283.938C176.987 283.718 176.768 283.718 176.109 284.158C175.451 284.377 174.792 284.597 174.133 284.816C172.816 285.256 171.499 285.695 170.182 285.914C167.548 286.573 164.694 287.232 162.06 287.671C156.792 288.55 151.524 288.989 146.036 288.989C137.255 288.989 127.816 287.671 119.914 292.722C118.158 293.82 118.816 296.675 121.011 296.894C129.792 297.333 138.572 297.553 147.572 297.992C152.182 298.212 156.572 298.431 161.182 298.651C164.475 298.871 169.085 298.212 172.158 299.749C174.133 300.847 173.694 302.604 171.938 303.702C170.182 304.8 167.768 304.58 165.792 304.58C161.402 304.361 157.231 304.361 152.841 304.141C143.841 303.921 134.841 303.482 125.841 303.263C122.987 303.263 122.987 307.654 125.841 307.654C137.036 308.094 148.011 308.533 159.207 308.752C163.597 308.972 169.304 310.07 173.475 307.874C176.548 306.337 178.743 302.823 177.426 299.529C176.329 296.235 172.816 295.137 169.743 294.698C164.694 294.039 159.646 294.259 154.597 294.039C143.402 293.6 132.207 293.161 121.011 292.502C121.451 293.82 121.67 295.137 122.109 296.675C128.914 292.283 137.255 293.6 144.938 293.6C153.719 293.6 162.719 292.502 171.28 290.306C173.914 289.648 178.963 288.989 180.499 286.134C181.816 283.718 180.06 281.303 177.865 280.205C174.353 278.668 169.743 279.326 166.011 279.107C161.402 279.107 156.572 278.887 151.963 278.887C146.694 278.668 141.646 278.668 136.377 278.448C133.963 278.448 131.548 278.448 129.133 278.228C127.158 278.228 124.743 278.009 123.426 276.252C123.207 277.35 122.987 278.228 122.548 279.326C142.304 266.151 169.524 275.374 187.963 259.343C189.28 258.245 188.402 256.049 187.085 255.61C181.158 253.634 174.792 254.732 168.865 255.171C162.06 255.83 155.255 256.488 148.231 257.147C134.621 258.465 121.231 260.002 107.621 261.759C104.987 262.198 104.768 266.37 107.621 266.151C108.28 266.151 109.158 266.151 109.816 265.931C112.89 265.492 112.89 261.1 110.036 261.32Z" fill="white" />
<path d="M141.646 306.997C139.671 309.632 140.988 313.805 143.842 315.122C147.134 316.879 151.305 315.561 153.5 312.926C154.817 311.389 155.695 309.632 156.354 307.875C156.793 306.777 155.915 305.46 154.817 305.24C153.5 305.021 152.622 305.68 152.183 306.777C152.183 306.777 152.183 306.997 151.963 306.997C151.963 306.778 152.183 306.778 151.963 306.997C151.963 307.217 151.744 307.217 151.744 307.436C151.524 307.875 151.305 308.095 151.085 308.534C150.866 308.754 150.646 309.193 150.427 309.413C150.427 309.413 150.427 309.632 150.207 309.632C150.427 309.413 150.427 309.413 150.207 309.632C149.988 309.852 149.988 309.852 149.768 310.071C149.549 310.291 149.11 310.73 148.89 310.95C148.671 310.95 148.451 311.169 148.451 311.169C148.451 311.169 148.232 311.169 148.232 311.389C148.012 311.389 148.012 311.389 148.232 311.389L147.793 311.609C147.573 311.609 147.354 311.609 147.134 311.828C146.476 312.048 147.354 311.828 146.915 311.828C146.695 311.828 146.695 311.828 146.476 311.828H146.256C146.476 311.828 146.695 311.828 146.256 311.828C146.037 311.828 146.037 311.828 145.817 311.609C145.378 311.609 146.037 311.828 145.817 311.609L145.378 311.389C145.598 311.389 145.817 311.828 145.378 311.389L145.159 311.169C145.378 311.389 145.378 311.389 145.159 311.389C145.159 311.389 145.159 311.169 144.939 311.169C144.939 311.169 144.72 310.95 144.72 310.73C144.939 310.95 144.939 311.169 144.72 310.95C144.72 310.95 144.72 310.95 144.72 310.73C144.72 310.511 144.72 310.291 144.5 310.291C144.5 310.73 144.5 310.73 144.5 310.511V310.291C144.5 310.291 144.5 309.632 144.5 310.071C144.5 310.511 144.5 309.852 144.5 309.852C144.281 310.291 144.5 309.413 144.5 309.852C144.5 309.632 144.72 309.632 144.72 309.413C144.939 308.973 145.159 308.095 144.939 307.656C144.72 307.217 144.5 306.558 143.842 306.338C143.622 305.68 142.524 305.899 141.646 306.997Z" fill="white" />
<path d="M47.4775 260.881C54.2824 251.219 62.1848 242.435 70.9653 234.53C73.1604 232.553 69.8678 229.479 67.8922 231.455C58.8922 239.581 50.7702 248.804 43.7458 258.685C41.9897 260.881 45.9409 263.077 47.4775 260.881Z" fill="white" />
<path d="M4.45164 221.134C14.5492 213.009 26.6224 206.86 39.1346 203.566C41.7687 202.908 40.6711 198.516 38.037 199.394C24.6468 202.908 12.1346 209.276 1.37847 218.06C-1.03617 219.816 2.25651 222.891 4.45164 221.134Z" fill="white" />
<path d="M5.32631 151.081C15.2044 152.619 25.3019 153.716 35.3995 154.375C38.2531 154.595 38.2531 150.203 35.3995 149.983C25.7409 149.325 16.0824 148.446 6.64338 146.909C3.78972 146.25 2.47265 150.642 5.32631 151.081Z" fill="white" />
<path d="M22.4552 94.2046C25.9674 97.0594 30.3577 98.377 34.5284 99.9141C39.1381 101.671 43.5284 103.428 48.1382 105.184C49.2357 105.624 50.5528 104.745 50.7723 103.647C51.2113 102.33 50.3333 101.451 49.2357 101.012C45.065 99.475 40.6747 97.7182 36.504 96.181C32.7723 94.8634 28.6016 93.7654 25.3089 91.3499C24.4308 90.6911 23.1138 90.4715 22.2357 91.3499C21.7967 91.7891 21.5772 93.3262 22.4552 94.2046Z" fill="white" />
<path d="M53.1813 40.4042C65.474 46.5529 74.6935 56.874 83.6935 66.9754C85.6691 69.1714 88.7423 65.8774 86.7666 63.9011C77.5471 53.58 67.8886 43.0394 55.3764 36.6711C52.7423 35.3535 50.5471 39.3062 53.1813 40.4042Z" fill="white" />
<path d="M113.767 2.85528C116.84 22.8386 121.669 42.3827 128.255 61.4877C129.133 64.1228 133.303 63.0248 132.425 60.3897C126.059 41.2847 121.23 21.7406 117.937 1.7573C117.498 -1.09746 113.328 0.000523143 113.767 2.85528Z" fill="white" />
<path d="M180.281 9.00301C174.794 25.2532 170.842 42.1622 168.867 59.2907C168.428 62.1455 172.818 62.1455 173.257 59.2907C175.233 42.6013 179.184 26.1316 184.452 10.101C185.55 7.46584 181.159 6.36785 180.281 9.00301Z" fill="white" />
<path d="M239.551 38.2103C229.454 47.653 220.454 57.974 212.551 69.1735C211.015 71.589 214.746 73.785 216.283 71.3694C223.966 60.3896 232.746 50.2881 242.625 41.2847C244.82 39.3083 241.746 36.2339 239.551 38.2103Z" fill="white" />
<path d="M230.548 103.65C235.378 105.846 240.646 104.089 245.695 103.21C251.622 101.893 257.548 100.356 263.475 98.5989C274.89 95.0853 285.866 90.2542 296.402 84.5447C298.817 83.2271 296.622 79.494 294.207 80.8115C284.548 86.0819 274.67 90.2542 264.134 93.7678C259.085 95.5245 254.036 96.8421 248.768 98.1597C246.134 98.8185 243.5 99.2577 241.085 99.6969C238.451 100.136 235.378 101.014 232.744 99.9165C230.109 98.5989 227.914 102.332 230.548 103.65Z" fill="white" />
<path d="M243.722 148.006C252.722 149.983 261.722 151.739 270.503 153.716C273.357 154.375 274.454 149.983 271.6 149.543C262.6 147.567 253.6 145.81 244.82 143.834C242.186 143.175 240.869 147.348 243.722 148.006Z" fill="white" />
<path d="M235.598 191.046C252.281 206.638 272.037 218.496 293.768 225.523C296.403 226.401 297.72 222.229 294.866 221.351C273.793 214.543 254.695 203.124 238.671 187.972C236.695 185.996 233.622 189.07 235.598 191.046Z" fill="white" />
<path d="M210.57 219.597C212.545 228.601 217.594 237.165 224.838 242.874C225.716 243.533 227.033 243.753 227.911 242.874C228.57 242.216 228.789 240.459 227.911 239.8C221.106 234.53 216.496 227.063 214.74 218.499C214.521 217.401 213.204 216.742 212.106 216.962C210.789 217.401 210.35 218.499 210.57 219.597Z" fill="white" />
<path d="M145.377 258.903C144.28 245.288 141.865 231.453 139.231 217.838C136.597 204.223 133.084 190.828 127.816 178.091C125.402 172.601 123.206 166.453 119.694 161.402C117.06 157.669 112.231 154.814 109.377 159.865C106.743 164.037 107.841 169.527 109.597 173.919C111.792 179.409 115.084 184.24 118.816 188.852C121.011 191.487 123.426 193.902 125.841 196.098C127.816 197.635 130.011 198.953 132.426 197.855C134.621 196.977 135.719 194.561 136.597 192.365C137.914 188.632 138.792 184.46 139.45 180.507C138.133 180.507 136.597 180.507 135.28 180.507C136.597 185.777 141.426 189.95 147.133 189.95C152.841 189.95 157.67 185.777 158.987 180.507C158.109 180.946 157.231 181.605 156.353 182.044C163.377 184.02 170.841 179.409 171.28 171.943C171.499 169.307 170.621 164.476 167.987 162.939C165.133 161.402 162.06 164.257 160.523 166.233C158.328 169.747 157.67 174.139 156.792 178.091C155.694 182.922 154.816 187.754 154.377 192.585C153.06 202.247 152.402 212.129 152.621 221.791C152.841 232.991 154.158 244.19 156.353 255.389C156.792 258.244 161.182 256.927 160.523 254.291C157.45 239.139 156.353 223.548 157.231 207.956C157.67 200.271 158.548 192.585 159.865 184.899C160.523 181.166 161.401 177.432 162.28 173.699C162.938 171.503 163.597 166.892 166.67 167.111C166.231 166.892 165.572 166.672 165.133 166.453C169.743 172.162 164.036 179.848 157.45 177.872C156.353 177.652 155.036 178.311 154.816 179.409C152.621 187.534 141.645 187.314 139.67 179.189C139.231 177.213 135.719 176.993 135.499 179.189C135.06 181.824 134.402 184.46 133.743 187.095C133.304 188.632 132.865 191.926 131.548 193.024C129.792 194.561 126.938 190.828 125.841 189.73C124.084 187.973 122.548 186.216 121.231 184.46C117.28 179.409 108.28 166.892 114.645 160.963C114.206 161.182 113.548 161.402 113.109 161.622C116.621 161.622 118.816 168.209 120.133 170.845C121.889 174.578 123.645 178.311 125.182 182.264C128.255 190.169 130.889 198.294 132.865 206.639C134.841 215.203 136.377 223.987 137.914 232.771C139.231 241.555 140.767 250.119 141.645 258.903C141.206 261.538 145.597 261.758 145.377 258.903Z" fill="url(#paint0_linear_5057_3183)" />
<path d="M175.011 96.1845C185.109 100.576 193.45 108.043 198.938 117.705C200.255 120.121 204.206 117.925 202.67 115.509C196.743 105.408 187.743 97.2825 177.206 92.4513C176.109 92.0121 174.792 92.2317 174.133 93.3297C173.694 94.2081 174.133 95.7453 175.011 96.1845Z" fill="white" />
<path d="M207.278 128.463C207.278 128.244 207.497 128.244 207.497 128.024C206.839 128.463 206.18 128.683 205.521 129.122C205.741 129.122 205.96 129.122 205.96 129.122C205.302 128.683 204.643 128.463 203.985 128.024C204.424 128.903 204.424 130.44 204.424 131.318C204.424 132.416 204.643 133.734 204.643 134.832C204.643 136.808 204.863 139.004 204.643 140.981C204.643 145.372 204.204 149.545 203.326 153.937C201.57 162.501 198.497 170.626 193.887 177.873C192.351 180.288 196.082 182.484 197.619 180.069C203.107 171.285 206.619 161.403 208.156 151.082C208.814 146.031 209.253 141.2 209.034 136.149C209.034 133.514 208.814 130.879 208.375 128.244C208.156 126.048 207.497 124.95 205.302 124.511C204.424 124.511 203.765 124.95 203.326 125.609C203.326 125.828 203.107 125.828 203.107 126.048C201.79 128.463 205.521 130.659 207.278 128.463Z" fill="white" />
</g>
<defs>
<linearGradient id="paint0_linear_5057_3183" x1="139.558" y1="157.146" x2="139.558" y2="260.963" gradientUnits="userSpaceOnUse">
<stop stop-color="#EF7160" />
<stop offset="1" stop-color="#941209" />
</linearGradient>
<clipPath id="clip0_5057_3183">
<rect width="297" height="316" fill="white" transform="translate(0.5)" />
</clipPath>
</defs>
</svg>