<svg xmlns="http://www.w3.org/2000/svg" width="72.0" height="72.0" viewBox="0.0 0.0 72.0 72.0" fill="none">
<path d="M38.8177 12.7502C39.2038 12.8166 39.4601 12.785 39.6088 12.8957C40.3461 13.4558 40.9442 13.0951 41.5866 12.6964C41.96 12.4654 42.3967 12.3356 42.8112 12.1711C43.6119 11.8483 44.6466 11.8641 44.808 10.6521C44.8397 10.4243 45.1656 10.2123 45.3966 10.0414C46.2099 9.4433 49.2098 9.4528 50.0072 10.0762C50.2825 10.2914 50.5895 10.5952 50.6623 10.9116C50.8142 11.5477 51.2097 11.7755 51.773 11.9464C52.447 12.1521 53.0926 12.4495 53.7508 12.7154C54.428 12.9907 55.0102 13.3356 55.8551 12.9116C56.2887 12.6932 57.1526 12.9938 57.6494 13.3198C58.3392 13.7723 58.893 14.4495 59.4595 15.0697C60.1113 15.7849 60.1746 16.6013 59.7632 17.481C59.6683 17.6836 59.6303 17.981 59.7063 18.1835C60.0955 19.2626 60.5069 20.3385 60.9626 21.3891C61.0765 21.6549 61.3486 21.9303 61.6176 22.041C62.6113 22.4492 63.1271 23.1169 63.1429 24.1928C63.1524 24.8764 63.1555 25.5599 63.1429 26.2466C63.1239 27.294 62.6935 27.9649 61.7189 28.275C61.2157 28.4364 61.0195 28.737 60.8771 29.1895C60.6556 29.8889 60.4246 30.5914 60.1272 31.2622C59.8107 31.9742 59.45 32.5882 59.9278 33.4362C60.2569 34.0217 59.9626 34.7337 59.5006 35.2526C58.9595 35.8602 58.3962 36.452 57.8013 37.0089C57.0292 37.7336 56.2444 37.7842 55.2697 37.3127C55.0798 37.2209 54.7792 37.2462 54.5735 37.3285C53.7951 37.6323 53.0514 38.0247 52.2635 38.3032C51.5262 38.5626 50.8458 38.7177 50.5926 39.6734C50.4059 40.3822 49.6623 40.7176 48.8997 40.7525C48.137 40.7841 47.3712 40.7873 46.6118 40.7588C45.5833 40.7208 44.9188 40.1828 44.5422 39.2177C44.4536 38.993 44.2479 38.743 44.0327 38.6481C43.0074 38.1861 41.9695 37.7494 40.9126 37.357C40.6468 37.2589 40.2702 37.281 40.0075 37.3918C39.131 37.762 38.3051 37.6671 37.6089 37.0057C37.0741 36.4994 36.5551 35.9773 36.0456 35.4425C35.3589 34.7242 35.2071 33.9109 35.6058 32.9774C35.7102 32.7306 35.7324 32.3793 35.6437 32.1293C35.2514 31.0217 34.821 29.9268 34.359 28.8478C34.2672 28.6294 33.9951 28.43 33.7609 28.3414C32.7894 27.9744 32.3147 27.3889 32.2831 26.3478C32.2609 25.6105 32.2704 24.8732 32.2799 24.139C32.2894 23.0979 32.7008 22.4619 33.7008 22.117C34.1533 21.9587 34.3558 21.7087 34.4919 21.2752C34.7261 20.5252 34.9697 19.7689 35.321 19.0696C35.6881 18.3386 35.7956 17.712 35.4919 16.8829C35.3178 16.4114 35.5868 15.6267 35.9127 15.1646C36.419 14.4431 37.1152 13.8419 37.7924 13.2596C38.1057 12.9875 38.5614 12.8831 38.8304 12.7565L38.8177 12.7502ZM47.77 33.8349C52.3901 33.8191 56.2634 29.9648 56.2792 25.37C56.2982 20.3544 52.5831 16.5823 47.6339 16.595C42.7353 16.6076 39.1152 20.3449 39.1215 25.3827C39.1278 30.0534 43.0106 33.8508 47.77 33.8349Z" fill="#E7ABAF" />
<path d="M60.1941 37.2025C60.3238 37.4999 60.4156 37.6138 60.4124 37.7246C60.3934 41.0916 60.3966 44.4617 60.3175 47.8287C60.2858 49.1989 59.3871 50.0692 58.0138 50.2938C57.5992 50.3603 57.1783 50.4109 56.7606 50.4109C42.3054 50.4172 27.8501 50.4204 13.3949 50.4014C12.6481 50.4014 11.8348 50.3381 11.1734 50.0375C9.92665 49.4711 9.60704 48.2844 9.60704 47.0028C9.60704 40.2878 9.60704 33.576 9.60704 26.861C9.60704 24.2535 9.59122 21.6492 9.61337 19.0416C9.62286 17.7695 9.97095 16.6082 11.2367 16.0386C11.7905 15.7886 12.4487 15.6557 13.0595 15.6525C19.6162 15.624 26.173 15.6398 32.7266 15.624C33.312 15.624 33.4386 15.8171 33.4924 16.3993C33.5873 17.3993 33.6981 18.3328 33.1443 19.2758C32.774 19.9087 32.5145 20.5194 31.812 20.9403C30.7361 21.5859 30.407 22.7599 30.3406 23.9434C30.2836 24.9623 30.3279 25.994 30.4228 27.0129C30.5336 28.2091 31.1633 29.1141 32.2013 29.7438C32.9259 30.1837 33.7455 32.3324 33.5493 33.1583C33.274 34.3038 33.4702 35.3544 34.2582 36.25C34.9005 36.981 35.5872 37.6708 36.2391 38.3955C37.2707 39.5473 38.546 39.7372 39.9827 39.4144C40.2453 39.3543 40.5681 39.3543 40.8086 39.4556C41.894 39.9176 43.0269 40.2087 43.7199 41.4049C44.2642 42.3479 45.4066 42.6105 46.4951 42.6485C47.3907 42.6801 48.2862 42.6738 49.1817 42.6485C50.4285 42.6137 51.3905 42.0409 52.0677 41.003C52.6911 40.0473 54.4474 39.2815 55.5834 39.484C57.2226 39.7752 58.5042 39.1011 59.6055 37.9651C59.8017 37.7626 59.9567 37.5157 60.2004 37.1993L60.1941 37.2025ZM32.0652 39.2309C31.5652 39.6328 31.119 39.9587 30.7108 40.3258C30.3026 40.6929 29.9134 41.0884 29.5431 41.4966C29.0843 42.0061 29.0368 42.7118 29.4545 43.0472C29.9735 43.4618 30.4798 43.3573 30.926 42.8985C31.9291 41.8605 32.9228 40.8163 33.9291 39.7783C34.4069 39.2847 34.3816 38.8068 33.9132 38.3322C32.8974 37.3069 31.8848 36.2784 30.8564 35.2627C30.407 34.8196 29.9007 34.7057 29.4039 35.1899C28.8723 35.7057 29.1033 36.1582 29.5431 36.6075C30.3153 37.3892 31.0684 38.1898 32.0684 39.2277L32.0652 39.2309ZM16.7492 39.0473C17.3505 38.5252 17.7618 38.1929 18.1447 37.8322C18.5466 37.4525 18.92 37.0442 19.3093 36.655C19.7523 36.212 19.9453 35.7373 19.4548 35.2089C19.0023 34.7215 18.553 34.7405 17.958 35.3228C16.9422 36.3164 15.9518 37.3322 14.9518 38.3385C14.4708 38.8227 14.4993 39.3321 14.9455 39.7973C15.9803 40.8796 17.0119 41.9745 18.1163 42.9839C18.3568 43.2054 19.034 43.2624 19.2745 43.082C19.5308 42.8922 19.6099 42.3131 19.5688 41.9302C19.5371 41.6454 19.2112 41.3701 18.9707 41.1359C18.2998 40.4808 17.6036 39.8479 16.7492 39.0505V39.0473ZM22.6826 42.2561C22.6446 42.8415 22.9326 43.1833 23.4737 43.2751C24.0813 43.3795 24.4389 42.9934 24.5749 42.4776C25.1255 40.3986 25.6477 38.3132 26.1572 36.2215C26.3312 35.5063 26.0337 35.0538 25.3819 34.9146C24.6794 34.7658 24.442 35.2215 24.2965 35.769C23.9863 36.9366 23.6857 38.1043 23.3946 39.2752C23.1478 40.2657 22.9199 41.2625 22.6826 42.2561Z" fill="url(#paint0_angular_5959_4175)" />
<path d="M38.9068 52.4045C39.0365 53.4013 39.1156 54.2905 39.2865 55.1639C39.3276 55.3791 39.6409 55.6702 39.8624 55.7051C41.9889 56.0183 44.1376 56.2177 46.2546 56.5848C48.7419 57.0151 51.15 57.7335 53.3209 59.0847C53.8082 59.3885 53.9031 59.822 53.6246 60.2935C53.305 60.8315 52.8304 60.9138 52.2639 60.6606C50.976 60.0878 49.726 59.3568 48.378 59.0087C46.3021 58.474 44.1724 58.0278 42.0427 57.8695C38.5618 57.6132 35.0556 57.4487 31.5715 57.5531C27.4514 57.6765 23.3503 58.167 19.4675 59.7302C18.8884 59.9644 18.3409 60.284 17.803 60.61C17.2365 60.9517 16.803 60.822 16.4391 60.3252C16.0562 59.7999 16.2556 59.4106 16.7461 59.0752C18.4454 57.9107 20.3757 57.2904 22.3566 56.9075C24.8502 56.4297 27.3755 56.1006 29.8975 55.7778C30.5557 55.6924 30.8437 55.4424 30.8754 54.8222C30.9038 54.2178 30.8849 53.607 30.983 53.0153C31.0209 52.7906 31.3152 52.4362 31.4988 52.433C33.967 52.395 36.4321 52.4077 38.9068 52.4077V52.4045Z" fill="url(#paint1_angular_5959_4175)" />
<defs>
<radialGradient id="paint0_angular_5959_4175" cx="0" cy="0" r="1" gradientUnits="userSpaceOnUse" gradientTransform="translate(35.1217 45.7769) rotate(89.5792) scale(24.5316 40.4399)">
<stop stop-color="#EE4136" />
<stop offset="1" stop-color="#941209" />
</radialGradient>
<radialGradient id="paint1_angular_5959_4175" cx="0" cy="0" r="1" gradientUnits="userSpaceOnUse" gradientTransform="translate(35.1217 45.7769) rotate(89.5792) scale(24.5316 40.4399)">
<stop stop-color="#EE4136" />
<stop offset="1" stop-color="#941209" />
</radialGradient>
</defs>
</svg>