<svg xmlns="http://www.w3.org/2000/svg" width="103" height="165" viewBox="0.0 0.0 416.0 661.0" fill="none">
<path d="M28.2247 435.768C28.502 435.715 28.7397 435.57 28.8982 435.332C29.0567 435.107 29.1227 434.817 29.0699 434.54C29.017 434.262 28.8718 434.025 28.6341 433.866C28.4492 433.734 28.2379 433.668 28.0266 433.668C27.6964 433.668 27.3663 433.826 27.1682 434.117C26.838 434.592 26.9569 435.253 27.4191 435.583C27.6436 435.741 27.9341 435.807 28.2115 435.755L28.2247 435.768Z" fill="white" />
<path d="M396.044 382.419H385.709C381.394 390.637 374.761 391.662 374.482 391.702C374.442 391.702 374.402 391.702 374.362 391.702C374.162 391.702 373.976 391.636 373.829 391.503C373.656 391.343 373.549 391.116 373.549 390.877V382.406H364V390.943C364 393.181 365.825 395.005 368.062 395.005H395.791C396.098 395.005 396.391 395.179 396.524 395.458C398.881 400.173 402.237 401.824 403.849 402.371V395.818C403.849 395.365 404.222 394.992 404.675 394.992H414.53C416.768 394.992 418.592 393.167 418.592 390.93V368.062C418.592 365.825 416.768 364 414.53 364H402.837V375.614C402.837 379.356 399.8 382.393 396.058 382.393L396.044 382.419Z" fill="#E99EA8" />
<path d="M339.102 375.191C332.043 367.253 332.096 352.936 336.957 341.935C335.599 342.001 334.387 342.587 333.495 343.506C333.468 343.533 333.441 343.573 333.415 343.599C333.228 343.799 333.055 344.012 332.895 344.239C332.842 344.319 332.802 344.425 332.749 344.505C332.642 344.691 332.522 344.878 332.443 345.078C332.376 345.238 332.336 345.411 332.283 345.584C332.243 345.73 332.176 345.864 332.15 346.023C332.083 346.356 332.043 346.689 332.043 347.036V374.951C332.043 377.788 334.347 380.092 337.184 380.092H371.958V379.573C359.905 377.388 345.668 381.77 339.102 375.191Z" fill="url(#paint0_linear_6905_3227)" />
<path d="M337.2 341.908H393.923C396.76 341.908 399.064 344.212 399.064 347.049V374.965C399.064 377.801 396.76 380.106 393.923 380.106H383.082C382.775 380.106 382.482 380.279 382.349 380.558C379.313 386.645 374.957 388.589 373.053 389.175V380.931C373.053 380.479 372.68 380.106 372.227 380.106H371.961V379.586C359.908 377.402 345.67 381.784 339.104 375.204C332.045 367.267 332.099 352.949 336.96 341.948C337.04 341.948 337.12 341.922 337.2 341.922V341.908ZM375.53 361.127C375.53 363.404 377.381 365.242 379.646 365.242C381.91 365.242 383.761 363.391 383.761 361.127C383.761 358.863 381.91 357.011 379.646 357.011C377.381 357.011 375.53 358.863 375.53 361.127ZM361.439 361.127C361.439 363.404 363.29 365.242 365.555 365.242C367.819 365.242 369.67 363.391 369.67 361.127C369.67 358.863 367.819 357.011 365.555 357.011C363.29 357.011 361.439 358.863 361.439 361.127ZM347.335 361.127C347.335 363.404 349.186 365.242 351.45 365.242C353.714 365.242 355.566 363.391 355.566 361.127C355.566 358.863 353.714 357.011 351.45 357.011C349.186 357.011 347.335 358.863 347.335 361.127Z" fill="url(#paint1_linear_6905_3227)" />
<path d="M191.051 483.922C191.051 479.817 194.396 476.472 198.501 476.472C198.866 476.472 199.217 476.501 199.552 476.56C200.59 474.529 202.036 472.353 203.891 470.045C206.097 467.298 208.77 464.494 211.808 461.704C209.004 458.68 206.564 455.671 204.592 452.749C199.406 445.095 198.033 438.93 200.707 435.41C203.38 431.889 209.69 431.553 218.455 434.475C220.135 435.03 221.873 435.731 223.655 436.491C225.35 429.61 227.716 424.205 230.506 420.962C230.229 420.174 230.054 419.326 230.054 418.45C230.054 414.345 233.399 411 237.503 411C241.608 411 244.953 414.345 244.953 418.45C244.953 419.852 244.559 421.167 243.872 422.292C246.443 425.9 248.591 431.422 250.11 438.214C252.535 437.338 254.887 436.607 257.136 436.052C261.022 435.103 264.382 434.723 267.157 434.884C268.487 432.824 270.795 431.436 273.424 431.436C277.529 431.436 280.874 434.781 280.874 438.886C280.874 442.465 278.332 445.474 274.943 446.175C273.161 451.23 268.443 457.409 261.562 463.705C265.404 467.853 268.472 471.885 270.59 475.581H268.501C266.456 472.265 263.637 468.642 260.189 464.932C257.779 467.05 255.15 469.168 252.301 471.272C252.199 472.732 252.082 474.179 251.936 475.596H250.11C250.212 474.631 250.3 473.653 250.373 472.659C248.971 473.653 247.524 474.631 246.034 475.596H242.645C243.186 475.26 243.726 474.953 244.252 474.602C246.429 473.214 248.532 471.768 250.534 470.308C250.68 467.824 250.767 465.297 250.767 462.697C250.767 460.345 250.694 458.037 250.577 455.787C248.854 454.327 247.057 452.88 245.187 451.464C242.587 449.491 239.958 447.665 237.343 445.971C234.597 447.446 231.821 449.053 229.075 450.821C226.898 452.208 224.809 453.64 222.793 455.101C222.647 457.584 222.56 460.126 222.56 462.711C222.56 465.063 222.633 467.371 222.75 469.636C224.473 471.096 226.285 472.542 228.14 473.959C228.885 474.515 229.615 475.07 230.36 475.61H227.336C227.249 475.537 227.147 475.479 227.059 475.406C225.642 474.325 224.269 473.244 222.925 472.133C223.013 473.317 223.115 474.471 223.232 475.625H221.406C221.23 473.959 221.099 472.265 220.997 470.527C218.134 468.073 215.46 465.56 213.035 463.047C210.055 465.779 207.441 468.525 205.293 471.199C203.628 473.273 202.299 475.245 201.335 477.071C204.037 478.196 205.951 480.854 205.951 483.951C205.951 485.675 205.352 487.253 204.373 488.523C206.623 488.976 209.559 488.889 213.05 488.246V490.072C211.034 490.422 209.179 490.612 207.528 490.612C205.746 490.612 204.183 490.393 202.854 489.999C201.627 490.89 200.122 491.416 198.501 491.416C194.396 491.416 191.051 488.071 191.051 483.966V483.922ZM220.778 462.711C220.778 460.593 220.836 458.519 220.924 456.489C218.616 458.227 216.424 460.009 214.379 461.806C216.381 463.88 218.557 465.954 220.88 467.999C220.807 466.261 220.778 464.508 220.778 462.711ZM258.962 463.617C256.99 461.557 254.814 459.498 252.506 457.438C252.579 459.162 252.608 460.929 252.608 462.711C252.608 464.83 252.549 466.889 252.462 468.92C254.77 467.167 256.961 465.399 258.962 463.617ZM267.785 438.901C267.785 442.012 270.312 444.554 273.439 444.554C276.565 444.554 279.092 442.027 279.092 438.901C279.092 435.775 276.565 433.248 273.439 433.248C270.312 433.248 267.785 435.775 267.785 438.901ZM250.504 439.996C251.41 444.51 252.053 449.55 252.374 454.926C255.281 457.409 257.94 459.907 260.321 462.39C266.646 456.591 271.174 450.894 273.03 446.322C269.1 446.117 265.974 442.86 265.974 438.886C265.974 438.112 266.091 437.352 266.325 436.651C266.164 436.651 266.018 436.637 265.872 436.637C263.52 436.637 260.73 437.016 257.575 437.791C255.325 438.346 252.944 439.091 250.504 439.982V439.996ZM248.766 440.668C245.669 441.881 242.455 443.327 239.198 445.007C241.564 446.57 243.945 448.25 246.297 450.032C247.729 451.113 249.102 452.208 250.431 453.304C250.095 448.805 249.526 444.539 248.751 440.654L248.766 440.668ZM231.865 418.45C231.865 421.561 234.392 424.103 237.518 424.103C240.644 424.103 243.171 421.576 243.171 418.45C243.171 415.324 240.644 412.797 237.518 412.797C234.392 412.797 231.865 415.324 231.865 418.45ZM225.364 437.25C229.265 439.047 233.34 441.297 237.46 443.897C241.185 441.939 244.866 440.245 248.401 438.886C246.984 432.459 245.041 427.171 242.762 423.738C241.418 425.082 239.563 425.9 237.518 425.9C234.976 425.9 232.727 424.614 231.383 422.672C228.987 425.768 226.898 430.867 225.364 437.25ZM222.969 452.764C224.634 451.58 226.358 450.426 228.125 449.302C230.609 447.709 233.121 446.234 235.604 444.861C231.982 442.597 228.388 440.639 224.941 439.047C224.035 443.196 223.363 447.841 222.969 452.764ZM213.152 460.506C215.592 458.358 218.236 456.226 221.055 454.151C221.435 448.381 222.18 443.02 223.232 438.287C221.406 437.484 219.609 436.768 217.885 436.198C210.026 433.569 204.285 433.686 202.153 436.505C200.005 439.324 201.452 444.875 206.097 451.741C208.025 454.59 210.406 457.54 213.152 460.491V460.506ZM192.862 483.922C192.862 487.033 195.389 489.575 198.515 489.575C201.641 489.575 204.169 487.048 204.169 483.922C204.169 480.796 201.641 478.269 198.515 478.269C195.389 478.269 192.862 480.796 192.862 483.922Z" fill="url(#paint2_linear_6905_3227)" />
<path d="M176.671 595.327C176.671 595.947 176.16 596.458 175.54 596.458H150.894C147.063 596.458 143.962 593.338 143.962 589.526V550.177C135.06 549.593 128 542.187 128 533.157C128 524.127 135.662 516.082 145.075 516.082C154.488 516.082 162.15 523.744 162.15 533.157C162.15 542.57 155.09 549.593 146.188 550.177V589.526C146.188 592.116 148.285 594.214 150.876 594.214H175.521C176.142 594.214 176.652 594.725 176.652 595.345L176.671 595.327ZM145.093 547.988C145.567 547.988 146.023 547.951 146.498 547.915C146.644 547.915 146.79 547.878 146.954 547.86C147.264 547.824 147.574 547.769 147.866 547.714C148.03 547.678 148.212 547.641 148.377 547.605C148.65 547.55 148.924 547.477 149.198 547.386C149.38 547.331 149.544 547.276 149.708 547.222C149.964 547.13 150.237 547.039 150.493 546.93C150.657 546.857 150.821 546.802 150.985 546.729C151.295 546.601 151.587 546.455 151.861 546.31C152.116 546.182 152.372 546.036 152.609 545.89C152.81 545.762 153.01 545.653 153.211 545.525C153.412 545.397 153.612 545.252 153.813 545.106C153.959 544.996 154.105 544.887 154.251 544.777C154.451 544.613 154.67 544.449 154.853 544.266C154.962 544.175 155.072 544.066 155.181 543.956C155.4 543.756 155.601 543.555 155.801 543.354C155.874 543.281 155.929 543.208 156.002 543.135C157.005 542.041 157.844 540.819 158.483 539.469C158.483 539.432 158.519 539.396 158.538 539.359C158.684 539.031 158.83 538.703 158.957 538.356C158.957 538.319 158.994 538.265 159.012 538.21C159.34 537.298 159.596 536.331 159.742 535.346C159.742 535.255 159.778 535.145 159.778 535.054C159.869 534.416 159.924 533.795 159.924 533.139C159.924 524.966 153.266 518.308 145.093 518.308C144.655 518.308 144.236 518.344 143.798 518.381C143.36 518.417 142.94 518.472 142.521 518.545C142.466 518.545 142.411 518.545 142.357 518.563C141.974 518.636 141.591 518.727 141.207 518.837C141.134 518.855 141.043 518.873 140.97 518.891C140.624 519.001 140.277 519.11 139.93 519.238C139.839 519.274 139.73 519.311 139.639 519.347C139.31 519.475 139 519.621 138.69 519.767C138.581 519.822 138.471 519.876 138.343 519.931C138.052 520.077 137.778 520.241 137.486 520.405C137.358 520.478 137.249 520.551 137.121 520.624C136.866 520.789 136.61 520.971 136.355 521.153C136.227 521.245 136.1 521.336 135.972 521.445C135.735 521.628 135.516 521.81 135.297 522.011C135.169 522.12 135.042 522.248 134.914 522.357C134.713 522.54 134.513 522.74 134.312 522.941C134.184 523.087 134.056 523.215 133.929 523.361C133.746 523.561 133.582 523.762 133.418 523.963C133.29 524.127 133.163 524.291 133.053 524.455C132.907 524.656 132.761 524.857 132.615 525.075C132.488 525.258 132.378 525.459 132.269 525.641C132.141 525.842 132.032 526.061 131.904 526.261C131.794 526.462 131.703 526.681 131.594 526.9C131.503 527.1 131.393 527.319 131.302 527.52C131.211 527.757 131.119 527.994 131.046 528.231C130.973 528.432 130.901 528.633 130.828 528.852C130.755 529.107 130.682 529.381 130.627 529.654C130.572 529.855 130.517 530.037 130.481 530.238C130.426 530.548 130.372 530.858 130.335 531.187C130.317 531.351 130.28 531.515 130.262 531.679C130.207 532.172 130.189 532.664 130.189 533.157C130.189 541.329 136.848 547.988 145.02 547.988H145.093Z" fill="#ED7F5C" />
<path d="M154.178 533.596C154.178 532.976 153.667 532.465 153.047 532.465H146.644V526.062C146.644 525.441 146.133 524.931 145.513 524.931C144.893 524.931 144.382 525.441 144.382 526.062V532.465H137.979C137.358 532.465 136.848 532.976 136.848 533.596C136.848 534.216 137.358 534.727 137.979 534.727H144.382V541.13C144.382 541.75 144.893 542.261 145.513 542.261C146.133 542.261 146.644 541.75 146.644 541.13V534.727H153.047C153.667 534.727 154.178 534.216 154.178 533.596Z" fill="#ED7F5C" />
<path d="M351.993 517.848C350.167 517.848 348.691 519.338 348.691 521.164C348.691 522.99 350.181 524.465 351.993 524.465C353.804 524.465 355.309 522.975 355.309 521.164C355.309 519.352 353.819 517.848 351.993 517.848Z" fill="white" />
<path d="M342.016 492.015C340.19 492.015 338.715 493.505 338.715 495.316C338.715 497.127 340.205 498.632 342.016 498.632C343.828 498.632 345.332 497.142 345.332 495.316C345.332 493.49 343.842 492.015 342.016 492.015Z" fill="white" />
<path d="M311.254 515.577C309.429 515.577 307.953 517.067 307.953 518.878C307.953 520.69 309.443 522.18 311.254 522.18C313.066 522.18 314.556 520.69 314.556 518.878C314.556 517.067 313.066 515.577 311.254 515.577Z" fill="white" />
<path d="M275.526 580.814C275.62 577.893 275.568 574.972 275.343 572.046H299.564C299.428 574.522 299.397 576.988 299.449 579.437C299.512 582.374 299.701 585.279 299.978 588.174C299.978 588.185 299.978 588.195 299.978 588.206V588.232C300.543 594.205 303.564 600.089 304.574 605.878H270.328C271.799 597.534 275.259 589.19 275.521 580.846V580.814H275.526Z" fill="url(#paint3_linear_6905_3227)" />
<g style="mix-blend-mode:soft-light" opacity="0.5">
<path d="M299.984 588.206L275.611 580.841L275.527 580.815H275.611L299.456 579.443C299.518 582.375 299.707 585.28 299.984 588.175C299.984 588.185 299.984 588.196 299.984 588.206Z" fill="black" />
</g>
<g filter="url(#filter0_d_6905_3227)">
<path d="M362.838 480.772V575.203C362.838 578.307 360.681 580.82 358.022 580.82H216.886C214.227 580.82 212.07 578.307 212.07 575.203V480.772C212.07 477.673 214.227 475.155 216.886 475.155H358.022C360.681 475.155 362.838 477.673 362.838 480.772Z" fill="url(#paint4_linear_6905_3227)" />
</g>
<path d="M362.838 479.977V562.027H212.07V479.977C212.07 477.312 214.227 475.155 216.886 475.155H358.022C360.681 475.155 362.838 477.312 362.838 479.977Z" fill="url(#paint5_linear_6905_3227)" />
<path d="M292.888 571.047C292.888 574.05 290.454 576.485 287.45 576.485C284.447 576.485 282.013 574.05 282.013 571.047C282.013 568.044 284.447 565.609 287.45 565.609C290.454 565.609 292.888 568.044 292.888 571.047Z" fill="white" stroke="#360000" stroke-width="0.4" />
<path d="M218.918 555.594V484.092H355.985V555.594H218.918Z" fill="#E99EA8" stroke="#360000" stroke-width="2" />
<path opacity="0.5" d="M289.541 479.333C289.541 480.484 288.604 481.422 287.452 481.422C286.3 481.422 285.363 480.484 285.363 479.333C285.363 478.181 286.3 477.244 287.452 477.244C288.604 477.244 289.541 478.181 289.541 479.333Z" fill="#D1D1E6" />
<path d="M269.947 603.784H304.962C306.25 603.784 307.292 604.826 307.292 606.114V607.124H267.617V606.114C267.617 604.826 268.659 603.784 269.947 603.784Z" fill="url(#paint6_linear_6905_3227)" />
<g style="mix-blend-mode:soft-light" opacity="0.5">
<path d="M362.836 480.772V575.203C362.836 578.307 360.679 580.82 358.02 580.82H297.469C311.864 568.717 322.847 552.552 328.715 534.67C332.233 523.959 333.903 512.652 333.73 501.382C333.61 493.765 330.218 482.898 331.741 475.155H358.02C360.679 475.155 362.836 477.673 362.836 480.772Z" fill="black" />
</g>
<g filter="url(#filter1_d_6905_3227)">
<path d="M256.303 553.559V605.666C256.303 608.038 254.381 609.959 252.01 609.959H179.324C176.947 609.959 175.031 608.038 175.031 605.666V553.559C175.031 551.187 176.953 549.266 179.324 549.266H252.016C254.388 549.266 256.309 551.193 256.309 553.559H256.303Z" fill="url(#paint7_linear_6905_3227)" />
<path d="M256.301 553.559V556.558H175.023V553.559C175.023 551.187 176.945 549.266 179.316 549.266H252.008C254.38 549.266 256.301 551.193 256.301 553.559Z" fill="#C01111" />
<path d="M182.533 553.503C182.533 554.421 181.788 555.166 180.87 555.166C179.952 555.166 179.207 554.421 179.207 553.503C179.207 552.585 179.952 551.84 180.87 551.84C181.788 551.84 182.533 552.585 182.533 553.503Z" fill="white" />
<path d="M187.213 553.503C187.213 554.421 186.467 555.166 185.55 555.166C184.632 555.166 183.887 554.421 183.887 553.503C183.887 552.585 184.632 551.84 185.55 551.84C186.467 551.84 187.213 552.585 187.213 553.503Z" fill="white" />
<path d="M191.9 553.503C191.9 554.421 191.155 555.166 190.237 555.166C189.319 555.166 188.574 554.421 188.574 553.503C188.574 552.585 189.319 551.84 190.237 551.84C191.155 551.84 191.9 552.585 191.9 553.503Z" fill="white" />
<path d="M256.32 556.558H175.023V557.057H256.32V556.558Z" fill="#360000" />
<path d="M251.886 561.433H179.988V562.539H251.886V561.433Z" fill="white" fill-opacity="0.7" />
<path d="M251.886 566.964H179.988V568.07H251.886V566.964Z" fill="white" fill-opacity="0.7" />
<path d="M251.886 602.359H179.988V604.572H251.886V602.359Z" fill="white" fill-opacity="0.7" />
<path d="M251.888 573.601H210.961V574.707H251.888V573.601Z" fill="white" fill-opacity="0.7" />
<path d="M251.888 579.131H210.961V580.237H251.888V579.131Z" fill="white" fill-opacity="0.7" />
<path d="M251.888 584.662H210.961V585.768H251.888V584.662Z" fill="white" fill-opacity="0.7" />
<path d="M251.888 590.192H210.961V591.299H251.888V590.192Z" fill="white" fill-opacity="0.7" />
<path d="M251.888 595.723H210.961V596.829H251.888V595.723Z" fill="white" fill-opacity="0.7" />
<path d="M207.191 572.426H179.523V600.093H207.191V572.426Z" fill="#F8AEB4" />
<path d="M179.477 591.218L187.434 580.285L194.271 592.425L200.141 583.981L207.138 594.273V600.093H179.526L179.477 591.218Z" fill="#ED7F5C" />
<path d="M199.18 577.47C199.18 579.022 197.918 580.285 196.366 580.285C194.813 580.285 193.551 579.022 193.551 577.47C193.551 575.918 194.813 574.655 196.366 574.655C197.918 574.655 199.18 575.918 199.18 577.47Z" fill="#ED7F5C" />
<g style="mix-blend-mode:soft-light" opacity="0.5">
<path d="M256.303 553.559V605.667C256.303 608.038 254.381 609.96 252.01 609.96H205.156C205.735 608.611 206.493 607.336 207.374 606.184C210.693 601.904 215.559 599.132 220.407 596.711C225.254 594.291 230.292 592.061 234.382 588.513C240.264 583.407 243.689 575.93 245.235 568.299C246.165 563.704 246.467 559.01 246.504 554.335C246.516 552.919 246.306 551.052 246.405 549.272H252.01C254.381 549.272 256.303 551.2 256.303 553.565V553.559Z" fill="black" />
</g>
</g>
<path opacity="0.6" d="M322.145 595.726H315.492C315.181 595.726 314.938 595.482 314.938 595.172C314.938 594.861 315.181 594.617 315.492 594.617H322.145C322.455 594.617 322.699 594.861 322.699 595.172C322.699 595.482 322.455 595.726 322.145 595.726Z" fill="#333333" />
<path opacity="0.6" d="M368.139 595.726H356.641C356.33 595.726 356.086 595.482 356.086 595.172C356.086 594.861 356.33 594.617 356.641 594.617H368.139C368.449 594.617 368.693 594.861 368.693 595.172C368.693 595.482 368.449 595.726 368.139 595.726ZM345.142 595.726H333.644C333.334 595.726 333.09 595.482 333.09 595.172C333.09 594.861 333.334 594.617 333.644 594.617H345.142C345.453 594.617 345.697 594.861 345.697 595.172C345.697 595.482 345.453 595.726 345.142 595.726Z" fill="#333333" />
<path opacity="0.6" d="M386.293 602.379C385.983 602.379 385.739 602.135 385.739 601.824V595.726H379.64C379.33 595.726 379.086 595.482 379.086 595.172C379.086 594.861 379.33 594.617 379.64 594.617H386.293C386.604 594.617 386.847 594.861 386.847 595.172V601.824C386.847 602.135 386.604 602.379 386.293 602.379Z" fill="#333333" />
<path opacity="0.6" d="M386.289 660.756C385.978 660.756 385.734 660.512 385.734 660.202V645.61C385.734 645.3 385.978 645.056 386.289 645.056C386.599 645.056 386.843 645.3 386.843 645.61V660.202C386.843 660.512 386.599 660.756 386.289 660.756ZM386.289 631.562C385.978 631.562 385.734 631.318 385.734 631.007V616.416C385.734 616.105 385.978 615.861 386.289 615.861C386.599 615.861 386.843 616.105 386.843 616.416V631.007C386.843 631.318 386.599 631.562 386.289 631.562Z" fill="#333333" />
<path d="M389.827 478.14H326.07C321.082 478.14 317 474.059 317 469.07C317 464.082 321.082 460 326.07 460H389.827C394.816 460 398.897 464.082 398.897 469.07C398.897 474.059 394.816 478.14 389.827 478.14Z" fill="#0D0D0D" />
<path d="M389.39 477.808H325.633C320.644 477.808 316.562 473.727 316.562 468.738C316.562 463.75 320.644 459.668 325.633 459.668H389.39C394.378 459.668 398.46 463.75 398.46 468.738C398.46 473.727 394.378 477.808 389.39 477.808Z" fill="url(#paint8_linear_6905_3227)" />
<path d="M332.242 468.738C332.242 471.594 329.928 473.908 327.072 473.908C324.217 473.908 321.902 471.594 321.902 468.738C321.902 465.883 324.217 463.568 327.072 463.568C329.928 463.568 332.242 465.883 332.242 468.738Z" fill="white" stroke="#333333" stroke-width="0.5" />
<path d="M379.343 502.785H315.586C310.597 502.785 306.516 498.703 306.516 493.715C306.516 488.726 310.597 484.645 315.586 484.645H379.343C384.331 484.645 388.413 488.726 388.413 493.715C388.413 498.703 384.331 502.785 379.343 502.785Z" fill="#0D0D0D" />
<path d="M378.905 502.454H315.148C310.16 502.454 306.078 498.372 306.078 493.384C306.078 488.395 310.16 484.313 315.148 484.313H378.905C383.894 484.313 387.976 488.395 387.976 493.384C387.976 498.372 383.894 502.454 378.905 502.454Z" fill="url(#paint9_linear_6905_3227)" />
<path d="M321.758 493.384C321.758 496.239 319.443 498.554 316.588 498.554C313.733 498.554 311.418 496.239 311.418 493.384C311.418 490.529 313.733 488.214 316.588 488.214C319.443 488.214 321.758 490.529 321.758 493.384Z" fill="white" stroke="#333333" stroke-width="0.5" />
<path d="M170.409 237.097L161.812 205L193.909 213.597L187.149 220.357L198.812 232.021L188.833 242L177.17 230.336L170.409 237.097ZM165.592 208.78L171.813 231.956L177.191 226.578L188.855 238.242L195.076 232.021L194.32 231.265L183.412 220.357L188.79 214.979L169.286 209.752L165.614 208.758L165.592 208.78Z" fill="url(#paint10_linear_6905_3227)" />
<path d="M117.129 439.259C117.604 439.259 117.995 438.868 117.995 438.393V433.995H122.393C122.868 433.995 123.259 433.604 123.259 433.129C123.259 432.655 122.868 432.264 122.393 432.264H117.995V427.866C117.995 427.391 117.604 427 117.129 427C116.655 427 116.264 427.391 116.264 427.866V432.264H111.866C111.391 432.264 111 432.655 111 433.129C111 433.604 111.391 433.995 111.866 433.995H116.264V438.393C116.264 438.868 116.655 439.259 117.129 439.259Z" fill="url(#paint11_linear_6905_3227)" />
<path d="M365.866 133.995H370.264V138.393C370.264 138.868 370.655 139.259 371.129 139.259C371.604 139.259 371.995 138.868 371.995 138.393V133.995H376.393C376.868 133.995 377.259 133.604 377.259 133.129C377.259 132.655 376.868 132.264 376.393 132.264H371.995V127.866C371.995 127.391 371.604 127 371.129 127C370.655 127 370.264 127.391 370.264 127.866V132.264H365.866C365.391 132.264 365 132.655 365 133.129C365 133.604 365.391 133.995 365.866 133.995Z" fill="url(#paint12_linear_6905_3227)" />
<path d="M52.7975 376.608C53.2466 376.608 53.6163 376.239 53.6163 375.79V371.63H57.7763C58.2253 371.63 58.5951 371.26 58.5951 370.811C58.5951 370.362 58.2253 369.992 57.7763 369.992H53.6163V365.819C53.6163 365.37 53.2466 365 52.7975 365C52.3485 365 51.9787 365.37 51.9787 365.819V369.992H47.8188C47.3698 369.992 47 370.362 47 370.811C47 371.26 47.3698 371.63 47.8188 371.63H51.9787V375.79C51.9787 376.239 52.3485 376.608 52.7975 376.608Z" fill="#F7F5F4" />
<g style="mix-blend-mode:soft-light" opacity="0.5">
<path d="M382.653 50.8038H382.643V48.475C382.643 47.5296 382.247 46.675 381.612 46.0661C381.014 45.4892 380.202 45.1367 379.31 45.1367H322.815C320.967 45.1367 319.477 46.6323 319.477 48.475V51.1937V88.9673C319.477 90.8047 320.967 92.3003 322.815 92.3003H379.299C381.142 92.3003 382.637 90.8047 382.637 88.9673V51.1937H382.648V50.8092L382.653 50.8038Z" fill="black" />
</g>
<path d="M383.762 46.3383V86.8306C383.762 88.668 382.267 90.1636 380.424 90.1636H323.94C322.092 90.1636 320.602 88.668 320.602 86.8306V46.3383C320.602 44.4956 322.092 43 323.94 43H380.424C382.267 43 383.762 44.4956 383.762 46.3383Z" fill="#FDFDFF" />
<path d="M383.446 46.3383V48.3506H320.918V46.3383C320.918 44.67 322.267 43.3165 323.94 43.3165H380.429C382.097 43.3165 383.446 44.6697 383.446 46.3383Z" fill="#C01111" stroke="black" stroke-width="0.633067" />
<path d="M326.195 46.2955C326.195 46.8801 325.725 47.3507 325.14 47.3507C324.556 47.3507 324.085 46.8801 324.085 46.2955C324.085 45.7109 324.556 45.2403 325.14 45.2403C325.725 45.2403 326.195 45.7109 326.195 46.2955Z" fill="white" stroke="black" stroke-width="0.4748" />
<path d="M329.84 46.2955C329.84 46.8801 329.369 47.3507 328.785 47.3507C328.2 47.3507 327.73 46.8801 327.73 46.2955C327.73 45.7109 328.2 45.2403 328.785 45.2403C329.369 45.2403 329.84 45.7109 329.84 46.2955Z" fill="white" stroke="black" stroke-width="0.4748" />
<path d="M333.477 46.2955C333.477 46.8801 333.006 47.3507 332.421 47.3507C331.837 47.3507 331.366 46.8801 331.366 46.2955C331.366 45.7109 331.837 45.2403 332.421 45.2403C333.006 45.2403 333.477 45.7109 333.477 46.2955Z" fill="white" stroke="black" stroke-width="0.4748" />
<g style="mix-blend-mode:soft-light">
<path d="M383.773 48.668H320.602V49.0525H383.773V48.668Z" fill="#404040" />
</g>
<path d="M381.584 50.0459H322.969V87.5257H381.584V50.0459Z" fill="#E99EA8" />
<path d="M336.158 71.0132V69.7381L346.422 64.5103V66.5504L338.549 70.3437L338.612 70.2162V70.535L338.549 70.4075L346.422 74.2008V76.2409L336.158 71.0132ZM356.178 59.665L350.919 79.2055H349.197L354.457 59.665H356.178ZM369.214 71.0132L358.95 76.2409V74.2008L366.823 70.4075L366.76 70.535V70.2162L366.823 70.3437L358.95 66.5504V64.5103L369.214 69.7381V71.0132Z" fill="white" />
<g style="mix-blend-mode:soft-light" opacity="0.5">
<path d="M383.762 46.3383V86.8306C383.762 88.668 382.266 90.1636 380.424 90.1636H341.117C342.842 87.0389 345.62 84.5178 348.638 82.5576C352.211 80.2394 356.169 78.5943 359.977 76.6875C363.78 74.7753 367.525 72.5266 370.286 69.2898C373.395 65.6471 375.066 60.9574 375.803 56.2304C376.258 53.33 376.38 50.387 376.38 47.4546C376.38 45.9751 376.231 44.3246 376.487 43H380.424C382.266 43 383.762 44.4956 383.762 46.3383Z" fill="black" />
</g>
<g style="mix-blend-mode:soft-light" opacity="0.5">
<path d="M112.286 339.258C112.449 338.857 113.224 338.537 114.007 338.543L120.132 338.614C120.915 338.62 121.595 337.991 121.646 337.204L122.177 328.689C122.226 327.908 121.629 327.191 120.85 327.106L114.708 326.407C113.929 326.322 113.203 325.926 113.099 325.535C112.996 325.143 113.149 323.719 113.761 323.222L118.626 319.239C119.231 318.739 119.35 317.821 118.88 317.187L113.81 310.319C113.346 309.687 112.425 309.523 111.776 309.96L106.485 313.459C105.829 313.895 105.04 314.064 104.725 313.848C104.412 313.626 103.664 312.469 103.813 311.698L105.007 305.361C105.149 304.588 104.648 303.807 103.886 303.623L95.5937 301.62C94.8311 301.435 94.0217 301.9 93.8029 302.655L91.9717 308.838C91.7459 309.591 91.2615 310.229 90.8933 310.265C90.5251 310.301 89.2432 309.867 88.8589 309.179L85.6616 303.491C85.2773 302.804 84.3894 302.531 83.6881 302.882L76.0497 306.68C75.3484 307.031 75.0284 307.901 75.3386 308.621L77.8991 314.515C78.2094 315.236 78.2504 316.038 77.9809 316.303C77.7114 316.569 76.4404 317.061 75.7081 316.782L69.6352 314.493C68.9029 314.213 68.0443 314.578 67.7317 315.295L64.3186 323.107C64.006 323.824 64.3227 324.7 65.0226 325.053L70.6673 327.869C71.3673 328.222 71.9101 328.83 71.8682 329.216C71.8246 329.609 71.1667 330.844 70.4284 331.106L64.4303 333.216C63.692 333.478 63.2644 334.306 63.4866 335.057L65.8976 343.241C66.1198 343.992 66.9245 344.458 67.6877 344.275L73.6618 342.842C74.4249 342.659 75.2373 342.79 75.4701 343.132C75.7029 343.474 76.0379 344.913 75.6332 345.585L72.477 350.906C72.0793 351.58 72.2855 352.488 72.936 352.924L80.0438 357.642C80.6942 358.078 81.6149 357.912 82.0822 357.284L85.6471 352.458C86.1144 351.83 86.907 351.434 87.4064 351.584L88.1829 351.772C88.5191 351.838 88.9017 352.533 89.0307 353.305L90.0143 359.288C90.1432 360.06 90.8812 360.62 91.6642 360.537L100.135 359.582C100.913 359.491 101.516 358.786 101.465 357.996L101.102 352.053C101.056 351.271 101.344 350.475 101.741 350.292C102.137 350.109 103.65 349.983 104.245 350.493L108.828 354.425C109.424 354.936 110.352 354.889 110.893 354.322L116.774 348.141C117.314 347.575 117.312 346.642 116.775 346.072L112.629 341.696C112.092 341.126 112.12 339.643 112.283 339.242L112.286 339.258ZM89.3099 340.363C85.1958 338.804 82.6051 334.554 83.0945 330.188C83.8132 323.78 90.3034 319.816 96.3331 322.101C100.44 323.658 103.038 327.91 102.548 332.275C101.83 338.684 95.3326 342.647 89.3099 340.363Z" fill="black" />
</g>
<path d="M121.313 335.544L121.844 327.029C121.893 326.248 121.296 325.532 120.517 325.446L114.377 324.741C113.591 324.654 112.871 324.26 112.761 323.867C112.657 323.475 112.81 322.051 113.421 321.56L118.279 317.576C118.891 317.078 119.005 316.151 118.54 315.525L113.47 308.658C113.007 308.025 112.092 307.863 111.436 308.299L111.209 308.45L106.145 311.798C105.491 312.227 104.7 312.403 104.385 312.187C104.072 311.965 103.326 310.801 103.475 310.03L104.667 303.7C104.816 302.929 104.308 302.146 103.546 301.961L95.2539 299.958C94.4913 299.774 93.6819 300.239 93.463 300.993L91.6266 307.168C91.4078 307.923 90.9216 308.568 90.5482 308.595C90.18 308.631 88.8981 308.197 88.5121 307.517L85.3149 301.828C84.9305 301.141 84.0426 300.868 83.3414 301.219L75.7046 305.01C75.0033 305.362 74.6816 306.238 74.9988 306.96L77.554 312.846C77.8712 313.568 77.9036 314.376 77.6427 314.635C77.3732 314.9 76.1022 315.393 75.3699 315.114L69.2953 312.832C68.5561 312.551 67.6975 312.916 67.3849 313.632L63.9788 321.446C63.6662 322.163 63.9828 323.039 64.6828 323.392L70.3274 326.208C71.0274 326.561 71.5703 327.169 71.5267 327.562C71.4848 327.948 70.8252 329.19 70.0869 329.452L64.0905 331.555C63.3521 331.817 62.9245 332.645 63.1468 333.396L65.5578 341.58C65.78 342.331 66.5847 342.797 67.3478 342.614L73.3219 341.181C74.0851 340.998 74.8974 341.128 75.1286 341.478C75.3614 341.82 75.698 343.252 75.2934 343.924L72.1441 349.246C71.7395 349.919 71.9526 350.829 72.6047 351.258L78.6048 355.246L79.7108 355.983C80.363 356.412 81.282 356.252 81.7493 355.624L85.3142 350.799C85.7815 350.17 86.5741 349.775 87.0735 349.925L87.85 350.112C88.1861 350.179 88.5688 350.873 88.6978 351.645L89.6814 357.628C89.8103 358.4 90.5552 358.962 91.3313 358.878L99.802 357.923C100.58 357.832 101.185 357.12 101.132 356.336L100.776 350.395C100.724 349.612 101.017 348.824 101.415 348.634C101.811 348.451 103.324 348.325 103.919 348.836L108.502 352.768C109.098 353.278 110.026 353.231 110.567 352.665L116.448 346.483C116.988 345.917 116.993 344.986 116.449 344.414L112.302 340.045C111.764 339.475 111.792 337.992 111.955 337.591C112.118 337.19 112.892 336.871 113.676 336.877L119.799 336.954C120.582 336.96 121.264 336.325 121.313 335.544ZM82.7632 328.522C83.482 322.114 89.9721 318.149 96.0018 320.435C100.109 321.992 102.707 326.244 102.217 330.609C101.498 337.017 95.0014 340.98 88.9786 338.696C84.8646 337.138 82.2739 332.887 82.7632 328.522Z" fill="url(#paint13_angular_6905_3227)" />
<path opacity="0.5" d="M89.3329 337.762L89.3331 337.762C94.7456 339.814 100.577 336.257 101.223 330.498L89.3329 337.762ZM89.3329 337.762C85.6466 336.365 83.3184 332.546 83.757 328.634M89.3329 337.762L83.757 328.634M83.757 328.634C84.4029 322.875 90.2281 319.316 95.6473 321.37M83.757 328.634L95.6473 321.37M95.6473 321.37C99.3273 322.765 101.662 326.587 101.223 330.498L95.6473 321.37ZM96.3239 313.269C87.3845 311.11 78.3843 316.602 76.2232 325.549C74.0619 334.496 79.5654 343.483 88.5042 345.642C97.4433 347.802 106.444 342.31 108.603 333.37C110.763 324.43 105.264 315.429 96.3239 313.269Z" fill="#D9362C" stroke="black" stroke-width="2" />
<g style="mix-blend-mode:soft-light" opacity="0.5">
<path d="M119.8 336.954L113.677 336.877C112.894 336.871 112.12 337.19 111.957 337.591C111.794 337.992 111.766 339.475 112.303 340.045L116.45 344.414C116.994 344.986 116.99 345.917 116.449 346.483L110.568 352.665C110.028 353.231 109.099 353.278 108.504 352.768L103.921 348.836C103.325 348.325 101.813 348.451 101.416 348.634C101.018 348.824 100.725 349.612 100.778 350.395L101.133 356.336C101.186 357.119 100.581 357.832 99.8035 357.923L91.3328 358.878C90.5567 358.962 89.8118 358.4 89.6828 357.628L88.6993 351.645C88.5703 350.873 88.1876 350.179 87.8515 350.112L87.075 349.925C86.5756 349.775 85.783 350.17 85.3157 350.799L81.7508 355.624C81.2835 356.252 80.3645 356.412 79.7123 355.983L78.6062 355.246C80.1975 353.701 81.9631 352.315 83.7765 351.065C88.5335 347.775 93.7798 345.102 97.948 341.09C107.514 331.895 107.33 320.111 111.211 308.45L111.438 308.299C112.093 307.863 113.008 308.025 113.472 308.658L118.541 315.525C119.006 316.151 118.893 317.078 118.281 317.576L113.422 321.56C112.812 322.051 112.659 323.475 112.762 323.866C112.873 324.26 113.592 324.654 114.378 324.741L120.518 325.446C121.297 325.532 121.895 326.248 121.845 327.029L121.315 335.544C121.266 336.325 120.584 336.96 119.8 336.954Z" fill="black" />
</g>
<g style="mix-blend-mode:soft-light" opacity="0.5">
<path d="M161.84 362.372C161.972 362.037 162.726 361.771 163.51 361.777L168.155 361.835C168.939 361.841 169.619 361.213 169.67 360.425L170.086 353.783C170.135 353.002 169.537 352.285 168.758 352.2L164.095 351.668C163.316 351.582 162.608 351.235 162.517 350.912C162.428 350.583 162.643 349.329 163.246 348.836L166.941 345.81C167.546 345.311 167.665 344.393 167.195 343.758L163.242 338.401C162.779 337.768 161.857 337.604 161.209 338.042L157.183 340.702C156.528 341.138 155.782 341.339 155.518 341.158C155.253 340.977 154.655 339.9 154.797 339.127L155.707 334.299C155.85 333.526 155.349 332.745 154.586 332.561L148.117 330.998C147.355 330.814 146.546 331.279 146.327 332.033L144.932 336.744C144.706 337.497 144.273 338.134 143.966 338.162C143.658 338.19 142.535 337.736 142.149 337.056L139.712 332.717C139.327 332.03 138.439 331.757 137.738 332.109L131.783 335.073C131.082 335.424 130.762 336.293 131.072 337.014L133.025 341.507C133.335 342.227 133.414 342.995 133.185 343.211C132.957 343.427 131.801 343.809 131.069 343.529L126.434 341.786C125.702 341.506 124.843 341.871 124.531 342.588L121.87 348.681C121.558 349.398 121.874 350.275 122.574 350.627L126.87 352.773C127.569 353.125 128.119 353.676 128.083 354.005C128.048 354.334 127.401 355.403 126.662 355.665L122.1 357.27C121.361 357.532 120.934 358.361 121.156 359.111L123.034 365.494C123.256 366.245 124.061 366.71 124.824 366.528L129.356 365.443C130.119 365.261 130.898 365.346 131.093 365.635C131.287 365.924 131.512 367.211 131.114 367.886L128.723 371.923C128.325 372.598 128.531 373.506 129.182 373.942L134.728 377.622C135.378 378.058 136.299 377.892 136.766 377.264L139.467 373.616C139.934 372.988 140.659 372.569 141.075 372.699L141.727 372.856C142.006 372.916 142.349 373.593 142.469 374.371L143.216 378.902C143.345 379.675 144.083 380.234 144.866 380.152L151.474 379.407C152.251 379.316 152.856 378.604 152.803 377.821L152.531 373.33C152.485 372.549 152.715 371.775 153.053 371.622C153.384 371.467 154.728 371.432 155.324 371.943L158.793 374.924C159.389 375.435 160.318 375.387 160.858 374.821L165.442 369.999C165.983 369.433 165.98 368.501 165.443 367.93L162.303 364.619C161.765 364.048 161.715 362.738 161.854 362.404L161.84 362.372ZM142.651 363.291C139.215 361.991 137.05 358.438 137.461 354.795C138.063 349.445 143.479 346.13 148.513 348.043C151.942 349.341 154.113 352.896 153.703 356.539C153.1 361.889 147.677 365.202 142.651 363.291Z" fill="#871D1D" />
</g>
<path d="M169.374 359.269L169.815 352.155C169.855 351.504 169.354 350.906 168.705 350.83L163.578 350.245C162.92 350.174 162.317 349.845 162.228 349.515C162.138 349.185 162.271 347.999 162.781 347.587L166.836 344.259C167.346 343.847 167.439 343.07 167.05 342.55L162.815 336.816C162.428 336.29 161.663 336.149 161.119 336.517L160.928 336.639L156.701 339.434C156.152 339.793 155.493 339.942 155.228 339.761C154.966 339.572 154.342 338.6 154.467 337.962L155.464 332.678C155.591 332.034 155.162 331.38 154.531 331.227L147.605 329.554C146.967 329.4 146.294 329.788 146.112 330.419L144.58 335.574C144.399 336.205 143.989 336.745 143.683 336.766C143.376 336.795 142.304 336.433 141.986 335.865L139.317 331.119C138.994 330.542 138.255 330.319 137.671 330.611L131.294 333.774C130.71 334.066 130.437 334.8 130.703 335.4L132.839 340.318C133.105 340.918 133.131 341.599 132.912 341.81C132.688 342.035 131.628 342.447 131.017 342.211L125.945 340.304C125.328 340.066 124.609 340.37 124.352 340.976L121.507 347.501C121.245 348.098 121.509 348.83 122.097 349.126L126.813 351.476C127.395 351.77 127.852 352.277 127.817 352.606C127.783 352.928 127.231 353.968 126.613 354.186L121.603 355.94C120.986 356.158 120.628 356.849 120.815 357.474L122.826 364.307C123.012 364.932 123.681 365.321 124.32 365.167L129.305 363.972C129.944 363.818 130.621 363.93 130.815 364.219C131.01 364.508 131.294 365.699 130.953 366.263L128.324 370.705C127.983 371.269 128.167 372.025 128.711 372.384L133.718 375.714L134.642 376.326C135.186 376.685 135.953 376.547 136.343 376.025L139.319 371.996C139.71 371.474 140.37 371.142 140.787 371.265L141.439 371.422C141.72 371.476 142.041 372.06 142.15 372.702L142.968 377.699C143.077 378.341 143.697 378.814 144.345 378.743L151.421 377.943C152.071 377.865 152.573 377.274 152.533 376.619L152.234 371.66C152.187 371.003 152.433 370.351 152.765 370.189C153.096 370.034 154.362 369.929 154.86 370.357L158.69 373.638C159.188 374.066 159.961 374.025 160.413 373.555L165.321 368.393C165.772 367.923 165.776 367.146 165.319 366.669L161.856 363.022C161.406 362.546 161.434 361.306 161.566 360.971C161.706 360.638 162.35 360.368 163.003 360.371L168.115 360.439C168.767 360.443 169.336 359.912 169.382 359.263L169.374 359.269ZM137.183 353.408C137.786 348.058 143.202 344.744 148.236 346.656C151.664 347.954 153.836 351.509 153.426 355.152C152.823 360.502 147.4 363.815 142.373 361.904C138.938 360.605 136.773 357.051 137.183 353.408Z" fill="url(#paint14_linear_6905_3227)" />
<path d="M142.198 362.371C138.548 360.991 136.252 357.222 136.688 353.352C137.327 347.678 143.075 344.16 148.415 346.189M142.198 362.371C147.531 364.399 153.285 360.882 153.924 355.208C154.36 351.338 152.057 347.568 148.415 346.189M142.198 362.371C142.198 362.371 142.198 362.371 142.197 362.371L142.375 361.904L142.198 362.371C142.198 362.371 142.198 362.371 142.198 362.371ZM148.415 346.189L148.237 346.656L148.414 346.189C148.415 346.189 148.415 346.189 148.415 346.189ZM133.022 351.236C134.653 344.481 141.448 340.336 148.196 341.966C154.944 343.596 159.096 350.392 157.466 357.14C155.836 363.888 149.042 368.033 142.293 366.403C135.545 364.773 131.39 357.99 133.022 351.236Z" fill="#D05760" stroke="#64373B" />
<g style="mix-blend-mode:soft-light" opacity="0.5">
<path d="M168.108 360.445L162.995 360.377C162.343 360.373 161.693 360.634 161.559 360.976C161.42 361.31 161.399 362.552 161.849 363.027L165.312 366.674C165.769 367.151 165.764 367.928 165.313 368.399L160.405 373.56C159.954 374.031 159.181 374.072 158.683 373.643L154.853 370.363C154.354 369.934 153.096 370.041 152.758 370.194C152.425 370.356 152.18 371.008 152.227 371.665L152.526 376.624C152.572 377.281 152.063 377.87 151.413 377.948L144.337 378.748C143.689 378.819 143.07 378.347 142.961 377.704L142.142 372.708C142.034 372.065 141.712 371.481 141.432 371.428L140.78 371.271C140.362 371.148 139.704 371.473 139.312 372.002L136.336 376.03C135.945 376.553 135.178 376.69 134.634 376.331L133.711 375.719C135.043 374.427 136.511 373.27 138.025 372.227C141.997 369.481 146.375 367.244 149.862 363.896C157.85 356.221 157.696 346.381 160.936 336.641L161.127 336.519C161.678 336.153 162.436 336.292 162.823 336.818L167.059 342.552C167.447 343.071 167.354 343.849 166.844 344.261L162.789 347.589C162.279 348.001 162.154 349.189 162.236 349.517C162.325 349.847 162.928 350.176 163.586 350.247L168.713 350.832C169.364 350.901 169.865 351.499 169.823 352.157L169.382 359.271C169.342 359.921 168.774 360.452 168.115 360.447L168.108 360.445Z" fill="black" />
</g>
<path d="M323 173.182C323 165.695 316.936 159.631 309.448 159.631C308.855 159.631 308.262 159.678 307.68 159.761C307.763 158.942 307.811 158.124 307.811 157.281C307.811 144.026 297.072 133.287 283.817 133.287C273.149 133.287 264.118 140.253 260.998 149.876C260.238 149.746 259.467 149.663 258.672 149.663C252.086 149.663 246.603 154.362 245.381 160.592C243.874 160.022 242.26 159.69 240.552 159.69C233.064 159.69 227 165.754 227 173.242C227 180.053 232.031 185.678 238.582 186.627C239.211 186.769 239.863 186.853 240.54 186.853H308.736C309.354 186.853 309.959 186.793 310.54 186.675C317.506 186.117 322.988 180.29 322.988 173.182H323Z" fill="url(#paint15_linear_6905_3227)" />
<g clip-path="url(#clip0_6905_3227)">
<path d="M369.23 200.837C369.23 202.408 369.253 203.979 369.224 205.55C369.207 206.464 369.613 206.721 370.464 206.561C371.807 206.309 372.938 205.618 374.063 204.898C378.107 202.311 383.226 204.487 384.123 209.211C384.625 211.851 383.649 213.993 381.564 215.598C379.536 217.158 377.302 217.283 374.971 216.295C373.703 215.758 372.732 214.684 371.344 214.341C369.59 213.907 369.23 214.159 369.224 215.969C369.224 217.729 369.184 219.494 369.236 221.254C369.264 222.27 368.927 222.756 367.859 222.733C366.145 222.699 364.432 222.733 362.718 222.71C361.861 222.699 361.512 222.487 362.009 221.505C365.049 215.444 361.901 208.972 355.234 207.846C350.31 207.018 345.34 210.725 344.906 215.775C344.723 217.855 344.9 219.871 346.106 221.671C346.597 222.407 346.306 222.647 345.523 222.733C342.387 223.07 341.958 222.665 342.221 219.523C343.346 206.241 354.766 195.484 368.07 195.13C369.013 195.107 369.236 195.45 369.224 196.267C369.202 197.792 369.219 199.312 369.219 200.837H369.23Z" fill="url(#paint16_angular_6905_3227)" />
<path d="M376.286 225.658C375.332 225.658 374.378 225.612 373.429 225.669C372.338 225.738 371.864 225.332 371.904 224.201C371.961 222.585 371.904 220.968 371.921 219.351C371.938 217.866 372.018 217.826 373.327 218.483C378.622 221.145 384.814 218.631 386.431 213.005C387.431 209.526 386.757 206.281 383.986 203.745C380.993 201.002 377.56 200.431 373.824 202.042C371.898 202.876 371.921 202.928 371.921 200.86C371.921 199.432 371.944 198.003 371.921 196.581C371.904 195.581 372.264 195.25 373.304 195.421C380.439 196.615 386.203 200.1 390.567 205.83C394.606 211.131 396.422 217.146 396.08 223.83C396.005 225.229 395.583 225.789 394.137 225.686C392.578 225.578 391.001 225.646 389.43 225.669C388.082 225.686 387.865 225.995 388.191 227.326C388.442 228.36 388.99 229.234 389.562 230.125C392.029 233.97 390.773 238.374 386.751 240.128C384.523 241.099 381.627 240.562 379.85 238.848C377.857 236.923 377.154 234.181 378.142 231.816C378.485 230.988 378.965 230.205 379.456 229.457C379.936 228.726 380.244 227.943 380.416 227.097C380.604 226.178 380.393 225.612 379.29 225.664C378.296 225.709 377.291 225.675 376.291 225.675L376.286 225.658Z" fill="url(#paint17_angular_6905_3227)" />
<path d="M387.652 242.995C387.303 243.869 386.949 244.778 386.583 245.68C385.784 247.628 385.287 249.656 385.012 251.73C384.875 252.758 384.384 253.067 383.407 253.061C379.128 253.032 374.844 253.021 370.565 253.061C369.383 253.072 368.966 252.638 369.011 251.473C369.08 249.571 368.989 247.668 369.046 245.766C369.08 244.635 368.589 244.332 367.566 244.515C366.355 244.732 365.367 245.372 364.367 246.023C360.386 248.617 355.341 246.663 354.21 242.099C353.599 239.625 354.639 236.826 356.747 235.295C358.883 233.741 361.694 233.627 364.002 235.032C365.018 235.649 365.995 236.323 367.149 236.677C368.726 237.157 369.023 236.963 369.029 235.346C369.04 233.444 369.069 231.542 369.023 229.639C369 228.651 369.383 228.286 370.36 228.308C372.073 228.354 373.787 228.348 375.495 228.308C376.615 228.28 376.809 228.548 376.255 229.599C373.907 234.021 375.278 239.277 379.437 241.864C381.688 243.264 384.138 243.555 386.715 242.915C386.978 242.853 387.263 242.71 387.663 242.99L387.652 242.995Z" fill="url(#paint18_angular_6905_3227)" />
<path d="M359.81 253.05C358.142 253.05 356.48 253.044 354.812 253.05C354.012 253.05 353.452 252.85 353.327 251.907C352.653 246.835 350.55 242.356 347.586 238.243C345.129 234.838 343.398 231.142 342.621 226.983C342.381 225.698 342.69 225.212 343.992 225.252C345.655 225.298 347.323 225.235 348.991 225.264C350.059 225.281 350.339 224.761 350.116 223.819C349.819 222.539 349.071 221.488 348.402 220.391C346.654 217.54 347.329 213.73 349.882 211.782C352.675 209.651 356.451 209.943 358.822 212.473C360.913 214.696 361.193 217.843 359.496 220.505C358.856 221.511 358.188 222.493 357.874 223.664C357.594 224.71 357.862 225.304 359.096 225.275C360.999 225.23 362.907 225.31 364.809 225.252C365.997 225.218 366.408 225.698 366.363 226.858C366.294 228.52 366.311 230.188 366.363 231.856C366.391 232.964 366.134 233.199 365.089 232.622C362.175 231.005 359.199 230.982 356.223 232.525C352.715 234.347 350.762 238.62 351.647 242.567C352.595 246.772 355.96 249.628 360.079 249.794C361.896 249.868 363.581 249.537 365.146 248.628C366.014 248.131 366.357 248.354 366.346 249.331C366.3 253.69 366.831 252.976 362.941 253.044C361.896 253.061 360.844 253.044 359.799 253.044L359.81 253.05Z" fill="url(#paint19_angular_6905_3227)" />
<path d="M369.162 274.928C372.39 274.928 375.617 274.917 378.845 274.934C380.216 274.94 380.399 275.254 379.708 276.425C377.771 279.698 374.726 281.338 371.105 281.846C367.346 282.372 363.838 281.572 360.81 279.122C359.839 278.333 359.085 277.368 358.497 276.271C357.994 275.328 358.183 274.9 359.331 274.911C362.604 274.946 365.883 274.923 369.157 274.923L369.162 274.928Z" fill="#333333" />
<path d="M369.201 260.034C373.759 260.034 378.324 260.045 382.882 260.022C383.933 260.022 384.693 260.062 384.682 261.496C384.67 262.822 384.11 263.073 382.957 263.073C373.742 263.044 364.522 263.062 355.308 263.056C353.748 263.056 353.165 262.153 353.668 260.651C353.925 259.88 354.559 260.051 355.091 260.051C359.792 260.034 364.499 260.04 369.201 260.04V260.034Z" fill="url(#paint20_linear_6905_3227)" />
<path d="M369.121 267.942C364.511 267.942 359.9 267.914 355.29 267.959C354.136 267.971 353.548 267.731 353.571 266.394C353.588 265.143 354.136 264.897 355.228 264.897C364.493 264.92 373.759 264.92 383.031 264.897C384.133 264.897 384.653 265.155 384.676 266.4C384.699 267.748 384.099 267.965 382.951 267.954C378.341 267.914 373.731 267.937 369.121 267.937V267.942Z" fill="url(#paint21_linear_6905_3227)" />
<path d="M369.277 255.546C373.841 255.546 378.405 255.546 382.97 255.546C383.878 255.546 384.666 255.546 384.66 256.854C384.66 258.174 383.838 258.145 382.952 258.145C373.732 258.145 364.507 258.145 355.286 258.145C354.384 258.145 353.59 258.145 353.59 256.837C353.59 255.523 354.407 255.546 355.304 255.546C359.965 255.546 364.621 255.546 369.282 255.546H369.277Z" fill="url(#paint22_linear_6905_3227)" />
<path d="M369.1 269.822C373.716 269.822 378.332 269.816 382.942 269.833C383.473 269.833 384.267 269.582 384.421 270.296C384.587 271.05 384.01 271.627 383.342 271.981C382.605 272.369 381.788 272.409 380.977 272.409C373.082 272.409 365.181 272.409 357.287 272.409C356.424 272.409 355.573 272.335 354.802 271.884C354.179 271.518 353.716 270.947 353.888 270.256C354.042 269.616 354.762 269.833 355.253 269.833C359.869 269.816 364.484 269.822 369.094 269.822H369.1Z" fill="url(#paint23_linear_6905_3227)" />
<path d="M393.546 233.038C393.124 231.445 392.792 230.171 392.084 229.051C392.015 228.943 391.941 228.714 391.987 228.668C392.695 227.971 393.569 228.434 394.369 228.36C394.963 228.303 395.249 228.651 395.094 229.245C394.78 230.456 394.437 231.662 393.546 233.038Z" fill="url(#paint24_linear_6905_3227)" />
</g>
<path d="M285.25 247H275.167L265 359H275.082C279.756 359 283.875 355.348 284.283 350.846L292.967 255.157C293.375 250.652 289.92 247.004 285.246 247.004L285.25 247Z" fill="#6D1818" fill-opacity="0.6" />
<path d="M273.954 359H233.919C229.414 359 226.084 355.347 226.477 350.846L234.847 255.158C235.24 250.652 239.211 247.004 243.716 247.004H283.751C288.256 247.004 291.586 250.656 291.193 255.158L282.823 350.846C282.43 355.351 278.46 359 273.954 359Z" fill="#C01111" />
<path d="M272.462 250.211L272.461 250.213L272.391 250.536C272.39 250.537 272.39 250.537 272.39 250.538L272.39 250.538L271.657 250.378L272.462 250.211ZM272.462 250.211C272.534 249.873 272.855 249.62 273.177 249.62H283.583C286.608 249.62 288.833 252.054 288.568 255.088L280.198 350.776L280.198 350.776C279.928 353.859 277.19 356.374 274.112 356.374H234.077C231.052 356.374 228.827 353.94 229.092 350.907C229.092 350.907 229.092 350.906 229.092 350.906L237.462 255.218L237.462 255.218M272.462 250.211L237.462 255.218M237.462 255.218C237.732 252.135 240.47 249.62 243.548 249.62H253.954C254.238 249.62 254.432 249.812 254.443 250.08M237.462 255.218L254.443 250.08M254.443 250.08C254.443 250.081 254.443 250.081 254.443 250.082L254.443 250.08Z" fill="#E99EA8" stroke="#360000" stroke-width="1.5" />
<g opacity="0.2">
<path d="M261.054 249.929C261.017 250.367 260.628 250.722 260.19 250.722C259.752 250.722 259.426 250.367 259.464 249.929C259.501 249.491 259.89 249.136 260.328 249.136C260.766 249.136 261.092 249.491 261.054 249.929Z" fill="black" />
<path d="M266.755 249.136H264.027C263.59 249.136 263.201 249.491 263.163 249.929C263.126 250.367 263.451 250.722 263.889 250.722H266.617C267.055 250.722 267.444 250.367 267.481 249.929C267.519 249.491 267.193 249.136 266.755 249.136Z" fill="black" />
</g>
<path d="M241.234 253.255H242.076L242.151 252.413H241.309L241.234 253.255Z" fill="#333333" fill-opacity="0.44" />
<path d="M242.989 252.412L242.914 253.254H243.756L243.831 252.412L243.902 251.57H243.06L242.989 252.412Z" fill="#333333" fill-opacity="0.44" />
<path d="M244.818 250.729L244.744 251.571L244.672 252.413L244.598 253.255H245.44L245.514 252.413L245.586 251.571L245.66 250.729H244.818Z" fill="#333333" fill-opacity="0.44" />
<path d="M281.026 250.784L280.973 251.402H280.562L280.453 252.636H280.865L280.812 253.254H284.517L284.734 250.784H281.029H281.026ZM282.511 252.636H281.276L281.385 251.402H282.62L282.511 252.636Z" fill="#263238" fill-opacity="0.4" />
<path opacity="0.8" d="M279.352 317.52H225.199L229.757 265.447H283.906L279.352 317.52Z" fill="#6D1818" />
<path d="M245.154 260.916H241.012V261.29H245.154V260.916Z" fill="#333333" fill-opacity="0.44" />
<path d="M245.271 259.518H241.129V259.892H245.271V259.518Z" fill="#333333" fill-opacity="0.44" />
<path d="M245.396 258.119H241.254V258.493H245.396V258.119Z" fill="#333333" fill-opacity="0.44" />
<path d="M274.901 261.717H248.102L248.416 258.129H275.216L274.901 261.717Z" fill="url(#paint25_linear_6905_3227)" />
<g opacity="0.2">
<path opacity="0.3" d="M258.263 253.271L230.625 356.035C231.575 356.727 232.758 357.131 234.075 357.131H236.234L264.168 253.271H258.263Z" fill="#E99EA8" />
<path opacity="0.3" d="M283.264 249H272.858C272.177 249 271.556 249.505 271.41 250.182L271.339 250.508C270.994 252.117 269.546 253.329 267.933 253.389L240 357.257H261.306L288.997 254.291C288.783 251.294 286.392 249 283.26 249H283.264Z" fill="#E99EA8" />
</g>
<path d="M277.923 315.949H223.773L228.327 263.876H282.48L277.923 315.949Z" fill="#ED7F5C" />
<g opacity="0.8">
<path d="M277.927 315.949H223.777L228.331 263.876H282.484L277.927 315.949Z" fill="url(#paint26_angular_6905_3227)" />
<path d="M278.094 316.137H223.566L223.585 315.935L228.154 263.69H282.681L278.094 316.137ZM223.974 315.763H277.749L282.273 264.065H228.498L223.974 315.763Z" fill="url(#paint27_angular_6905_3227)" />
</g>
<path opacity="0.8" d="M274.911 301.61H229.297L232.212 268.284H277.826L274.911 301.61Z" fill="white" />
<path d="M232.328 268.131L232.098 268.426L274.797 301.75L275.027 301.455L232.328 268.131Z" fill="#B98E8A" />
<path d="M277.717 268.117L229.199 301.462L229.411 301.77L277.929 268.425L277.717 268.117Z" fill="#B98E8A" />
<path d="M246.977 306.491C246.895 307.441 246.057 308.212 245.106 308.212C244.156 308.212 243.452 307.441 243.538 306.491C243.624 305.54 244.459 304.77 245.409 304.77C246.36 304.77 247.063 305.54 246.977 306.491Z" fill="#EDA2A8" />
<path d="M253.395 306.491C253.313 307.441 252.475 308.212 251.524 308.212C250.574 308.212 249.87 307.441 249.956 306.491C250.042 305.54 250.877 304.77 251.827 304.77C252.778 304.77 253.481 305.54 253.395 306.491Z" fill="#EDA2A8" />
<path d="M259.809 306.491C259.727 307.441 258.889 308.212 257.938 308.212C256.988 308.212 256.284 307.441 256.37 306.491C256.456 305.54 257.291 304.77 258.241 304.77C259.192 304.77 259.895 305.54 259.809 306.491Z" fill="#EDA2A8" />
<path d="M275.082 301.797H229.094L232.042 268.098H278.031L275.082 301.797ZM229.498 301.423H274.738L277.619 268.472H232.379L229.498 301.423Z" fill="#333333" />
<path d="M246.558 345.282H221.203L223.336 320.899H248.691L246.558 345.282Z" fill="url(#paint28_linear_6905_3227)" />
<g opacity="0.8">
<path d="M247.355 346.382H222L224.133 322H249.488L247.355 346.382Z" fill="#6D1818" />
<path d="M246.554 345.28H221.199L223.332 320.897H248.687L246.554 345.28Z" fill="white" />
<path d="M246.729 345.467H221L223.167 320.711H248.896L246.729 345.467ZM221.408 345.093H246.389L248.488 321.085H223.507L221.408 345.093Z" fill="url(#paint29_linear_6905_3227)" />
</g>
<path d="M245.144 338.569H223.785L225.151 322.965H246.51L245.144 338.569Z" fill="white" />
<path d="M245.319 338.757H223.586L224.985 322.779H246.718L245.319 338.757ZM223.994 338.383H244.975L246.307 323.153H225.326L223.994 338.383Z" fill="url(#paint30_linear_6905_3227)" />
<path d="M225.277 322.814L225.047 323.109L245.041 338.714L245.271 338.419L225.277 322.814Z" fill="url(#paint31_linear_6905_3227)" />
<path d="M246.41 322.798L223.691 338.412L223.903 338.72L246.622 323.107L246.41 322.798Z" fill="url(#paint32_linear_6905_3227)" />
<path d="M232.073 340.851C232.036 341.297 231.643 341.656 231.198 341.656C230.753 341.656 230.423 341.297 230.464 340.851C230.506 340.406 230.895 340.047 231.34 340.047C231.785 340.047 232.115 340.406 232.073 340.851Z" fill="url(#paint33_linear_6905_3227)" />
<path d="M235.077 340.851C235.04 341.297 234.647 341.656 234.202 341.656C233.756 341.656 233.427 341.297 233.468 340.851C233.509 340.406 233.899 340.047 234.344 340.047C234.789 340.047 235.119 340.406 235.077 340.851Z" fill="url(#paint34_linear_6905_3227)" />
<path d="M238.085 340.851C238.048 341.297 237.655 341.656 237.21 341.656C236.764 341.656 236.435 341.297 236.476 340.851C236.514 340.406 236.906 340.047 237.352 340.047C237.797 340.047 238.126 340.406 238.085 340.851Z" fill="url(#paint35_linear_6905_3227)" />
<path d="M275.355 345.279H250L252.133 320.896H277.488L275.355 345.279Z" fill="url(#paint36_linear_6905_3227)" />
<g opacity="0.8">
<path d="M276.355 346.382H251L253.133 322H278.488L276.355 346.382Z" fill="#6D1818" />
<path d="M275.351 345.279H249.996L252.129 320.896H277.484L275.351 345.279Z" fill="white" />
<path d="M275.526 345.467H249.797L251.963 320.711H277.693L275.526 345.467ZM250.205 345.093H275.186L277.285 321.085H252.304L250.205 345.093Z" fill="url(#paint37_linear_6905_3227)" />
</g>
<path d="M273.949 338.569H252.59L253.956 322.965H275.315L273.949 338.569Z" fill="white" />
<path d="M274.124 338.757H252.391L253.79 322.779H275.523L274.124 338.757ZM252.798 338.383H273.779L275.112 323.153H254.131L252.798 338.383Z" fill="url(#paint38_linear_6905_3227)" />
<path d="M254.086 322.81L253.855 323.104L273.85 338.709L274.08 338.414L254.086 322.81Z" fill="url(#paint39_linear_6905_3227)" />
<path d="M275.195 322.798L252.477 338.412L252.689 338.72L275.407 323.107L275.195 322.798Z" fill="url(#paint40_linear_6905_3227)" />
<path d="M260.866 340.851C260.829 341.297 260.436 341.656 259.991 341.656C259.546 341.656 259.216 341.297 259.257 340.851C259.299 340.406 259.688 340.047 260.133 340.047C260.578 340.047 260.908 340.406 260.866 340.851Z" fill="url(#paint41_linear_6905_3227)" />
<path d="M263.87 340.851C263.833 341.297 263.44 341.656 262.995 341.656C262.549 341.656 262.22 341.297 262.261 340.851C262.302 340.406 262.692 340.047 263.137 340.047C263.582 340.047 263.911 340.406 263.87 340.851Z" fill="url(#paint42_linear_6905_3227)" />
<path d="M266.878 340.851C266.841 341.297 266.448 341.656 266.003 341.656C265.557 341.656 265.228 341.297 265.269 340.851C265.31 340.406 265.699 340.047 266.145 340.047C266.59 340.047 266.919 340.406 266.878 340.851Z" fill="url(#paint43_linear_6905_3227)" />
<g opacity="0.5">
<path d="M66.9388 497.61H47.7188L57.3288 478.38L66.9388 497.61Z" stroke="#333333" stroke-width="1.5" stroke-miterlimit="10" />
<path d="M58.2872 478.16C58.2872 478.686 57.853 479.12 57.3272 479.12C56.8014 479.12 56.3672 478.686 56.3672 478.16C56.3672 477.634 56.8014 477.2 57.3272 477.2C57.853 477.2 58.2872 477.634 58.2872 478.16Z" fill="white" stroke="#333333" stroke-width="1.5" />
<path d="M67.8966 497.61C67.8966 498.136 67.4624 498.57 66.9366 498.57C66.4108 498.57 65.9766 498.136 65.9766 497.61C65.9766 497.085 66.4108 496.65 66.9366 496.65C67.4624 496.65 67.8966 497.085 67.8966 497.61Z" fill="white" stroke="#333333" stroke-width="1.5" />
<path d="M48.67 497.61C48.67 498.136 48.2358 498.57 47.71 498.57C47.1842 498.57 46.75 498.136 46.75 497.61C46.75 497.085 47.1842 496.65 47.71 496.65C48.2358 496.65 48.67 497.085 48.67 497.61Z" fill="white" stroke="#333333" stroke-width="1.5" />
<path d="M66.9388 458.71H47.7188L57.3288 477.94L66.9388 458.71Z" stroke="#333333" stroke-width="1.5" stroke-miterlimit="10" />
<path d="M57.3272 477.2C57.853 477.2 58.2872 477.634 58.2872 478.16C58.2872 478.686 57.853 479.12 57.3272 479.12C56.8014 479.12 56.3672 478.686 56.3672 478.16C56.3672 477.634 56.8014 477.2 57.3272 477.2Z" fill="white" stroke="#333333" stroke-width="1.5" />
<path d="M66.9366 457.75C67.4623 457.75 67.8966 458.184 67.8966 458.71C67.8966 459.236 67.4624 459.67 66.9366 459.67C66.4108 459.67 65.9766 459.236 65.9766 458.71C65.9766 458.184 66.4108 457.75 66.9366 457.75Z" fill="white" stroke="#333333" stroke-width="1.5" />
<path d="M47.71 457.75C48.2358 457.75 48.67 458.184 48.67 458.71C48.67 459.236 48.2358 459.67 47.71 459.67C47.1842 459.67 46.75 459.236 46.75 458.71C46.75 458.184 47.1842 457.75 47.71 457.75Z" fill="white" stroke="#333333" stroke-width="1.5" />
</g>
<defs>
<filter id="filter0_d_6905_3227" x="212.07" y="475.155" width="151.266" height="106.164" filterUnits="userSpaceOnUse" color-interpolation-filters="sRGB">
<feFlood flood-opacity="0" result="BackgroundImageFix" />
<feColorMatrix in="SourceAlpha" type="matrix" values="0 0 0 0 0 0 0 0 0 0 0 0 0 0 0 0 0 0 127 0" result="hardAlpha" />
<feOffset dx="0.5" dy="0.5" />
<feComposite in2="hardAlpha" operator="out" />
<feColorMatrix type="matrix" values="0 0 0 0 0.0239421 0 0 0 0 0.0239421 0 0 0 0 0.0239421 0 0 0 1 0" />
<feBlend mode="normal" in2="BackgroundImageFix" result="effect1_dropShadow_6905_3227" />
<feBlend mode="normal" in="SourceGraphic" in2="effect1_dropShadow_6905_3227" result="shape" />
</filter>
<filter id="filter1_d_6905_3227" x="175.023" y="549.266" width="81.7969" height="61.1943" filterUnits="userSpaceOnUse" color-interpolation-filters="sRGB">
<feFlood flood-opacity="0" result="BackgroundImageFix" />
<feColorMatrix in="SourceAlpha" type="matrix" values="0 0 0 0 0 0 0 0 0 0 0 0 0 0 0 0 0 0 127 0" result="hardAlpha" />
<feOffset dx="0.5" dy="0.5" />
<feComposite in2="hardAlpha" operator="out" />
<feColorMatrix type="matrix" values="0 0 0 0 0.2 0 0 0 0 0.2 0 0 0 0 0.2 0 0 0 1 0" />
<feBlend mode="normal" in2="BackgroundImageFix" result="effect1_dropShadow_6905_3227" />
<feBlend mode="normal" in="SourceGraphic" in2="effect1_dropShadow_6905_3227" result="shape" />
</filter>
<linearGradient id="paint0_linear_6905_3227" x1="352.001" y1="341.935" x2="352.001" y2="380.092" gradientUnits="userSpaceOnUse">
<stop stop-color="#EF7160" />
<stop offset="1" stop-color="#941209" />
</linearGradient>
<linearGradient id="paint1_linear_6905_3227" x1="366.296" y1="341.908" x2="366.296" y2="389.175" gradientUnits="userSpaceOnUse">
<stop stop-color="#EF7160" />
<stop offset="1" stop-color="#941209" />
</linearGradient>
<linearGradient id="paint2_linear_6905_3227" x1="192.242" y1="438.311" x2="228.369" y2="439.273" gradientUnits="userSpaceOnUse">
<stop stop-color="#F7F5F4" />
<stop offset="1" stop-color="#F7722F" />
</linearGradient>
<linearGradient id="paint3_linear_6905_3227" x1="287.451" y1="572.046" x2="287.451" y2="605.878" gradientUnits="userSpaceOnUse">
<stop stop-color="#EF7160" />
<stop offset="1" stop-color="#941209" />
</linearGradient>
<linearGradient id="paint4_linear_6905_3227" x1="287.454" y1="475.155" x2="287.454" y2="580.82" gradientUnits="userSpaceOnUse">
<stop stop-color="#EF7160" />
<stop offset="1" stop-color="#941209" />
</linearGradient>
<linearGradient id="paint5_linear_6905_3227" x1="287.454" y1="475.155" x2="287.454" y2="562.027" gradientUnits="userSpaceOnUse">
<stop stop-color="#EF7160" />
<stop offset="1" stop-color="#941209" />
</linearGradient>
<linearGradient id="paint6_linear_6905_3227" x1="287.454" y1="603.784" x2="287.454" y2="607.124" gradientUnits="userSpaceOnUse">
<stop stop-color="#EF7160" />
<stop offset="1" stop-color="#941209" />
</linearGradient>
<linearGradient id="paint7_linear_6905_3227" x1="215.67" y1="549.266" x2="215.67" y2="609.959" gradientUnits="userSpaceOnUse">
<stop stop-color="#EF7160" />
<stop offset="1" stop-color="#941209" />
</linearGradient>
<linearGradient id="paint8_linear_6905_3227" x1="357.511" y1="459.668" x2="357.511" y2="477.808" gradientUnits="userSpaceOnUse">
<stop stop-color="#EF7160" />
<stop offset="1" stop-color="#941209" />
</linearGradient>
<linearGradient id="paint9_linear_6905_3227" x1="347.027" y1="484.313" x2="347.027" y2="502.454" gradientUnits="userSpaceOnUse">
<stop stop-color="#EF7160" />
<stop offset="1" stop-color="#941209" />
</linearGradient>
<linearGradient id="paint10_linear_6905_3227" x1="162.303" y1="217.566" x2="177.187" y2="217.921" gradientUnits="userSpaceOnUse">
<stop stop-color="#F7F5F4" />
<stop offset="1" stop-color="#F7722F" />
</linearGradient>
<linearGradient id="paint11_linear_6905_3227" x1="111.163" y1="431.163" x2="116.094" y2="431.281" gradientUnits="userSpaceOnUse">
<stop stop-color="#F7F5F4" />
<stop offset="1" stop-color="#F7722F" />
</linearGradient>
<linearGradient id="paint12_linear_6905_3227" x1="365.163" y1="131.163" x2="370.094" y2="131.281" gradientUnits="userSpaceOnUse">
<stop stop-color="#F7F5F4" />
<stop offset="1" stop-color="#F7722F" />
</linearGradient>
<radialGradient id="paint13_angular_6905_3227" cx="0" cy="0" r="1" gradientUnits="userSpaceOnUse" gradientTransform="translate(90.2996 338.778) rotate(103.2) scale(31.6455 47.0257)">
<stop stop-color="#EE4136" />
<stop offset="1" stop-color="#941209" />
</radialGradient>
<linearGradient id="paint14_linear_6905_3227" x1="130.867" y1="337.368" x2="264.428" y2="451.081" gradientUnits="userSpaceOnUse">
<stop stop-color="#CB4A54" />
<stop offset="1" stop-color="#FFC5C5" stop-opacity="0.45" />
</linearGradient>
<linearGradient id="paint15_linear_6905_3227" x1="240.112" y1="145.977" x2="452.72" y2="336.041" gradientUnits="userSpaceOnUse">
<stop stop-color="#CB4A54" />
<stop offset="1" stop-color="#FFC5C5" stop-opacity="0.45" />
</linearGradient>
<radialGradient id="paint16_angular_6905_3227" cx="0" cy="0" r="1" gradientUnits="userSpaceOnUse" gradientTransform="translate(369.26 233.795) rotate(89.6515) scale(31.4575 42.9499)">
<stop stop-color="#EE4136" />
<stop offset="1" stop-color="#941209" />
</radialGradient>
<radialGradient id="paint17_angular_6905_3227" cx="0" cy="0" r="1" gradientUnits="userSpaceOnUse" gradientTransform="translate(369.26 233.795) rotate(89.6515) scale(31.4575 42.9499)">
<stop stop-color="#EE4136" />
<stop offset="1" stop-color="#941209" />
</radialGradient>
<radialGradient id="paint18_angular_6905_3227" cx="0" cy="0" r="1" gradientUnits="userSpaceOnUse" gradientTransform="translate(369.26 233.795) rotate(89.6515) scale(31.4575 42.9499)">
<stop stop-color="#EE4136" />
<stop offset="1" stop-color="#941209" />
</radialGradient>
<radialGradient id="paint19_angular_6905_3227" cx="0" cy="0" r="1" gradientUnits="userSpaceOnUse" gradientTransform="translate(369.26 233.795) rotate(89.6515) scale(31.4575 42.9499)">
<stop stop-color="#EE4136" />
<stop offset="1" stop-color="#941209" />
</radialGradient>
<linearGradient id="paint20_linear_6905_3227" x1="357.752" y1="260.745" x2="362.353" y2="284.211" gradientUnits="userSpaceOnUse">
<stop stop-color="#CB4A54" />
<stop offset="1" stop-color="#FFC5C5" stop-opacity="0.45" />
</linearGradient>
<linearGradient id="paint21_linear_6905_3227" x1="357.819" y1="265.623" x2="362.466" y2="289.168" gradientUnits="userSpaceOnUse">
<stop stop-color="#CB4A54" />
<stop offset="1" stop-color="#FFC5C5" stop-opacity="0.45" />
</linearGradient>
<linearGradient id="paint22_linear_6905_3227" x1="357.834" y1="256.162" x2="361.221" y2="276.357" gradientUnits="userSpaceOnUse">
<stop stop-color="#CB4A54" />
<stop offset="1" stop-color="#FFC5C5" stop-opacity="0.45" />
</linearGradient>
<linearGradient id="paint23_linear_6905_3227" x1="358.031" y1="270.411" x2="361.519" y2="290.735" gradientUnits="userSpaceOnUse">
<stop stop-color="#CB4A54" />
<stop offset="1" stop-color="#FFC5C5" stop-opacity="0.45" />
</linearGradient>
<linearGradient id="paint24_linear_6905_3227" x1="393.554" y1="228.277" x2="393.554" y2="233.038" gradientUnits="userSpaceOnUse">
<stop stop-color="#EF7160" />
<stop offset="1" stop-color="#941209" />
</linearGradient>
<linearGradient id="paint25_linear_6905_3227" x1="261.659" y1="258.129" x2="261.659" y2="261.717" gradientUnits="userSpaceOnUse">
<stop stop-color="#EF7160" />
<stop offset="1" stop-color="#941209" />
</linearGradient>
<radialGradient id="paint26_angular_6905_3227" cx="0" cy="0" r="1" gradientUnits="userSpaceOnUse" gradientTransform="translate(253.263 298.631) rotate(89.5782) scale(28.2759 46.7243)">
<stop stop-color="#EE4136" />
<stop offset="1" stop-color="#941209" />
</radialGradient>
<radialGradient id="paint27_angular_6905_3227" cx="0" cy="0" r="1" gradientUnits="userSpaceOnUse" gradientTransform="translate(253.257 298.695) rotate(89.5783) scale(28.4791 47.0489)">
<stop stop-color="#EE4136" />
<stop offset="1" stop-color="#941209" />
</radialGradient>
<linearGradient id="paint28_linear_6905_3227" x1="234.947" y1="320.899" x2="234.947" y2="345.282" gradientUnits="userSpaceOnUse">
<stop stop-color="#EF7160" />
<stop offset="1" stop-color="#941209" />
</linearGradient>
<linearGradient id="paint29_linear_6905_3227" x1="234.948" y1="320.711" x2="234.948" y2="345.467" gradientUnits="userSpaceOnUse">
<stop stop-color="#EF7160" />
<stop offset="1" stop-color="#941209" />
</linearGradient>
<linearGradient id="paint30_linear_6905_3227" x1="235.152" y1="322.779" x2="235.152" y2="338.757" gradientUnits="userSpaceOnUse">
<stop stop-color="#EF7160" />
<stop offset="1" stop-color="#941209" />
</linearGradient>
<linearGradient id="paint31_linear_6905_3227" x1="225.162" y1="322.962" x2="245.156" y2="338.566" gradientUnits="userSpaceOnUse">
<stop stop-color="#EF7160" />
<stop offset="1" stop-color="#941209" />
</linearGradient>
<linearGradient id="paint32_linear_6905_3227" x1="235.051" y1="330.605" x2="235.263" y2="330.914" gradientUnits="userSpaceOnUse">
<stop stop-color="#EF7160" />
<stop offset="1" stop-color="#941209" />
</linearGradient>
<linearGradient id="paint33_linear_6905_3227" x1="231.269" y1="340.047" x2="231.269" y2="341.656" gradientUnits="userSpaceOnUse">
<stop stop-color="#EF7160" />
<stop offset="1" stop-color="#941209" />
</linearGradient>
<linearGradient id="paint34_linear_6905_3227" x1="234.273" y1="340.047" x2="234.273" y2="341.656" gradientUnits="userSpaceOnUse">
<stop stop-color="#EF7160" />
<stop offset="1" stop-color="#941209" />
</linearGradient>
<linearGradient id="paint35_linear_6905_3227" x1="237.281" y1="340.047" x2="237.281" y2="341.656" gradientUnits="userSpaceOnUse">
<stop stop-color="#EF7160" />
<stop offset="1" stop-color="#941209" />
</linearGradient>
<linearGradient id="paint36_linear_6905_3227" x1="263.744" y1="320.896" x2="263.744" y2="345.279" gradientUnits="userSpaceOnUse">
<stop stop-color="#EF7160" />
<stop offset="1" stop-color="#941209" />
</linearGradient>
<linearGradient id="paint37_linear_6905_3227" x1="263.745" y1="320.711" x2="263.745" y2="345.467" gradientUnits="userSpaceOnUse">
<stop stop-color="#EF7160" />
<stop offset="1" stop-color="#941209" />
</linearGradient>
<linearGradient id="paint38_linear_6905_3227" x1="263.957" y1="322.779" x2="263.957" y2="338.757" gradientUnits="userSpaceOnUse">
<stop stop-color="#EF7160" />
<stop offset="1" stop-color="#941209" />
</linearGradient>
<linearGradient id="paint39_linear_6905_3227" x1="253.971" y1="322.957" x2="273.965" y2="338.561" gradientUnits="userSpaceOnUse">
<stop stop-color="#EF7160" />
<stop offset="1" stop-color="#941209" />
</linearGradient>
<linearGradient id="paint40_linear_6905_3227" x1="263.836" y1="330.605" x2="264.048" y2="330.914" gradientUnits="userSpaceOnUse">
<stop stop-color="#EF7160" />
<stop offset="1" stop-color="#941209" />
</linearGradient>
<linearGradient id="paint41_linear_6905_3227" x1="260.062" y1="340.047" x2="260.062" y2="341.656" gradientUnits="userSpaceOnUse">
<stop stop-color="#EF7160" />
<stop offset="1" stop-color="#941209" />
</linearGradient>
<linearGradient id="paint42_linear_6905_3227" x1="263.066" y1="340.047" x2="263.066" y2="341.656" gradientUnits="userSpaceOnUse">
<stop stop-color="#EF7160" />
<stop offset="1" stop-color="#941209" />
</linearGradient>
<linearGradient id="paint43_linear_6905_3227" x1="266.074" y1="340.047" x2="266.074" y2="341.656" gradientUnits="userSpaceOnUse">
<stop stop-color="#EF7160" />
<stop offset="1" stop-color="#941209" />
</linearGradient>
<clipPath id="clip0_6905_3227">
<rect width="72.6696" height="95" fill="white" transform="translate(333 187)" />
</clipPath>
</defs>
</svg>