<svg xmlns="http://www.w3.org/2000/svg" width="72.0" height="72.0" viewBox="0.0 0.0 72.0 72.0" fill="none">
<rect width="72" height="72" fill="white" />
<g clip-path="url(#clip0_5959_4222)">
<path d="M46.589 36.3427C47.409 36.3427 48.2319 36.3697 49.0519 36.3337C49.6055 36.3068 49.8299 36.4774 49.7491 37.0519C49.387 39.6015 48.4204 41.8758 46.7237 43.8329C46.4364 44.1651 46.212 44.1172 45.9277 43.8329C45.1018 42.995 44.1382 42.3277 43.1267 41.7382C42.7646 41.5257 42.6719 41.3043 42.7467 40.8943C42.9861 39.5986 43.2374 38.3028 43.2614 36.9801C43.2704 36.5103 43.5038 36.3308 43.9706 36.3427C44.8414 36.3667 45.7122 36.3487 46.583 36.3487L46.589 36.3427Z" fill="#E7ABAF" />
<path d="M46.5135 34.6517C45.6936 34.6517 44.8707 34.6277 44.0507 34.6607C43.521 34.6786 43.2457 34.4961 43.2547 33.9485C43.2757 32.6467 43.0183 31.3779 42.7879 30.1061C42.722 29.738 42.734 29.4388 43.141 29.2383C44.2003 28.7176 45.1041 27.9725 45.939 27.1495C46.2921 26.8024 46.4926 26.8114 46.8188 27.2004C48.3779 29.0587 49.3115 31.1954 49.7125 33.5714C49.8861 34.6068 49.8292 34.6487 48.7519 34.6487C48.0068 34.6487 47.2587 34.6487 46.5135 34.6487V34.6517Z" fill="#E7ABAF" />
<path d="M27.642 34.6512C26.7741 34.6512 25.9033 34.6362 25.0355 34.6571C24.5417 34.6691 24.3532 34.4507 24.4131 33.9838C24.7482 31.4312 25.7537 29.1749 27.4026 27.1999C27.6958 26.8467 27.9322 26.8827 28.2554 27.1909C29.1053 27.9929 30.021 28.7171 31.0534 29.2766C31.3736 29.4502 31.5172 29.6776 31.4334 30.0637C31.1522 31.3744 30.9367 32.6941 30.9038 34.0407C30.8918 34.5195 30.6255 34.6721 30.1766 34.6601C29.3327 34.6422 28.4888 34.6542 27.645 34.6542L27.642 34.6512Z" fill="#E7ABAF" />
<path d="M27.6615 36.3418C28.4814 36.3418 29.3044 36.3628 30.1243 36.3329C30.66 36.3149 30.8994 36.5154 30.9113 37.057C30.9353 38.251 31.0759 39.4361 31.3483 40.6001C31.4859 41.1957 31.3752 41.6026 30.7468 41.9138C29.8131 42.3807 29.0021 43.063 28.26 43.7991C27.871 44.1851 27.6555 44.1313 27.3234 43.7393C25.6954 41.8271 24.8037 39.6007 24.4236 37.1438C24.3398 36.5992 24.4895 36.2999 25.1239 36.3269C25.9678 36.3658 26.8146 36.3358 27.6615 36.3358V36.3418Z" fill="#E7ABAF" />
<path d="M39.7629 36.3418C40.11 36.3418 40.4631 36.3718 40.8072 36.3359C41.5105 36.261 41.7529 36.5453 41.6421 37.2366C41.4835 38.2181 41.3609 39.2027 41.2322 40.1872C41.1753 40.6181 41.0018 40.8036 40.5349 40.663C39.8915 40.4715 39.2392 40.3129 38.5629 40.277C38.0841 40.253 37.8566 40.0136 37.8686 39.5079C37.8896 38.7119 37.8926 37.9129 37.8686 37.1169C37.8477 36.5483 38.0542 36.282 38.6467 36.3299C39.0177 36.3598 39.3918 36.3359 39.7659 36.3359L39.7629 36.3418Z" fill="#E7ABAF" />
<path d="M39.764 34.6547C37.6603 34.6008 37.8458 35.0766 37.8847 32.6886C37.9117 30.944 37.9386 30.944 39.6114 30.555C40.6428 30.3156 41.2343 30.7206 41.3859 31.7699C41.4817 32.4313 41.5505 33.0986 41.6463 33.7599C41.7331 34.3584 41.6014 34.7325 40.8832 34.6577C40.5151 34.6188 40.1381 34.6517 39.767 34.6517L39.764 34.6547Z" fill="#E7ABAF" />
<path d="M36.2887 32.7414C36.2887 34.0142 35.6633 34.6506 34.4124 34.6506C33.9905 34.6506 33.5685 34.6327 33.1466 34.6506C32.6678 34.6716 32.4583 34.483 32.5122 33.9923C32.6319 32.9329 32.7246 31.8706 32.9371 30.8232C33.0299 30.3684 33.2034 30.1858 33.7002 30.3354C34.2658 30.509 34.8433 30.6766 35.4478 30.6885C36.0553 30.6975 36.3575 30.9788 36.2947 31.6222C36.2588 31.9903 36.2887 32.3673 36.2887 32.7384V32.7414Z" fill="#E7ABAF" />
<path d="M36.2866 38.2754C36.2866 39.4525 35.73 40.1677 34.6168 40.421C33.0427 40.7801 33.0308 40.7801 32.7764 39.1851C32.6597 38.452 32.5998 37.7098 32.5131 36.9707C32.4592 36.5308 32.6417 36.3303 33.0966 36.3393C33.9165 36.3542 34.7365 36.3632 35.5534 36.3333C36.11 36.3123 36.3165 36.5517 36.2896 37.0844C36.2686 37.4794 36.2866 37.8774 36.2866 38.2754Z" fill="#E7ABAF" />
<path d="M38.0703 22.8269C39.3182 22.6802 40.4464 23.0633 41.5655 23.4732C42.6458 23.8682 43.6393 24.4278 44.588 25.0832C45.0638 25.4124 45.0638 25.6937 44.6598 26.0797C44.0643 26.6513 43.4209 27.151 42.7266 27.5939C42.3256 27.8483 42.0892 27.8064 41.8857 27.3186C41.395 26.1455 40.8114 25.0263 39.8778 24.1166C39.3391 23.5929 38.7167 23.2159 38.0763 22.8269H38.0703Z" fill="#E7ABAF" />
<path d="M36.19 22.8697C34.1581 23.7345 33.0897 25.3624 32.3296 27.2477C32.1202 27.7654 31.8778 27.8821 31.39 27.5589C30.6838 27.0921 30.0135 26.5894 29.4269 25.9759C29.1875 25.7215 29.0588 25.4821 29.397 25.2368C31.378 23.7914 33.5476 22.8398 36.0373 22.75C36.0553 22.75 36.0732 22.7799 36.187 22.8727L36.19 22.8697Z" fill="#E7ABAF" />
<path d="M36.0936 48.1623C34.738 48.309 33.4992 47.8781 32.2872 47.4023C31.2967 47.0132 30.36 46.5015 29.5102 45.8372C29.1571 45.5619 29.0733 45.3644 29.4234 45.0202C30.0428 44.4068 30.7042 43.8502 31.4463 43.3953C31.8383 43.1559 32.0777 43.1589 32.2812 43.6676C32.8109 44.9873 33.5051 46.2112 34.6034 47.1659C35.0552 47.5579 35.564 47.8511 36.0936 48.1623Z" fill="#E7ABAF" />
<path d="M38.0508 48.1918C40.0677 47.2313 41.151 45.5225 41.9291 43.5595C42.0727 43.2004 42.2672 43.1315 42.6173 43.338C43.4373 43.8228 44.1614 44.4183 44.8168 45.1096C45.0323 45.337 45.0502 45.5405 44.7929 45.732C42.8029 47.2283 40.5914 48.135 38.0508 48.1918Z" fill="#E7ABAF" />
<path d="M37.874 44.0952C37.874 43.5506 37.874 43.006 37.874 42.4613C37.874 42.0155 38.0954 41.8299 38.5383 41.9227C38.658 41.9496 38.7807 41.9736 38.9004 41.9975C40.7677 42.4015 40.8306 42.1322 39.9179 44.0174C39.5827 44.7087 39.1308 45.3341 38.5533 45.8548C38.4096 45.9865 38.257 46.166 38.0446 46.0972C37.8022 46.0164 37.874 45.768 37.871 45.5825C37.859 45.0887 37.868 44.592 37.868 44.0982C37.868 44.0982 37.871 44.0982 37.874 44.0982V44.0952Z" fill="#E7ABAF" />
<path d="M37.8724 26.8324C37.8724 26.3117 37.8694 25.791 37.8724 25.2733C37.8754 24.8932 38.049 24.7376 38.3752 24.998C39.4375 25.8478 40.0121 27.0209 40.4819 28.2568C40.5537 28.4453 40.4729 28.5949 40.2754 28.6668C40.2066 28.6907 40.1347 28.7176 40.0659 28.7446C38.0161 29.4927 37.8694 29.367 37.8724 26.8354V26.8324Z" fill="#E7ABAF" />
<path d="M36.2828 26.9421C36.2828 27.4658 36.2828 27.9865 36.2828 28.5102C36.2828 28.9441 36.0913 29.1715 35.6305 29.0728C35.0978 28.9591 34.5651 28.8364 34.0325 28.7197C33.7482 28.6568 33.5656 28.5252 33.6943 28.202C34.1312 27.1097 34.637 26.0623 35.5048 25.2364C35.6783 25.0718 35.8818 24.8175 36.1302 24.9252C36.4025 25.0449 36.2709 25.3681 36.2798 25.6015C36.2978 26.0474 36.2858 26.4963 36.2858 26.9451H36.2798L36.2828 26.9421Z" fill="#E7ABAF" />
<path d="M36.2809 44.0145C36.2809 44.5113 36.2869 45.008 36.2779 45.5048C36.2749 45.6963 36.3228 45.9327 36.1103 46.0404C35.8889 46.1542 35.7333 45.9656 35.5956 45.8399C34.6889 45.02 34.1532 43.9577 33.7133 42.8445C33.6026 42.5662 33.6924 42.3597 34.0066 42.2849C34.0545 42.2729 34.0994 42.252 34.1472 42.234C36.2031 41.5517 36.2839 41.6205 36.2809 44.0145Z" fill="#E7ABAF" />
<path d="M36.2857 14.6031C36.2857 16.1712 36.2677 17.7393 36.2946 19.3073C36.3036 19.8998 36.1181 20.1333 35.4897 20.1602C28.0054 20.4774 21.8768 26.2798 21.0299 33.6952C20.2459 40.56 24.1062 47.5684 31.2972 50.0671C32.6408 50.534 34.0353 50.8093 35.4627 50.8272C36.0642 50.8362 36.2976 51.0307 36.2946 51.6532C36.2737 54.8402 36.2767 58.0242 36.2946 61.2112C36.2946 61.7887 36.0912 62.0042 35.5076 61.9952C33.8647 61.9683 32.2219 61.9653 30.579 61.9952C29.9476 62.0072 29.756 61.7618 29.777 61.1603C29.8009 60.4421 29.8309 59.7209 29.6603 59.0057C29.2324 57.2162 28.1281 56.094 26.3715 55.5943C24.7765 55.1394 23.3701 55.5165 22.1372 56.5848C21.7242 56.9409 21.3531 57.3479 20.9791 57.7489C20.6948 58.0511 20.4524 58.0361 20.1651 57.7429C17.8459 55.3788 15.5238 53.0207 13.1926 50.6686C12.8814 50.3574 12.9592 50.133 13.2315 49.8547C13.7522 49.322 14.3238 48.8372 14.7248 48.1938C15.7093 46.6168 15.7632 44.9919 14.8953 43.3729C14.0574 41.8109 12.6809 41.0747 10.9183 41.0508C9.64751 41.0328 9.01211 40.3785 9.01211 39.0877C9.01211 36.3256 9.02707 33.5606 9.00014 30.7985C8.99415 30.1581 9.18567 29.8948 9.85 29.9217C10.5413 29.9486 11.2445 30.0025 11.9328 29.8379C15.4071 29.006 16.6609 24.8524 14.2549 22.1562C14.222 22.1203 14.1861 22.0844 14.1532 22.0485C13.2854 21.1268 13.2924 20.221 14.1742 19.3313C16.1133 17.3652 18.0644 15.4081 19.9796 13.4151C20.4374 12.9393 20.7397 12.9273 21.1826 13.4091C21.9427 14.2321 22.7237 15.04 23.8549 15.3752C26.7695 16.234 29.6663 14.1632 29.786 11.1169C29.8069 10.6201 29.8069 10.1204 29.792 9.62363C29.78 9.18373 29.9625 8.99221 30.4084 8.99521C32.15 9.00718 33.8947 9.01017 35.6363 8.99521C36.1929 8.98922 36.2976 9.28249 36.2946 9.74632C36.2857 11.3653 36.2916 12.9812 36.2916 14.6001L36.2857 14.6031ZM13.4829 35.5536C13.5727 34.967 13.456 34.6109 12.7258 34.6319C12.1243 34.6498 11.8789 34.8114 11.8909 35.4428C11.9029 36.0204 11.9657 36.3855 12.6929 36.3585C13.2854 36.3376 13.6146 36.2089 13.4829 35.5536ZM18.9861 21.1298C19.1237 21.1387 20.0753 20.223 20.0933 20.0674C20.1113 19.8939 19.2853 19.0799 19.0609 19.056C18.8454 19.029 18.0195 19.8071 18.0195 20.0345C18.0195 20.1811 18.8484 21.1238 18.9861 21.1327V21.1298ZM20.0933 50.926C20.0783 50.7704 19.1267 49.8517 18.9891 49.8607C18.8514 49.8696 18.0225 50.8123 18.0225 50.9589C18.0225 51.1893 18.8454 51.9644 19.0639 51.9404C19.2853 51.9135 20.1113 51.1025 20.0963 50.929L20.0933 50.926Z" fill="url(#paint0_angular_5959_4222)" />
<path d="M39.2674 60.1661C37.9627 60.199 37.4898 59.4808 37.9118 58.4574C38.0674 58.0773 38.3966 58.1581 38.6779 58.1611C40.5302 58.1821 42.3586 57.9666 44.1481 57.5147C49.3521 56.195 53.6014 53.418 56.8393 49.1118C59.1644 46.0206 60.5709 42.5463 61.1305 38.7369C61.2981 37.5967 62.0492 38.2281 62.546 38.1832C63.1355 38.1294 63.1624 38.5244 63.0876 39.0331C62.0283 46.0505 58.5749 51.6135 52.8323 55.7282C49.1067 58.4005 44.9142 59.8519 40.3118 60.0584C39.8898 60.0763 39.4709 60.1421 39.2674 60.1631V60.1661Z" fill="url(#paint1_angular_5959_4222)" />
<path d="M39.0446 10.812C45.9992 11.0036 51.9333 13.5322 56.7183 18.6105C60.3093 22.4229 62.3681 26.9865 63.1611 32.1455C63.224 32.5615 63.0624 32.762 62.6703 32.8068C62.398 32.8368 62.1167 32.8218 61.8534 32.8787C61.3477 32.9894 61.207 32.762 61.1502 32.2981C60.7881 29.3415 59.8095 26.5765 58.2804 24.0389C54.6175 17.9551 49.3119 14.2384 42.2526 13.1073C41.0945 12.9217 39.9304 12.7631 38.7633 12.8439C37.9075 12.9038 37.8656 12.44 37.8596 11.7906C37.8536 11.1382 37.9613 10.6983 38.7484 10.8091C38.8471 10.824 38.9459 10.8091 39.0476 10.8091L39.0446 10.812Z" fill="url(#paint2_angular_5959_4222)" />
<path d="M39.2412 16.3238C43.1943 16.635 46.9289 18.0115 50.1488 20.7138C50.855 21.3093 51.5224 21.9377 52.1508 22.614C52.459 22.9462 52.465 23.2095 52.0879 23.4699C52.0461 23.4968 52.0072 23.5267 51.9683 23.5596C50.9658 24.3766 51.0196 24.3257 50.092 23.3801C47.4855 20.7227 44.3314 19.0948 40.6447 18.5113C40.0282 18.4125 39.4148 18.3497 38.7893 18.3317C37.8856 18.3108 37.8886 18.239 37.8527 17.1497C37.8287 16.3986 38.1938 16.252 38.8103 16.3178C38.8851 16.3268 38.9599 16.3178 39.2412 16.3178V16.3238Z" fill="url(#paint3_angular_5959_4222)" />
<path d="M39.0894 54.654C37.9553 54.6809 37.5184 54.0555 37.9104 53.035C38.06 52.643 38.4041 52.658 38.7213 52.655C40.7652 52.637 42.7043 52.1493 44.5806 51.3802C46.8669 50.4406 48.8569 49.061 50.5058 47.2236C50.9487 46.7299 51.2539 46.667 51.6818 47.1668C51.8075 47.3164 51.984 47.4271 52.1427 47.5468C52.4628 47.7892 52.5077 48.0047 52.2055 48.3338C49.3028 51.4849 45.7806 53.5408 41.5612 54.3428C40.7353 54.5014 39.9064 54.6869 39.0954 54.657L39.0894 54.654Z" fill="url(#paint4_angular_5959_4222)" />
<path d="M55.046 35.4549C55.0909 33.6025 54.7378 31.8549 54.2231 30.1312C53.9926 29.3562 54.0705 29.2933 55.2076 28.9073C55.8061 28.7038 55.9408 29.042 56.0814 29.4849C57.3472 33.4948 57.3772 37.5017 56.0754 41.5117C55.9078 42.0294 55.6954 42.3256 55.1358 42.0354C54.6719 41.793 53.84 41.8917 54.1752 40.9132C54.7827 39.1356 55.0879 37.2982 55.043 35.4549H55.046Z" fill="url(#paint5_angular_5959_4222)" />
<path d="M53.4693 43.3076C53.9601 43.4902 54.4359 43.6936 54.8458 44.0198C54.9506 44.1036 54.9057 44.2473 54.8458 44.364C54.7471 44.5645 54.6513 44.765 54.5466 44.9595C53.9032 46.1535 53.4753 46.2073 52.5147 45.2138C52.4279 45.1241 52.2992 45.0343 52.3591 44.9056C52.6105 44.37 52.8678 43.8373 53.2628 43.3884C53.3047 43.3405 53.3945 43.3375 53.4693 43.3106V43.3076Z" fill="url(#paint6_angular_5959_4222)" />
<path d="M53.5137 27.6959C53.3132 27.7228 53.2174 27.6061 53.1336 27.4834C53.0349 27.3428 52.9361 27.1992 52.8433 27.0525C52.2119 26.0201 52.4184 25.4695 53.5735 25.0685C53.7321 25.0146 53.8668 24.9787 53.9595 25.1343C54.2648 25.6401 54.567 26.1458 54.8573 26.6605C54.9411 26.8101 54.8573 26.9358 54.7256 27.0406C54.3516 27.3338 53.9266 27.5283 53.5137 27.6959Z" fill="url(#paint7_angular_5959_4222)" />
<path d="M62.3919 36.447C61.4104 36.447 61.3565 36.3992 61.3595 35.4835C61.3595 34.5977 61.4133 34.5498 62.35 34.5498C63.0243 34.5498 63.3605 34.871 63.3585 35.5134C63.3565 36.1558 63.0353 36.467 62.3949 36.447H62.3919Z" fill="#B9251B" />
</g>
<defs>
<radialGradient id="paint0_angular_5959_4222" cx="0" cy="0" r="1" gradientUnits="userSpaceOnUse" gradientTransform="translate(19.2519 51.1925) rotate(130.859) scale(23.7397 36.8252)">
<stop stop-color="#EE4136" />
<stop offset="1" stop-color="#941209" />
</radialGradient>
<radialGradient id="paint1_angular_5959_4222" cx="0" cy="0" r="1" gradientUnits="userSpaceOnUse" gradientTransform="translate(47.2853 55.6588) rotate(152.554) scale(16.2568 20.8474)">
<stop stop-color="#EE4136" />
<stop offset="1" stop-color="#941209" />
</radialGradient>
<radialGradient id="paint2_angular_5959_4222" cx="0" cy="0" r="1" gradientUnits="userSpaceOnUse" gradientTransform="translate(47.3676 28.3987) rotate(152.52) scale(16.2356 20.8373)">
<stop stop-color="#EE4136" />
<stop offset="1" stop-color="#941209" />
</radialGradient>
<radialGradient id="paint3_angular_5959_4222" cx="0" cy="0" r="1" gradientUnits="userSpaceOnUse" gradientTransform="translate(43.3072 22.5377) rotate(162.206) scale(8.67986 7.91819)">
<stop stop-color="#EE4136" />
<stop offset="1" stop-color="#941209" />
</radialGradient>
<radialGradient id="paint4_angular_5959_4222" cx="0" cy="0" r="1" gradientUnits="userSpaceOnUse" gradientTransform="translate(43.2682 53.0624) rotate(162.317) scale(8.74282 7.93219)">
<stop stop-color="#EE4136" />
<stop offset="1" stop-color="#941209" />
</radialGradient>
<radialGradient id="paint5_angular_5959_4222" cx="0" cy="0" r="1" gradientUnits="userSpaceOnUse" gradientTransform="translate(55.2033 39.4379) rotate(110.388) scale(4.80772 4.92198)">
<stop stop-color="#EE4136" />
<stop offset="1" stop-color="#941209" />
</radialGradient>
<radialGradient id="paint6_angular_5959_4222" cx="0" cy="0" r="1" gradientUnits="userSpaceOnUse" gradientTransform="translate(53.3071 45.3804) rotate(148.854) scale(1.7052 2.36648)">
<stop stop-color="#EE4136" />
<stop offset="1" stop-color="#941209" />
</radialGradient>
<radialGradient id="paint7_angular_5959_4222" cx="0" cy="0" r="1" gradientUnits="userSpaceOnUse" gradientTransform="translate(53.3931 27.1541) rotate(146.393) scale(1.63872 2.36829)">
<stop stop-color="#EE4136" />
<stop offset="1" stop-color="#941209" />
</radialGradient>
<clipPath id="clip0_5959_4222">
<rect width="54.3556" height="53" fill="white" transform="translate(9 9)" />
</clipPath>
</defs>
</svg>