<svg xmlns="http://www.w3.org/2000/svg" width="81.0" height="34.0" viewBox="0.0 0.0 81.0 34.0" fill="none">
<g style="mix-blend-mode:luminosity" clip-path="url(#clip0_5892_11177)">
<path d="M39.884 0.128916C40.0487 0.127477 40.2134 0.126038 40.383 0.124556C40.563 0.123919 40.7431 0.123282 40.9285 0.122627C41.1135 0.121773 41.2985 0.120919 41.4891 0.120039C41.8829 0.11862 42.2767 0.117589 42.6705 0.117068C43.0706 0.116417 43.4707 0.114358 43.8708 0.110925C50.273 0.057074 50.273 0.057074 52.6488 2.3898C53.9436 3.83896 54.2631 5.56091 54.2337 7.49226C54.0676 9.39478 53.4802 10.8148 52.136 12.1243C50.3289 13.6268 48.0926 13.8548 45.8491 13.8322C45.6536 13.8317 45.458 13.8314 45.2624 13.8313C44.8577 13.8306 44.453 13.8285 44.0483 13.8251C43.5288 13.8208 43.0094 13.8193 42.4899 13.8186C41.9924 13.8178 41.4948 13.8156 40.9972 13.8134C40.8104 13.8128 40.6236 13.8122 40.4311 13.8115C40.2601 13.8101 40.0892 13.8086 39.913 13.8071C39.7619 13.8061 39.6109 13.8051 39.4552 13.804C39.1148 13.783 39.1148 13.783 38.9694 13.6332C38.9635 13.3837 38.9632 13.1339 38.9694 12.8843C39.1217 12.8247 39.1217 12.8247 39.2772 12.7638C39.4095 12.7109 39.5418 12.658 39.6781 12.6035C39.8096 12.5514 39.9412 12.4992 40.0767 12.4455C40.4409 12.3024 40.4409 12.3024 40.7139 11.9856C40.7606 11.5595 40.7606 11.5595 40.7561 11.0537C40.758 10.8577 40.7598 10.6618 40.7617 10.4599C40.7622 10.2449 40.7625 10.03 40.7627 9.81501C40.7637 9.59524 40.7646 9.37547 40.7657 9.1557C40.7674 8.69461 40.7679 8.23353 40.7678 7.77244C40.7677 7.18178 40.7717 6.59122 40.7767 6.00059C40.7799 5.54649 40.7805 5.09241 40.7804 4.6383C40.7807 4.42057 40.782 4.20284 40.7843 3.98512C40.7871 3.6804 40.7859 3.37564 40.7845 3.0709C40.7851 2.81083 40.7851 2.81083 40.7858 2.54551C40.6986 2.0055 40.5437 1.83559 40.1324 1.50107C39.8276 1.33869 39.8276 1.33869 39.5145 1.23895C39.3346 1.17717 39.1547 1.11539 38.9694 1.05173C38.9632 0.802178 38.9635 0.552389 38.9694 0.30283C39.2183 0.0463826 39.544 0.131307 39.884 0.128916ZM44.7844 1.80063C44.6957 2.25923 44.6957 2.25923 44.7091 2.79321C44.7081 2.89336 44.7071 2.9935 44.706 3.09668C44.7035 3.42767 44.7052 3.75846 44.7071 4.08945C44.7067 4.31944 44.7062 4.54943 44.7055 4.77942C44.7046 5.26142 44.7058 5.74335 44.7086 6.22535C44.7119 6.8434 44.71 7.46129 44.7065 8.07933C44.7044 8.55425 44.705 9.02913 44.7066 9.50404C44.7069 9.73193 44.7065 9.95981 44.7051 10.1877C44.7036 10.5062 44.7059 10.8244 44.7091 11.1428C44.7096 11.3241 44.7101 11.5053 44.7105 11.6921C44.7446 12.146 44.7446 12.146 45.049 12.4181C45.8411 12.8348 47.0772 12.7141 47.9224 12.4812C48.907 12.0168 49.3863 11.2857 49.7634 10.2725C50.5482 7.99613 50.3976 4.97469 49.4727 2.76483C49.0775 2.03218 48.4504 1.61181 47.6919 1.35129C47.3051 1.32913 46.9247 1.3167 46.5379 1.31384C46.3818 1.30921 46.3818 1.30921 46.2225 1.30448C45.5934 1.29968 45.2229 1.32416 44.7844 1.80063Z" fill="#116967" />
<path d="M12.095 0.132335C12.2594 0.133143 12.2594 0.133143 12.427 0.133967C12.5994 0.133934 12.5994 0.133934 12.7751 0.133901C13.1567 0.134005 13.5382 0.135173 13.9197 0.136344C14.1835 0.136623 14.4473 0.136836 14.7111 0.136986C15.4068 0.137559 16.1025 0.139031 16.7982 0.140686C17.5075 0.142216 18.2169 0.142902 18.9263 0.143657C20.3192 0.145266 21.7121 0.147823 23.1049 0.150971C23.1292 0.408526 23.1531 0.666128 23.1767 0.923748C23.1901 1.06719 23.2034 1.21064 23.2171 1.35843C23.2685 2.03912 23.2658 2.71702 23.2594 3.39932C23.2587 3.53476 23.2581 3.6702 23.2574 3.80975C23.2557 4.13789 23.2531 4.46601 23.2503 4.79414C22.905 4.88775 22.905 4.88775 22.5234 4.94392C22.1819 4.59208 22.1284 4.34891 21.9874 3.87674C21.6993 3.037 21.3198 2.35606 20.6336 1.79855C19.8916 1.44912 19.1962 1.46336 18.3984 1.48027C17.9847 1.48644 17.5709 1.49262 17.1446 1.49899C17.0966 3.08066 17.0486 4.66234 16.9992 6.29194C18.3096 6.11494 18.3096 6.11494 19.1798 5.39326C19.4027 4.95443 19.5897 4.50765 19.7613 4.04524C20.0035 4.03884 20.246 4.03916 20.4882 4.04524C20.6336 4.19502 20.6336 4.19502 20.6501 4.707C20.6501 4.93439 20.6492 5.16178 20.6478 5.38917C20.6476 5.50864 20.6474 5.62811 20.6471 5.7512C20.6463 6.13428 20.6445 6.51734 20.6427 6.90042C20.6419 7.15951 20.6413 7.4186 20.6407 7.67769C20.6391 8.31417 20.6366 8.95063 20.6336 9.58709C20.1959 9.72702 20.0715 9.74354 19.616 9.58709C19.5035 9.29865 19.5035 9.29865 19.4161 8.94117C19.277 8.48372 19.1812 8.24078 18.88 7.86463C18.3156 7.53406 18.3156 7.53406 16.9992 7.49018C17.0472 9.07185 17.0952 10.6535 17.1446 12.2831C17.5763 12.2955 18.0081 12.3078 18.453 12.3206C18.5866 12.326 18.7202 12.3315 18.8578 12.3371C19.8763 12.3511 20.5876 12.0835 21.3803 11.4266C22.0777 10.6012 22.4546 9.71276 22.8142 8.68841C23.102 8.73784 23.3899 8.78727 23.6864 8.83819C23.8595 9.37319 23.8125 9.71609 23.7557 10.2763C23.7362 10.4702 23.7167 10.664 23.6967 10.8637C23.6807 11.0148 23.6807 11.0148 23.6644 11.169C23.6319 11.4778 23.6012 11.7868 23.5706 12.0959C23.415 13.6112 23.415 13.6112 23.2503 13.7809C22.8795 13.796 22.5127 13.8013 22.1418 13.8003C22.0258 13.8006 21.9097 13.8008 21.7901 13.8011C21.4046 13.8018 21.0191 13.8013 20.6336 13.8008C20.3669 13.8009 20.1002 13.8011 19.8334 13.8013C19.2737 13.8015 18.714 13.8012 18.1543 13.8005C17.4351 13.7996 16.716 13.8001 15.9968 13.801C15.4459 13.8015 14.8949 13.8014 14.3439 13.801C14.0787 13.8009 13.8134 13.801 13.5482 13.8013C13.1782 13.8017 12.8081 13.8011 12.4381 13.8003C12.3274 13.8006 12.2167 13.8009 12.1026 13.8012C11.3462 13.798 11.3462 13.798 11.1842 13.6311C11.1783 13.3316 11.178 13.032 11.1842 12.7325C11.2858 12.7052 11.3874 12.678 11.492 12.65C11.6243 12.6123 11.7566 12.5747 11.8929 12.5359C12.0245 12.4994 12.156 12.4629 12.2916 12.4253C12.6847 12.3031 12.6847 12.3031 12.9287 11.8338C12.9751 11.3917 12.9751 11.3917 12.971 10.8825C12.9728 10.686 12.9747 10.4896 12.9766 10.2872C12.977 10.0726 12.9774 9.85791 12.9776 9.64326C12.9785 9.42334 12.9795 9.20343 12.9805 8.98351C12.9822 8.52269 12.9828 8.06188 12.9826 7.60105C12.9826 7.01021 12.9865 6.41948 12.9915 5.82866C12.9948 5.37457 12.9954 4.9205 12.9952 4.4664C12.9956 4.24854 12.9968 4.03069 12.9991 3.81285C13.0019 3.50847 13.0007 3.20405 12.9994 2.89966C13 2.63977 13 2.63977 13.0006 2.37463C12.968 1.93356 12.968 1.93356 12.653 1.67309C12.3493 1.50017 12.0568 1.36429 11.7294 1.24623C11.5495 1.18136 11.3696 1.11649 11.1842 1.04965C11.178 0.800098 11.1783 0.550309 11.1842 0.30075C11.4359 0.0414195 11.7596 0.133031 12.095 0.132335Z" fill="#116967" />
<path d="M0 20.373C1.91894 20.373 3.83789 20.373 5.81498 20.373C5.88694 20.6696 5.88694 20.6696 5.96035 20.9722C5.87096 21.0011 5.78158 21.0301 5.68948 21.0599C5.57198 21.0989 5.45448 21.1379 5.33343 21.1781C5.21705 21.2163 5.10068 21.2546 4.98078 21.294C4.61895 21.4198 4.61895 21.4198 4.21586 21.7211C4.16676 22.1021 4.14477 22.4495 4.14147 22.8315C4.13905 22.9284 4.13663 23.0253 4.13414 23.1251C4.12573 23.487 4.12105 23.8491 4.11591 24.2112C4.10092 25.0205 4.08593 25.8299 4.07049 26.6638C6.32524 26.6638 8.58 26.6638 10.9031 26.6638C10.8551 25.0327 10.8071 23.4016 10.7577 21.7211C10.177 21.4646 9.60036 21.2105 9.01322 20.9722C9.06119 20.7745 9.10916 20.5767 9.15859 20.373C11.0775 20.373 12.9965 20.373 14.9736 20.373C15.0455 20.6696 15.0455 20.6696 15.1189 20.9722C15.0312 21.0011 14.9435 21.0301 14.8532 21.0599C14.737 21.0989 14.6208 21.1379 14.5011 21.1781C14.3291 21.2355 14.3291 21.2355 14.1536 21.294C13.763 21.4314 13.763 21.4314 13.2291 21.7211C13.2291 25.3293 13.2291 28.9375 13.2291 32.655C13.9583 33.0307 14.344 33.1743 15.1189 33.2541C15.071 33.5012 15.023 33.7484 14.9736 34.003C13.0546 34.003 11.1357 34.003 9.15859 34.003C9.11062 33.8053 9.06264 33.6076 9.01322 33.4039C9.59471 33.2042 10.1762 33.0045 10.7577 32.8048C10.8057 31.1242 10.8537 29.4437 10.9031 27.7123C8.64833 27.6628 6.39357 27.6134 4.07049 27.5625C4.11846 29.243 4.16643 30.9235 4.21586 32.655C4.79659 32.9114 5.37321 33.1656 5.96035 33.4039C5.88839 33.7004 5.88839 33.7004 5.81498 34.003C3.89604 34.003 1.97709 34.003 0 34.003C0 33.7559 0 33.5087 0 33.2541C0.11375 33.2251 0.2275 33.1962 0.344696 33.1663C0.491803 33.1273 0.638909 33.0883 0.790474 33.0482C0.937205 33.0099 1.08394 32.9717 1.23512 32.9323C1.62175 32.8458 1.62175 32.8458 1.74449 32.5052C1.75788 32.1641 1.76157 31.8226 1.761 31.4812C1.76102 31.376 1.76104 31.2708 1.76106 31.1624C1.76096 30.8139 1.75983 30.4654 1.75869 30.1169C1.75842 29.8756 1.75821 29.6342 1.75807 29.3929C1.75751 28.7571 1.75608 28.1213 1.75448 27.4855C1.75299 26.837 1.75232 26.1884 1.75159 25.5399C1.75003 24.2669 1.74755 22.994 1.74449 21.7211C1.16224 21.4575 0.631095 21.2205 0 21.1219C0 20.8748 0 20.6277 0 20.373Z" fill="#116967" />
<path d="M64.9774 20.3705C66.8963 20.3705 68.8153 20.3705 70.7924 20.3705C70.8643 20.6671 70.8643 20.6671 70.9378 20.9696C70.8484 20.9986 70.759 21.0276 70.6669 21.0574C70.5494 21.0964 70.4319 21.1354 70.3108 21.1756C70.1945 21.2138 70.0781 21.252 69.9582 21.2914C69.5964 21.4172 69.5964 21.4172 69.1933 21.7185C69.1442 22.0995 69.1222 22.447 69.1189 22.829C69.1165 22.9259 69.114 23.0227 69.1115 23.1225C69.1031 23.4845 69.0985 23.8466 69.0933 24.2086C69.0783 25.018 69.0633 25.8274 69.0479 26.6613C71.3506 26.6613 73.6534 26.6613 76.0259 26.6613C76.0079 25.96 75.9899 25.2588 75.9713 24.5363C75.9664 24.3163 75.9615 24.0964 75.9564 23.8698C75.9486 23.608 75.9486 23.608 75.9407 23.341C75.9361 23.1629 75.9315 22.9849 75.9268 22.8014C75.8814 22.3276 75.8039 21.9893 75.5897 21.5688C75.2473 21.404 75.2473 21.404 74.8538 21.3347C74.458 21.2499 74.458 21.2499 74.136 21.1194C74.0094 20.8158 74.0094 20.8158 73.9906 20.5203C74.136 20.3705 74.136 20.3705 74.6996 20.3535C74.9511 20.3535 75.2026 20.3544 75.454 20.3559C75.5861 20.3561 75.7182 20.3563 75.8543 20.3565C76.278 20.3574 76.7016 20.3593 77.1253 20.3612C77.4117 20.3619 77.6982 20.3626 77.9847 20.3632C78.6886 20.3649 79.3925 20.3674 80.0963 20.3705C80.0963 20.6177 80.0963 20.8648 80.0963 21.1194C79.9283 21.1655 79.9283 21.1655 79.7568 21.2124C79.611 21.2528 79.4652 21.2932 79.315 21.3347C79.1699 21.3747 79.0249 21.4147 78.8754 21.4558C78.5039 21.5541 78.5039 21.5541 78.2065 21.7185C78.1964 23.1168 78.1886 24.5151 78.1839 25.9135C78.1816 26.5628 78.1785 27.212 78.1736 27.8613C78.1688 28.4877 78.1662 29.1141 78.1651 29.7405C78.1643 29.9797 78.1627 30.2188 78.1604 30.458C78.1572 30.7926 78.1568 31.1271 78.157 31.4617C78.156 31.6523 78.155 31.8429 78.154 32.0392C78.1685 32.4979 78.1685 32.4979 78.4071 32.7856C78.7072 32.9977 78.9674 33.0606 79.324 33.1299C79.5003 33.1655 79.5003 33.1655 79.6801 33.2018C79.7695 33.2183 79.8589 33.2347 79.951 33.2516C79.9989 33.4987 80.0469 33.7459 80.0963 34.0005C78.1294 34.0005 76.1625 34.0005 74.136 34.0005C74.088 33.8028 74.04 33.6051 73.9906 33.4014C74.5721 33.2017 75.1536 33.0019 75.7351 32.8022C75.8721 32.1969 75.9085 31.618 75.9265 30.9973C75.932 30.8167 75.9376 30.6361 75.9433 30.45C75.9495 30.2223 75.9558 29.9945 75.9623 29.7598C75.9833 29.0339 76.0042 28.3079 76.0259 27.5599C73.7231 27.5599 71.4204 27.5599 69.0479 27.5599C69.0959 29.2405 69.1438 30.921 69.1933 32.6525C69.774 32.9089 70.3506 33.1631 70.9378 33.4014C70.8658 33.6979 70.8658 33.6979 70.7924 34.0005C68.8734 34.0005 66.9545 34.0005 64.9774 34.0005C64.9294 33.8028 64.8815 33.6051 64.832 33.4014C65.0164 33.3411 65.0164 33.3411 65.2046 33.2797C65.7197 33.0963 66.221 32.8736 66.7219 32.6525C66.7219 29.0443 66.7219 25.4361 66.7219 21.7185C66.0841 21.4369 65.4873 21.1837 64.832 20.9696C64.88 20.7719 64.928 20.5742 64.9774 20.3705Z" fill="#116967" />
<path d="M61.2123 0C61.5961 0 61.9799 0 62.3753 0C62.8313 0.904998 63.2122 1.82261 63.5718 2.7721C63.6292 2.92216 63.6866 3.07223 63.7457 3.22684C63.9285 3.70499 64.1105 4.18342 64.2925 4.66189C64.7072 5.75028 65.1234 6.8381 65.5417 7.92503C65.7208 8.39238 65.8975 8.86062 66.0742 9.32891C66.1883 9.62641 66.3025 9.92388 66.4169 10.2213C66.4677 10.3578 66.5185 10.4943 66.5708 10.6349C66.9095 11.5072 67.2372 12.1593 68.0796 12.6031C68.2288 12.6527 68.2288 12.6527 68.3811 12.7032C68.558 12.7619 68.7349 12.8206 68.9172 12.8811C68.9234 13.1306 68.9231 13.3804 68.9172 13.63C68.6806 13.8737 68.4169 13.7988 68.0904 13.7991C67.9453 13.7996 67.8003 13.8001 67.6508 13.8005C67.4931 13.8002 67.3353 13.7999 67.1727 13.7996C66.9315 13.7998 66.9315 13.7998 66.6855 13.8001C66.3447 13.8002 66.004 13.7999 65.6633 13.7993C65.1397 13.7985 64.6162 13.7993 64.0926 13.8002C63.7625 13.8001 63.4323 13.7999 63.1022 13.7996C62.8655 13.8001 62.8655 13.8001 62.6241 13.8005C62.479 13.8001 62.334 13.7996 62.1845 13.7991C62.0562 13.799 61.9278 13.7989 61.7955 13.7988C61.5031 13.7797 61.5031 13.7797 61.3577 13.63C61.3518 13.3305 61.3515 13.0308 61.3577 12.7313C62.0054 12.583 62.0054 12.583 62.6661 12.4317C62.7296 11.4282 62.5383 10.9443 62.23 9.88546C60.9827 9.93489 59.7353 9.98432 58.4502 10.0352C57.7709 11.5159 57.7709 11.5159 58.0141 12.4317C58.4459 12.58 58.8776 12.7283 59.3225 12.8811C59.3287 13.1306 59.3284 13.3804 59.3225 13.63C59.1771 13.7797 59.1771 13.7797 58.7069 13.7967C58.4985 13.7967 58.2901 13.7959 58.0817 13.7944C57.9174 13.794 57.9174 13.794 57.7499 13.7937C57.3988 13.7929 57.0477 13.791 56.6967 13.7891C56.4592 13.7883 56.2217 13.7877 55.9843 13.787C55.401 13.7854 54.8177 13.7828 54.2344 13.7797C54.2344 13.4832 54.2344 13.1866 54.2344 12.8811C54.3292 12.8552 54.424 12.8293 54.5217 12.8027C54.6488 12.7606 54.7758 12.7185 54.9067 12.6751C55.0315 12.6369 55.1563 12.5987 55.2849 12.5593C56.6591 11.6141 57.2501 9.23287 57.8869 7.72302C58.0094 7.43454 58.1321 7.14611 58.2548 6.85773C58.4981 6.28593 58.7409 5.71394 58.9835 5.1418C59.4374 4.0718 59.8973 3.00456 60.3583 1.93778C60.4295 1.77251 60.5007 1.60725 60.5741 1.43699C61.0482 0.33829 61.0482 0.33829 61.2123 0ZM60.1947 5.09251C59.9795 5.63224 59.7645 6.17211 59.5496 6.712C59.4884 6.8654 59.4273 7.0188 59.3642 7.17685C59.3057 7.32407 59.2471 7.47129 59.1868 7.62297C59.1327 7.75867 59.0787 7.89436 59.023 8.03417C58.9208 8.29858 58.8283 8.56701 58.741 8.837C59.7484 8.837 60.7559 8.837 61.7938 8.837C61.6319 8.35818 61.47 7.87935 61.3032 7.38601C61.2527 7.23644 61.2022 7.08687 61.1502 6.93276C61.0893 6.75311 61.0893 6.75311 61.0272 6.56983C60.9861 6.44825 60.945 6.32668 60.9026 6.20142C60.7716 5.82818 60.6305 5.46022 60.4855 5.09251C60.3895 5.09251 60.2936 5.09251 60.1947 5.09251Z" fill="#116967" />
<path d="M25.8922 0.12793C26.0893 0.128429 26.0893 0.128429 26.2903 0.128938C26.4388 0.128949 26.5872 0.12896 26.7401 0.128972C26.9015 0.129745 27.0629 0.130518 27.2293 0.131314C27.4758 0.131632 27.4758 0.131632 27.7273 0.131957C28.2547 0.132798 28.782 0.134679 29.3094 0.13658C29.6659 0.137331 30.0224 0.138014 30.3789 0.138628C31.2551 0.140283 32.1312 0.142793 33.0073 0.145941C33.0793 0.590787 33.0793 0.590787 33.1527 1.04462C32.7166 1.34418 32.7166 1.34418 32.1987 1.49396C31.6945 1.60027 31.6945 1.60027 31.4082 1.9433C31.3655 2.386 31.3655 2.386 31.3752 2.91226C31.3752 3.01164 31.3751 3.11103 31.3751 3.21342C31.3753 3.54248 31.3775 3.87148 31.3798 4.20053C31.3804 4.42845 31.3808 4.65637 31.3811 4.88429C31.3822 5.48462 31.385 6.08493 31.3882 6.68526C31.3912 7.29766 31.3925 7.91008 31.394 8.52249C31.3971 9.72444 31.4021 10.9264 31.4082 12.1283C31.8586 12.3603 32.3317 12.3119 32.8256 12.3155C32.9279 12.3186 33.0302 12.3217 33.1357 12.3249C33.9608 12.3312 34.5369 12.1454 35.1794 11.5807C35.8564 10.7874 36.2631 9.96038 36.6417 8.98295C36.6962 8.84297 36.7508 8.70299 36.8069 8.55876C36.8691 8.39803 36.8691 8.39803 36.9324 8.23405C37.2203 8.28347 37.5081 8.3329 37.8047 8.38383C37.7877 8.83324 37.7693 9.28252 37.7502 9.73184C37.7457 9.85464 37.7412 9.97744 37.7365 10.104C37.6991 10.9534 37.6156 11.7904 37.5102 12.6332C37.4898 12.7987 37.4898 12.7987 37.469 12.9674C37.4357 13.237 37.4022 13.5064 37.3686 13.7759C35.8358 13.7794 34.303 13.782 32.7702 13.7837C32.0585 13.7844 31.3468 13.7855 30.6352 13.7872C29.949 13.7888 29.2628 13.7897 28.5766 13.7901C28.3142 13.7904 28.0517 13.7909 27.7893 13.7917C27.4231 13.7928 27.0569 13.793 26.6907 13.7929C26.5811 13.7934 26.4715 13.794 26.3586 13.7945C25.6098 13.793 25.6098 13.793 25.4479 13.6261C25.442 13.3766 25.4416 13.1268 25.4479 12.8772C25.6002 12.8176 25.6002 12.8176 25.7556 12.7567C25.8879 12.7038 26.0202 12.6509 26.1566 12.5964C26.2881 12.5443 26.4197 12.4921 26.5552 12.4384C26.9194 12.2953 26.9194 12.2953 27.1924 11.9785C27.2391 11.5453 27.2391 11.5453 27.2346 11.0305C27.2356 10.9333 27.2365 10.8361 27.2375 10.7359C27.2403 10.4139 27.2409 10.0919 27.2412 9.76987C27.2421 9.54639 27.2431 9.3229 27.2441 9.09941C27.2459 8.63064 27.2464 8.16188 27.2462 7.69311C27.2462 7.09202 27.2502 6.49104 27.2552 5.88998C27.2584 5.42831 27.259 4.96666 27.2588 4.50497C27.2592 4.28336 27.2605 4.06174 27.2627 3.84014C27.2656 3.53027 27.2647 3.22063 27.263 2.91076C27.2634 2.73439 27.2638 2.55801 27.2642 2.37629C27.2316 1.93232 27.2316 1.93232 26.9307 1.66869C26.5024 1.43472 26.0605 1.32158 25.5932 1.1944C25.4479 1.04462 25.4479 1.04462 25.4297 0.67017C25.4547 0.154287 25.4547 0.154287 25.8922 0.12793Z" fill="#116967" />
<path d="M16.653 20.3535C16.9081 20.354 16.9081 20.354 17.1685 20.3545C17.2621 20.3545 17.3557 20.3545 17.4521 20.3545C17.7628 20.3546 18.0735 20.3557 18.3843 20.3569C18.5992 20.3572 18.8141 20.3574 19.029 20.3575C19.5956 20.3581 20.1623 20.3596 20.7289 20.3612C21.3068 20.3628 21.8846 20.3635 22.4624 20.3642C23.5969 20.3658 24.7314 20.3684 25.8659 20.3715C26.0925 20.9406 26.2628 21.4951 26.402 22.094C26.4415 22.2593 26.4811 22.4245 26.5218 22.5948C26.5917 23.0603 26.5688 23.3666 26.4474 23.8165C25.9064 23.5919 25.9064 23.5919 25.7228 23.2519C25.6492 23.0494 25.5765 22.8466 25.5048 22.6434C25.1393 22.1048 24.7155 21.8069 24.1214 21.5698C23.4633 21.4828 22.821 21.4988 22.1589 21.523C21.2594 21.5461 21.2594 21.5461 20.3417 21.5698C20.2937 23.2503 20.2458 24.9308 20.1963 26.6623C20.6131 26.6437 21.0299 26.6252 21.4593 26.6061C21.5893 26.601 21.7193 26.5959 21.8532 26.5907C22.7344 26.5527 22.7344 26.5527 23.5399 26.2129C23.7148 25.9068 23.7148 25.9068 23.7943 25.5483C23.8266 25.4311 23.8588 25.3139 23.892 25.1931C23.9336 25.0307 23.9336 25.0307 23.9761 24.8649C24.048 24.6425 24.048 24.6425 24.1214 24.4156C24.3613 24.465 24.6012 24.5144 24.8483 24.5654C24.8483 26.2459 24.8483 27.9264 24.8483 29.6579C24.6084 29.6579 24.3686 29.6579 24.1214 29.6579C24.0967 29.5567 24.072 29.4555 24.0465 29.3513C24.0112 29.2177 23.976 29.0841 23.9397 28.9464C23.8891 28.7483 23.8891 28.7483 23.8375 28.5462C23.6466 28.0618 23.5278 27.8576 23.1038 27.561C22.6079 27.4672 22.117 27.4566 21.6137 27.4486C21.4777 27.4442 21.3416 27.4397 21.2015 27.4352C20.8664 27.4246 20.5315 27.4167 20.1963 27.4112C20.2063 28.1523 20.2191 28.8934 20.2345 29.6345C20.2393 29.8867 20.2434 30.1389 20.2467 30.3911C20.2516 30.7533 20.2592 31.1153 20.2673 31.4775C20.2682 31.5906 20.2692 31.7037 20.2701 31.8203C20.2748 32.1721 20.2748 32.1721 20.3417 32.6535C21.3231 33.3276 23.0738 33.0761 24.197 32.8501C25.4938 32.4015 26.2788 31.653 26.8836 30.4068C27.1234 30.4562 27.3633 30.5056 27.6104 30.5565C27.3821 31.2781 27.1324 31.9896 26.8745 32.7003C26.8159 32.8638 26.8159 32.8638 26.7561 33.0305C26.4646 33.834 26.4646 33.834 26.3021 34.0015C25.9854 34.0156 25.6683 34.0191 25.3514 34.0185C25.2521 34.0185 25.1529 34.0185 25.0506 34.0186C24.721 34.0184 24.3914 34.0173 24.0618 34.0161C23.8339 34.0158 23.6059 34.0156 23.378 34.0155C22.7769 34.0149 22.1758 34.0134 21.5748 34.0118C20.9619 34.0102 20.349 34.0096 19.7361 34.0088C18.5327 34.0072 17.3293 34.0046 16.1258 34.0015C16.0779 33.8038 16.0299 33.6061 15.9805 33.4024C16.1334 33.3591 16.2863 33.3159 16.4438 33.2713C17.3755 33.0276 17.3755 33.0276 18.0157 32.3539C18.0591 31.8996 18.0591 31.8996 18.051 31.3751C18.0513 31.2764 18.0516 31.1777 18.0519 31.076C18.0524 30.75 18.0508 30.4239 18.0492 30.0978C18.049 29.8712 18.049 29.6446 18.049 29.418C18.0488 28.943 18.0476 28.4681 18.0456 27.9932C18.0432 27.3842 18.0426 26.7753 18.0427 26.1664C18.0427 25.6984 18.0419 25.2305 18.0408 24.7625C18.0404 24.538 18.0401 24.3134 18.04 24.0889C18.0397 23.7752 18.0384 23.4614 18.0368 23.1477C18.0363 22.9691 18.0357 22.7906 18.0351 22.6066C18.0346 22.1593 18.0346 22.1593 17.8703 21.7195C17.3568 21.3598 16.7216 21.2636 16.1258 21.1204C16.1258 20.3784 16.1258 20.3784 16.653 20.3535Z" fill="#116967" />
<path d="M34.4537 20.0723C34.7459 20.0906 34.7459 20.0906 35.0352 20.222C35.1882 20.4828 35.1882 20.4828 35.3027 20.8277C35.347 20.9573 35.3914 21.0869 35.437 21.2204C35.483 21.3626 35.529 21.5048 35.5764 21.6514C35.6261 21.7988 35.6758 21.9461 35.7271 22.0979C35.8338 22.4149 35.9394 22.7323 36.0441 23.05C36.2073 23.5453 36.3733 24.0395 36.5402 24.5334C36.7613 25.1884 36.9816 25.8437 37.2008 26.4994C37.5667 27.5922 37.9364 28.6834 38.3174 29.7707C38.4126 30.0441 38.5057 30.3184 38.5986 30.5926C38.9036 31.4632 39.1662 32.1689 39.8325 32.8035C40.2116 33.0009 40.2116 33.0009 40.6049 33.0844C40.7332 33.118 40.8616 33.1516 40.9938 33.1862C41.0904 33.2082 41.1869 33.2302 41.2863 33.2529C41.3343 33.5 41.3822 33.7472 41.4317 34.0018C39.4648 34.0018 37.4978 34.0018 35.4713 34.0018C35.4233 33.7546 35.3754 33.5075 35.3259 33.2529C36.0455 33.1046 36.0455 33.1046 36.7797 32.9533C36.9186 32.2378 36.9365 32.0923 36.7167 31.459C36.6703 31.3216 36.6239 31.1841 36.5761 31.0425C36.5264 30.9007 36.4766 30.759 36.4253 30.613C36.328 30.3304 36.2313 30.0477 36.1352 29.7647C36.0916 29.64 36.048 29.5153 36.0032 29.3869C35.9074 29.059 35.9074 29.059 35.9074 28.6097C34.6601 28.6591 33.4128 28.7086 32.1277 28.7595C31.9358 29.3125 31.7439 29.8654 31.5462 30.4352C31.4551 30.6947 31.4551 30.6947 31.3622 30.9595C31.315 31.0975 31.2678 31.2355 31.2191 31.3777C31.146 31.5883 31.146 31.5883 31.0715 31.8032C30.9327 32.2555 30.9327 32.2555 30.9647 32.9533C31.4444 33.0522 31.9242 33.151 32.4185 33.2529C32.4664 33.4012 32.5144 33.5494 32.5638 33.7022C32.5159 33.8011 32.4679 33.8999 32.4185 34.0018C30.8353 34.0018 29.2522 34.0018 27.6211 34.0018C27.6211 33.8041 27.6211 33.6064 27.6211 33.4027C27.7526 33.3508 27.7526 33.3508 27.8869 33.2979C28.003 33.2491 28.1192 33.2002 28.2389 33.1499C28.3536 33.103 28.4683 33.0561 28.5865 33.0077C29.3326 32.5636 29.6425 31.821 29.9692 31.0302C30.0118 30.9275 30.0544 30.8249 30.0983 30.7192C30.725 29.1977 31.3201 27.6624 31.9187 26.129C32.0397 25.8198 32.1608 25.5105 32.2819 25.2013C32.4003 24.8988 32.5187 24.5962 32.6371 24.2936C32.6941 24.148 32.7511 24.0024 32.8098 23.8525C33.0626 23.2058 33.3142 22.5588 33.5604 21.9095C33.6005 21.8042 33.6406 21.699 33.6819 21.5905C33.7859 21.317 33.889 21.0431 33.992 20.7691C34.1629 20.3718 34.1629 20.3718 34.4537 20.0723ZM34.0176 23.2176C33.7892 23.8305 33.5615 24.4436 33.3344 25.057C33.257 25.2657 33.1794 25.4743 33.1017 25.6829C32.9901 25.9823 32.8791 26.2821 32.7683 26.5818C32.7013 26.7622 32.6343 26.9426 32.5652 27.1285C32.4025 27.532 32.4025 27.532 32.4185 27.8608C33.4739 27.8608 34.5293 27.8608 35.6167 27.8608C35.137 26.3286 34.6572 24.7963 34.1629 23.2176C34.115 23.2176 34.067 23.2176 34.0176 23.2176Z" fill="#116967" />
<path d="M52.0372 20.2227C52.2873 20.2389 52.2873 20.2389 52.5426 20.2554C56.3354 20.4775 60.1665 20.4684 63.9579 20.2227C64.0598 20.734 64.159 21.2459 64.2577 21.7579C64.2866 21.9029 64.3156 22.0479 64.3454 22.1973C64.3721 22.3373 64.3988 22.4773 64.4263 22.6215C64.4515 22.7501 64.4766 22.8787 64.5025 23.0113C64.5402 23.3758 64.5031 23.621 64.394 23.9671C64.2021 23.9671 64.0102 23.9671 63.8125 23.9671C63.7596 23.8342 63.7596 23.8342 63.7057 23.6986C63.233 22.5014 63.233 22.5014 62.3042 21.683C61.5247 21.4535 60.7872 21.4037 59.9782 21.4115C59.7972 21.4129 59.6162 21.4142 59.4297 21.4156C59.2929 21.4174 59.1561 21.4191 59.0151 21.4209C59.024 22.8583 59.0352 24.2957 59.0494 25.733C59.0559 26.4004 59.0616 27.0678 59.0655 27.7352C59.0693 28.3791 59.0751 29.023 59.0825 29.6669C59.0849 29.9127 59.0866 30.1586 59.0875 30.4044C59.0889 30.7484 59.0929 31.0922 59.0976 31.4361C59.1001 31.73 59.1001 31.73 59.1025 32.0298C59.122 32.4984 59.122 32.4984 59.3619 32.7892C59.6617 32.9996 59.9226 33.0628 60.2781 33.1318C60.4543 33.1674 60.4543 33.1674 60.6341 33.2038C60.7235 33.2202 60.8129 33.2366 60.905 33.2535C60.953 33.5006 61.0009 33.7478 61.0504 34.0024C59.0355 34.0024 57.0206 34.0024 54.9446 34.0024C54.8967 33.8047 54.8487 33.607 54.7993 33.4033C54.9837 33.343 54.9837 33.343 55.1718 33.2816C55.3367 33.2229 55.5016 33.1642 55.6715 33.1037C55.8098 33.0548 55.8098 33.0548 55.9509 33.0048C56.2632 32.8891 56.2632 32.8891 56.6891 32.6544C56.8941 32.1413 56.853 31.5905 56.8533 31.0433C56.8536 30.9429 56.8538 30.8425 56.8541 30.739C56.8547 30.4082 56.8543 30.0774 56.8538 29.7465C56.8539 29.5164 56.8541 29.2863 56.8542 29.0561C56.8545 28.5744 56.8541 28.0927 56.8535 27.611C56.8526 26.9928 56.8531 26.3747 56.854 25.7565C56.8545 25.2816 56.8543 24.8067 56.854 24.3318C56.8539 24.1038 56.854 23.8758 56.8543 23.6478C56.8547 23.3297 56.8541 23.0117 56.8533 22.6937C56.8532 22.5125 56.8531 22.3314 56.853 22.1448C56.8628 21.728 56.8628 21.728 56.6891 21.4209C55.1233 21.3536 53.8828 21.4395 52.6187 22.4694C52.2139 22.934 51.9013 23.4258 51.601 23.9671C51.4091 23.9177 51.2172 23.8683 51.0195 23.8174C51.1234 23.3752 51.2425 22.94 51.3699 22.5045C51.4088 22.3712 51.4477 22.238 51.4877 22.1008C51.5281 21.9629 51.5685 21.825 51.6101 21.683C51.6511 21.5428 51.692 21.4027 51.7342 21.2582C51.8351 20.913 51.9361 20.5678 52.0372 20.2227Z" fill="#116967" />
<path d="M42.445 20.3535C42.7026 20.3535 42.9602 20.3544 43.2179 20.3559C43.3532 20.3561 43.4885 20.3563 43.6279 20.3565C44.0619 20.3574 44.496 20.3593 44.93 20.3612C45.2235 20.3619 45.517 20.3626 45.8105 20.3632C46.5316 20.3649 47.2527 20.3674 47.9738 20.3705C48.0457 20.5929 48.0457 20.5929 48.1191 20.8199C48.0712 20.9187 48.0232 21.0176 47.9738 21.1194C47.6887 21.2037 47.6887 21.2037 47.3377 21.2692C46.858 21.3594 46.6488 21.4304 46.2293 21.7185C46.0259 22.2406 46.0664 22.793 46.0674 23.3481C46.0674 23.4505 46.0673 23.5528 46.0673 23.6583C46.0674 23.9954 46.0686 24.3325 46.0697 24.6697C46.07 24.9039 46.0702 25.1381 46.0703 25.3723C46.0709 25.9879 46.0723 26.6035 46.0739 27.219C46.0754 27.8475 46.0761 28.476 46.0768 29.1046C46.0783 30.3371 46.0808 31.5697 46.0839 32.8022C46.7105 32.9708 47.2918 32.9851 47.9374 32.9895C48.0499 32.9926 48.1623 32.9956 48.2781 32.9988C49.3268 33.0061 50.2871 32.7638 51.0965 32.0241C51.6038 31.4033 51.9626 30.6681 52.335 29.9564C52.6228 30.0306 52.6228 30.0306 52.9165 30.1062C52.7574 31.4179 52.4679 32.7101 52.1896 34.0005C48.7835 34.0005 45.3774 34.0005 41.868 34.0005C41.8201 33.8522 41.7721 33.7039 41.7227 33.5511C41.7946 33.4029 41.7946 33.4029 41.868 33.2516C42.2728 33.1237 42.6814 33.0309 43.0941 32.9339C43.5133 32.8294 43.5133 32.8294 43.7579 32.3529C43.8004 31.871 43.8004 31.871 43.7909 31.3119C43.791 31.1541 43.791 31.1541 43.791 30.993C43.7908 30.6453 43.7886 30.2977 43.7863 29.95C43.7857 29.7088 43.7853 29.4677 43.785 29.2266C43.7839 28.592 43.7811 27.9575 43.7779 27.3229C43.7749 26.6754 43.7736 26.0278 43.7721 25.3802C43.769 24.1097 43.7639 22.8393 43.7579 21.5688C43.1342 21.4205 42.5106 21.2722 41.868 21.1194C41.8201 20.9217 41.7721 20.724 41.7227 20.5203C41.868 20.3705 41.868 20.3705 42.445 20.3535Z" fill="#116967" />
</g>
<defs>
<clipPath id="clip0_5892_11177">
<rect width="80.1013" height="34" fill="white" />
</clipPath>
</defs>
</svg>