<svg xmlns="http://www.w3.org/2000/svg" width="72.0" height="72.0" viewBox="0.0 0.0 72.0 72.0" fill="none">
<rect width="72" height="72" fill="white" />
<g clip-path="url(#clip0_5959_4321)">
<path d="M35.9213 62.0001C29.3737 62.0001 22.829 62.0086 16.2814 61.9944C13.6993 61.9888 11.5774 60.2191 11.086 57.7193C10.9269 56.9154 10.9979 56.1172 11.2223 55.3361C12.5574 50.7087 13.901 46.0814 15.2389 41.4541C15.4179 40.8348 15.6678 40.2468 16.111 39.7696C16.3808 39.4799 16.4178 39.2356 16.1735 38.9061C15.4804 37.9715 15.29 36.8779 15.2872 35.753C15.2758 28.9952 15.2702 22.2346 15.2872 15.4768C15.2957 12.2811 17.5142 10.02 20.6616 10.0115C28.5301 9.9916 36.4014 10.0001 44.2698 10.0058C45.3095 10.0058 45.9287 10.4177 46.1958 11.2443C46.4372 11.9914 46.1787 12.7896 45.5396 13.2611C45.0737 13.6048 44.5312 13.6219 43.9829 13.6219C36.3502 13.6219 28.7147 13.6219 21.082 13.6219C20.7071 13.6219 20.3179 13.5594 19.9628 13.7213C19.2214 14.0593 18.8777 14.6331 18.8806 15.4654C18.8948 19.3656 18.8862 23.2629 18.8862 27.163C18.8862 29.9979 18.8834 32.8357 18.8862 35.6706C18.8862 37.0256 19.5197 37.6533 20.8832 37.6533C30.9275 37.6533 40.9719 37.6533 51.0163 37.6533C52.3883 37.6533 52.9962 37.0369 53.0075 35.6649C53.0132 34.9548 52.9876 34.2446 53.0189 33.5373C53.07 32.3528 53.8313 31.5631 54.8511 31.5943C55.868 31.6256 56.6151 32.4522 56.6236 33.6027C56.6378 35.3468 56.7997 37.1136 55.8765 38.7243C55.726 38.9856 55.885 39.1645 56.047 39.3492C56.7372 40.1304 57.1264 41.0507 57.3764 42.0563C58.4643 46.4336 59.575 50.8025 60.6629 55.177C61.5975 58.9323 59.2114 61.9916 55.3482 61.9944C48.8716 62.0001 42.3979 61.9944 35.9213 61.9944V62.0001Z" fill="url(#paint0_angular_5959_4321)" />
<path d="M60.876 20.4198C60.8788 21.3174 60.3249 21.9878 59.3052 22.2548C58.416 22.4878 57.5099 22.661 56.6208 22.8911C54.6863 23.3939 53.4961 24.6722 52.9564 26.5583C52.7093 27.419 52.5531 28.3025 52.3514 29.1774C52.1071 30.2426 51.4367 30.8647 50.5419 30.859C49.5903 30.8533 48.9995 30.3193 48.7268 29.2001C48.5222 28.3508 48.3546 27.4929 48.1274 26.6521C47.5934 24.6637 46.352 23.3627 44.3324 22.857C43.4631 22.6412 42.5797 22.4764 41.7162 22.2378C40.3328 21.8515 39.8016 20.5732 40.5174 19.4313C40.8924 18.8348 41.5287 18.6956 42.1451 18.5393C43.037 18.3149 43.9489 18.1644 44.8209 17.8803C46.4344 17.3548 47.4996 16.2242 48.0053 14.6165C48.3092 13.6507 48.4882 12.6479 48.7381 11.6651C49.0023 10.6141 49.6471 10.0175 50.5021 10.0147C51.4282 10.009 52.0673 10.5743 52.3372 11.6651C52.5474 12.5116 52.7263 13.3666 52.9365 14.2131C53.4535 16.2924 54.7943 17.548 56.8452 18.0735C57.7826 18.3121 58.7314 18.5052 59.6545 18.7865C60.4442 19.0279 60.876 19.6699 60.8788 20.4198H60.876Z" fill="#E7ABAF" />
</g>
<defs>
<radialGradient id="paint0_angular_5959_4321" cx="0" cy="0" r="1" gradientUnits="userSpaceOnUse" gradientTransform="translate(36.0454 44.7083) rotate(89.6412) scale(28.2383 39.6879)">
<stop stop-color="#EE4136" />
<stop offset="1" stop-color="#941209" />
</radialGradient>
<clipPath id="clip0_5959_4321">
<rect width="49.8752" height="52" fill="white" transform="translate(11 10)" />
</clipPath>
</defs>
</svg>