<svg xmlns="http://www.w3.org/2000/svg" width="32.0" height="32.0" viewBox="0.0 0.0 32.0 32.0" fill="none">
<path d="M15.9732 20.4961C12.5396 20.4961 9.10745 20.4961 5.67385 20.4961C4.57386 20.4961 4.0011 19.9278 4.0011 18.8278C3.99963 14.7965 3.99963 10.7651 4.0011 6.73382C4.0011 5.61621 4.60029 5.0038 5.71937 5.00233C12.5851 4.99792 19.4523 4.99792 26.3181 5.00233C27.3608 5.00233 27.8939 5.509 27.9908 6.53996C27.9967 6.60017 27.9996 6.66186 27.9996 6.72354C27.9996 10.7299 28.0026 14.7377 27.9967 18.7441C27.9967 19.1582 27.9541 19.5739 27.6663 19.9175C27.3299 20.3214 26.9129 20.5006 26.3842 20.4991C22.9138 20.4903 19.445 20.4947 15.9747 20.4947L15.9732 20.4961ZM17.8604 16.1094H17.8662C17.8662 15.7672 17.875 15.425 17.8633 15.0829C17.8545 14.8126 17.969 14.7172 18.2349 14.723C18.8458 14.7348 19.4567 14.7377 20.0677 14.723C21.0972 14.6996 21.7272 14.0548 21.739 13.0297C21.7404 12.8711 21.7419 12.7125 21.739 12.5539C21.7228 11.5406 21.0928 10.9076 20.0838 10.8959C19.4729 10.8885 18.862 10.8841 18.251 10.8988C17.9661 10.9061 17.856 10.8033 17.8618 10.517C17.8736 9.89426 17.8706 9.2701 17.8618 8.64741C17.8501 7.65023 17.2333 7.03194 16.2331 7.00992C16.0745 7.00698 15.9159 7.00698 15.7573 7.00992C14.7396 7.0246 14.1095 7.64582 14.0948 8.65916C14.086 9.23339 14.0948 9.80761 14.0934 10.3818C14.0934 10.7226 13.9279 10.8934 13.597 10.8944C13.0345 10.8944 12.4735 10.8914 11.911 10.8944C10.8918 10.9032 10.2779 11.5171 10.2588 12.5422C10.2559 12.7008 10.2559 12.8594 10.2588 13.018C10.2721 14.096 10.8903 14.7142 11.9742 14.7245C12.5602 14.7304 13.1476 14.7348 13.7336 14.7216C14.0009 14.7157 14.1037 14.8082 14.0978 15.0814C14.0846 15.7158 14.086 16.3517 14.0978 16.9876C14.1139 17.8424 14.603 18.4137 15.4401 18.5693C15.841 18.6442 16.242 18.6325 16.6414 18.5488C17.339 18.4034 17.8281 17.8438 17.8589 17.1345C17.8736 16.7938 17.8618 16.4501 17.8618 16.1079L17.8604 16.1094ZM5.90589 8.26558C5.90589 7.72807 5.90442 7.19055 5.90589 6.65451C5.90736 6.3461 5.7928 6.10525 5.46384 6.09204C5.14515 6.08029 5.01297 6.32848 5.01004 6.60605C4.99829 7.72953 4.99682 8.85302 5.01004 9.97504C5.01297 10.2511 5.14368 10.489 5.47265 10.4758C5.79134 10.4626 5.90442 10.2453 5.90442 9.95007C5.90442 9.38906 5.90442 8.82658 5.90442 8.26558H5.90589ZM5.90148 13.3102C5.90148 13.0547 5.91176 12.7992 5.89854 12.5436C5.88533 12.2808 5.73847 12.0986 5.47265 12.0796C5.21123 12.0619 5.05556 12.2484 5.0306 12.4805C4.97479 13.0239 4.96745 13.5731 5.03647 14.1165C5.06584 14.3471 5.20683 14.5248 5.48293 14.5042C5.76784 14.4837 5.88386 14.2942 5.89854 14.0372C5.91176 13.7949 5.90148 13.5511 5.90148 13.3073V13.3102Z" fill="url(#paint0_angular_5892_11173)" />
<path d="M18.7255 13.7508C18.2981 13.7508 17.8693 13.7728 17.4434 13.7449C17.0894 13.7214 17.0087 13.8639 17.016 14.1884C17.0351 15.0432 17.0248 15.8979 17.0219 16.7526C17.0204 17.365 16.7942 17.5941 16.1862 17.6118C16.0893 17.6147 15.9909 17.6147 15.8925 17.6118C15.2639 17.5912 15.029 17.3665 15.0216 16.738C15.0099 15.895 15.0055 15.052 15.0246 14.2105C15.0319 13.8683 14.9379 13.7346 14.5737 13.7449C13.7322 13.7684 12.8892 13.7552 12.0462 13.7508C11.4882 13.7479 11.2708 13.5496 11.2165 13.0003C11.2032 12.8667 11.2032 12.7316 11.2091 12.5979C11.2326 11.9929 11.4573 11.7594 12.0683 11.7506C12.9112 11.7373 13.7542 11.7359 14.5957 11.7506C14.9115 11.7564 15.029 11.6478 15.0231 11.3276C15.0069 10.5213 15.0143 9.71653 15.0202 8.91027C15.0231 8.55339 15.0172 8.151 15.4167 8.0012C15.8426 7.84259 16.3023 7.82643 16.7281 8.04085C16.994 8.17449 17.0233 8.43884 17.0219 8.70466C17.0219 9.57114 17.0351 10.4391 17.0145 11.3056C17.0072 11.6389 17.107 11.7594 17.4492 11.752C18.279 11.7329 19.1102 11.7417 19.94 11.7476C20.6288 11.752 20.8329 11.9635 20.8329 12.6508C20.8329 12.7845 20.8373 12.9196 20.83 13.0532C20.8065 13.5188 20.5832 13.742 20.1148 13.7508C19.6507 13.7596 19.1866 13.7523 18.7225 13.7537L18.7255 13.7508Z" fill="#E7ABAF" />
<path d="M4 23.5002C4 22.6718 4.67157 22.0002 5.5 22.0002H26.5C27.3284 22.0002 28 22.6718 28 23.5002C28 24.3286 27.3284 25.0002 26.5 25.0002H5.5C4.67157 25.0002 4 24.3286 4 23.5002Z" fill="url(#paint1_angular_5892_11173)" />
<defs>
<radialGradient id="paint0_angular_5892_11173" cx="0" cy="0" r="1" gradientUnits="userSpaceOnUse" gradientTransform="translate(16.0544 18.3486) rotate(89.551) scale(10.8609 19.1016)">
<stop stop-color="#EE4136" />
<stop offset="1" stop-color="#941209" />
</radialGradient>
<radialGradient id="paint1_angular_5892_11173" cx="0" cy="0" r="1" gradientUnits="userSpaceOnUse" gradientTransform="translate(16.0544 18.3486) rotate(89.551) scale(10.8609 19.1016)">
<stop stop-color="#EE4136" />
<stop offset="1" stop-color="#941209" />
</radialGradient>
</defs>
</svg>