<svg xmlns="http://www.w3.org/2000/svg" width="109.0" height="14.0" viewBox="0.0 0.0 109.0 14.0" fill="none">
<g style="mix-blend-mode:luminosity">
<path d="M91.1495 4.17316C91.8086 4.39288 91.8999 4.2951 92.504 4.00385C93.9156 3.41211 95.3284 3.44349 96.7587 3.98339C97.5575 4.41573 98.0215 5.15741 98.3736 5.97918C98.417 6.34031 98.417 6.34031 98.4146 6.72434C98.4146 6.86892 98.4145 7.0135 98.4145 7.16246C98.4126 7.31674 98.4108 7.47103 98.4089 7.63C98.4083 7.78932 98.4078 7.94865 98.4073 8.1128C98.4053 8.62068 98.4008 9.12851 98.3962 9.63637C98.3943 9.98112 98.3927 10.3259 98.3912 10.6706C98.3872 11.5148 98.381 12.359 98.3736 13.2033C97.9975 13.2228 97.6212 13.2368 97.2448 13.2484C97.0353 13.2568 96.8258 13.2652 96.6099 13.2738C96.0258 13.2033 96.0258 13.2033 95.5944 12.9243C95.204 12.3296 95.201 11.8081 95.206 11.1193C95.2039 10.9889 95.2017 10.8585 95.1995 10.7241C95.1932 10.3088 95.1915 9.89369 95.1905 9.47835C95.1875 9.06177 95.1836 8.64526 95.1775 8.22871C95.174 7.96985 95.1723 7.71095 95.1727 7.45206C95.1853 6.72514 95.1853 6.72514 94.7615 6.15979C94.0378 6.11958 93.4814 6.16377 92.7749 6.34039C92.7749 8.60514 92.7749 10.8699 92.7749 13.2033C92.0001 13.2033 91.2254 13.2033 90.4271 13.2033C89.8454 12.6216 89.8224 12.485 89.8103 11.7053C89.8108 11.5794 89.8114 11.4536 89.8119 11.3239C89.81 11.1936 89.808 11.0634 89.806 10.9292C89.7977 10.3725 89.7956 9.8158 89.793 9.25903C89.7901 8.85236 89.7842 8.44581 89.7781 8.03918C89.7786 7.91331 89.7791 7.78744 89.7797 7.65776C89.7717 7.14302 89.76 6.78424 89.4694 6.34991C88.9618 6.03508 88.478 6.11765 87.8987 6.15979C87.7199 6.24918 87.7199 6.24918 87.5375 6.34039C87.4779 8.60514 87.4183 10.8699 87.3569 13.2033C85.009 13.2033 85.009 13.2033 84.4672 12.8421C84.1066 11.7601 84.2311 10.5124 84.2234 9.37685C84.2204 9.05383 84.2155 8.73083 84.2086 8.40788C84.1987 7.94111 84.1947 7.47462 84.1921 7.00777C84.188 6.86401 84.1839 6.72026 84.1797 6.57214C84.1826 5.80066 84.216 5.52441 84.7204 4.90271C85.1172 4.59124 85.4687 4.34133 85.9233 4.12801C86.0409 4.07121 86.1585 4.0144 86.2796 3.95588C87.8799 3.30685 89.5899 3.53409 91.1495 4.17316Z" fill="#62B9AF" />
<path d="M46.0213 4.04001C46.7293 4.3391 46.7293 4.3391 47.4562 4.21637C47.5808 4.14723 47.7053 4.07809 47.8336 4.00685C49.0673 3.42345 50.2958 3.47404 51.5924 3.84882C52.5448 4.21446 53.063 4.73521 53.5316 5.64364C53.8458 6.40515 53.8545 7.10753 53.8415 7.92224C53.8411 8.06835 53.8408 8.21445 53.8405 8.36498C53.8392 8.67127 53.8367 8.97755 53.833 9.28381C53.8273 9.75463 53.8256 10.2253 53.8245 10.6962C53.8229 10.9944 53.821 11.2925 53.8189 11.5907C53.8181 11.732 53.8174 11.8733 53.8166 12.0188C53.8034 13.0045 53.8034 13.0045 53.6016 13.2063C53.2525 13.2337 52.9021 13.2463 52.5519 13.2514C52.3607 13.2561 52.1696 13.2607 51.9727 13.2655C51.3461 13.1965 51.144 13.1193 50.712 12.6645C50.6415 12.1942 50.6155 11.797 50.621 11.3269C50.6193 11.1966 50.6176 11.0664 50.6158 10.9322C50.6106 10.5163 50.6101 10.1005 50.6104 9.68452C50.6097 9.26857 50.608 8.85275 50.603 8.43682C50.6 8.17815 50.5995 7.91943 50.6018 7.66075C50.5963 7.14562 50.587 6.78789 50.2965 6.35291C49.7886 6.03829 49.3049 6.12064 48.7254 6.16278C48.6062 6.22238 48.487 6.28198 48.3642 6.34339C48.3046 8.60814 48.245 10.8729 48.1836 13.2063C45.8357 13.2063 45.8357 13.2063 45.2939 12.8451C45.0799 12.203 45.0843 11.6763 45.0752 10.9988C45.0702 10.7389 45.065 10.4789 45.0597 10.2189C45.0522 9.8095 45.0456 9.40011 45.0408 8.99064C45.0359 8.59516 45.0276 8.19985 45.0188 7.80443C45.0152 7.56765 45.0116 7.33087 45.0079 7.08692C44.9831 6.90115 44.9583 6.71538 44.9327 6.52399C44.2702 6.08228 43.9083 6.12015 43.1267 6.16278C42.9479 6.25218 42.9479 6.25218 42.7655 6.34339C42.7059 8.60814 42.6463 10.8729 42.5849 13.2063C41.8101 13.2063 41.0353 13.2063 40.2371 13.2063C39.6272 12.5964 39.6272 12.5964 39.6166 11.9376C39.6131 11.7923 39.6096 11.647 39.6061 11.4973C39.6055 11.3409 39.6049 11.1846 39.6043 11.0235C39.6025 10.8621 39.6006 10.7006 39.5988 10.5343C39.596 10.1927 39.5948 9.85114 39.5949 9.50957C39.5937 8.98774 39.5838 8.46654 39.5736 7.94482C39.572 7.61278 39.5709 7.28073 39.5704 6.94869C39.5665 6.79308 39.5626 6.63747 39.5586 6.47715C39.5706 5.41833 39.5706 5.41833 39.9284 4.96317C41.6583 3.48648 43.9472 3.23752 46.0213 4.04001Z" fill="#62B9AF" />
<path d="M4.83703 0.87015C5.11221 0.865785 5.11221 0.865785 5.39295 0.861331C7.04991 0.860269 8.57821 1.1199 9.89389 2.1908C10.7585 3.06266 11.1696 3.821 11.2145 5.04657C11.1806 6.39258 10.7709 7.41884 9.85932 8.41452C8.72281 9.38166 7.31261 9.62269 5.86421 9.60677C5.57471 9.60433 5.57471 9.60433 5.27937 9.60183C5.1334 9.59974 4.98743 9.59764 4.83703 9.59548C4.83845 9.74999 4.83845 9.74999 4.8399 9.90761C4.84364 10.3717 4.846 10.8358 4.84832 11.2999C4.84983 11.4621 4.85135 11.6242 4.85291 11.7913C4.85378 12.0226 4.85378 12.0226 4.85467 12.2587C4.85609 12.4729 4.85609 12.4729 4.85754 12.6914C4.83703 13.0269 4.83703 13.0269 4.65643 13.2075C4.27316 13.2302 3.88903 13.2393 3.50509 13.2414C3.19011 13.2452 3.19011 13.2452 2.86875 13.2491C2.3086 13.2075 2.3086 13.2075 1.7668 12.8463C1.59195 12.3218 1.56426 11.9924 1.56569 11.4472C1.56571 11.187 1.56571 11.187 1.56574 10.9214C1.56667 10.7346 1.5676 10.5478 1.56856 10.3553C1.56882 10.1636 1.56907 9.97199 1.56933 9.77453C1.57035 9.16175 1.57261 8.54898 1.57491 7.9362C1.57581 7.52103 1.57664 7.10586 1.57738 6.69068C1.57937 5.67233 1.58239 4.65397 1.5862 3.63562C1.16901 3.63562 0.751815 3.63562 0.321983 3.63562C0.0427955 3.07724 0.0883566 2.62528 0.141381 2.0102C0.432228 1.52105 0.683346 1.34056 1.22896 1.181C2.43892 0.930809 3.60335 0.866236 4.83703 0.87015Z" fill="#63B9AF" />
<path d="M11.8728 0.565547C12.2189 0.555752 12.565 0.548769 12.9112 0.542972C13.2004 0.536686 13.2004 0.536686 13.4954 0.530273C14.031 0.564965 14.3203 0.631326 14.7624 0.926751C15.0392 1.48036 14.9615 2.05868 14.9543 2.66505C14.9535 2.79262 14.9526 2.9202 14.9518 3.05165C14.9497 3.36677 14.9464 3.68188 14.943 3.99699C15.0724 3.93855 15.2019 3.88012 15.3352 3.81991C16.5345 3.3876 17.9148 3.53011 19.0954 3.97653C20.0306 4.49506 20.5808 5.3461 20.9029 6.34481C20.9349 6.8656 20.9493 7.36811 20.9445 7.8884C20.9444 8.03501 20.9443 8.18162 20.9442 8.33268C20.9437 8.64112 20.9423 8.94956 20.94 9.25799C20.9367 9.732 20.9363 10.2059 20.9364 10.68C20.9355 10.9798 20.9344 11.2796 20.9332 11.5794C20.933 11.7219 20.9328 11.8643 20.9326 12.011C20.9238 13.0061 20.9238 13.0061 20.7223 13.2077C20.3392 13.2351 19.955 13.2478 19.5709 13.2528C19.2559 13.2598 19.2559 13.2598 18.9346 13.2669C18.3744 13.2077 18.3744 13.2077 18.0727 13.0138C17.7045 12.4802 17.766 12.0156 17.7656 11.3742C17.7625 11.1158 17.7593 10.8575 17.7561 10.5992C17.7543 10.193 17.7536 9.78676 17.7539 9.38052C17.7533 8.98771 17.7483 8.59511 17.743 8.20233C17.7427 7.96744 17.7424 7.73256 17.742 7.49055C17.6382 6.79411 17.4858 6.58077 16.9296 6.16421C16.3175 6.03833 15.6888 6.06222 15.1236 6.34481C15.1191 6.54629 15.1145 6.74777 15.1099 6.95536C15.0929 7.70022 15.0748 8.44504 15.0564 9.18987C15.0485 9.51273 15.041 9.83561 15.0338 10.1585C15.0234 10.6216 15.0119 11.0846 15.0001 11.5477C14.9956 11.7656 14.9956 11.7656 14.991 11.9878C14.9636 13.0065 14.9636 13.0065 14.7624 13.2077C14.4134 13.2399 14.063 13.2561 13.7126 13.2641C13.5215 13.2709 13.3304 13.2776 13.1334 13.2846C12.4544 13.1876 12.2888 13.0229 11.8728 12.4853C11.7859 11.9459 11.7859 11.9459 11.7907 11.3091C11.7906 11.1345 11.7906 11.1345 11.7904 10.9565C11.7909 10.5733 11.7965 10.1904 11.8022 9.80729C11.8036 9.54108 11.8046 9.27487 11.8053 9.00866C11.8081 8.3091 11.8152 7.60965 11.8232 6.91014C11.8306 6.1959 11.8338 5.48164 11.8375 4.76737C11.8452 3.36671 11.8575 1.96614 11.8728 0.565547Z" fill="#63B9AF" />
<path d="M62.5355 4.58431C63.6622 5.82368 63.6247 7.08896 63.6193 8.70579C63.6191 9.07733 63.6266 9.44821 63.6346 9.81965C63.6353 10.1734 63.6353 10.1734 63.636 10.5343C63.6373 10.7485 63.6386 10.9627 63.6399 11.1834C63.4963 11.9327 63.2097 12.1907 62.6258 12.6662C60.9206 13.5188 58.8645 13.6863 57.0038 13.2588C55.9145 12.8562 55.3587 12.3678 54.8147 11.3343C54.5571 10.4324 54.5963 9.80012 54.9502 8.93004C55.4198 8.19808 56.0436 7.90081 56.8465 7.60939C57.4764 7.48352 58.1026 7.42831 58.7428 7.38364C58.9086 7.36967 59.0744 7.3557 59.2451 7.34131C59.6495 7.30762 60.0538 7.27663 60.4586 7.24819C60.2533 6.58526 60.2533 6.58526 59.7721 6.11096C58.5789 5.72946 57.2602 5.95685 56.0839 6.30144C55.978 6.31587 55.872 6.33031 55.7629 6.34518C55.4017 5.98397 55.4017 5.98397 55.334 5.27285C55.356 4.59629 55.356 4.59629 55.6726 4.20053C57.7047 3.28609 60.6783 3.20169 62.5355 4.58431Z" fill="#64BAB0" />
<path d="M29.3642 4.35402C30.1328 4.90887 30.4489 5.62153 30.6581 6.5156C30.7394 7.40086 30.7419 8.27971 30.7371 9.16819C30.7425 9.52177 30.7425 9.52177 30.748 9.88249C30.7479 10.1094 30.7478 10.3362 30.7477 10.57C30.7482 10.8782 30.7482 10.8782 30.7487 11.1927C30.6391 11.8703 30.4087 12.1681 29.9357 12.6561C29.5745 12.8564 29.5745 12.8564 29.2132 12.9721C29.0941 13.0122 28.9749 13.0522 28.852 13.0935C28.7328 13.1279 28.6137 13.1624 28.4908 13.1979C28.387 13.2312 28.2832 13.2645 28.1762 13.2988C26.4754 13.6313 24.3809 13.6126 22.8922 12.6561C22.1651 11.9113 21.9526 11.3906 21.9102 10.3647C21.9217 9.62471 21.9526 9.09617 22.3955 8.49094C23.6913 7.24374 25.9029 7.31682 27.5878 7.23801C27.5282 6.88042 27.4686 6.52283 27.4072 6.1544C25.9832 5.83425 24.612 5.88147 23.2132 6.29126C23.1072 6.30569 23.0013 6.32013 22.8922 6.335C22.531 5.9738 22.531 5.9738 22.4632 5.26268C22.4841 4.58526 22.4841 4.58526 22.8132 4.19035C24.8116 3.26798 27.4249 3.2647 29.3642 4.35402Z" fill="#63B9AF" />
<path d="M81.4569 4.32078C82.1209 4.86125 82.5729 5.3434 82.8453 6.16066C82.8905 6.95459 82.8942 7.7489 82.8986 8.54394C82.9007 8.80563 82.9044 9.06731 82.9097 9.32896C82.9175 9.70785 82.9204 10.0865 82.9222 10.4655C82.9248 10.6919 82.9275 10.9182 82.9302 11.1515C82.8298 11.8707 82.6349 12.1566 82.1229 12.6623C80.4073 13.5357 78.2809 13.6578 76.3951 13.2888C75.573 12.9984 74.8081 12.5516 74.338 11.8024C73.9851 10.9194 73.96 9.74941 74.3281 8.86758C75.1759 7.73428 76.5226 7.58814 77.8223 7.39101C78.5401 7.29367 79.2312 7.22654 79.9557 7.24427C79.7596 6.58742 79.7596 6.58742 79.277 6.13385C77.9708 5.63777 76.392 6.02238 75.0794 6.34126C74.6591 5.71074 74.6274 5.45772 74.7182 4.71585C75.1268 4.12754 75.5909 3.85674 76.2872 3.68867C78.0287 3.45334 79.8918 3.4644 81.4569 4.32078Z" fill="#63B9AF" />
<path d="M106.752 4.32769C107.343 4.80884 107.798 5.30295 108.14 5.98697C108.195 6.82774 108.204 7.66855 108.213 8.51095C108.217 8.79142 108.223 9.07186 108.232 9.35223C108.244 9.75746 108.249 10.1622 108.252 10.5676C108.257 10.6922 108.262 10.8168 108.267 10.9451C108.265 11.4474 108.235 11.8338 107.905 12.2258C106.377 13.5246 104.438 13.5536 102.525 13.429C101.455 13.3129 100.677 12.85 99.9113 12.1162C99.368 11.4139 99.3374 10.7536 99.3885 9.88614C99.5362 9.04954 99.8975 8.55523 100.57 8.05473C101.272 7.7057 101.951 7.60279 102.722 7.48823C102.937 7.45313 102.937 7.45313 103.156 7.41733C103.86 7.30645 104.535 7.22092 105.25 7.25119C105.054 6.59434 105.054 6.59434 104.572 6.14077C103.265 5.64468 101.687 6.0293 100.374 6.34818C100.067 5.76516 99.8961 5.39009 100.013 4.72276C101.638 3.04986 104.822 3.27201 106.752 4.32769Z" fill="#62B9AF" />
<path d="M66.6144 0.557546C67.2883 0.85707 67.6771 1.1948 68.0592 1.82176C68.1256 2.33251 68.1256 2.33251 68.1236 2.92878C68.1241 3.15233 68.1246 3.37587 68.1252 3.60618C68.123 3.84925 68.1208 4.09231 68.1184 4.33537C68.1179 4.58495 68.1176 4.83454 68.1174 5.08412C68.1166 5.60622 68.114 6.12827 68.11 6.65035C68.1049 7.32085 68.1029 7.99131 68.1021 8.66183C68.1013 9.17666 68.0996 9.69149 68.0974 10.2063C68.0964 10.4537 68.0955 10.701 68.0948 10.9484C68.0936 11.293 68.091 11.6376 68.0883 11.9822C68.087 12.1785 68.0858 12.3748 68.0845 12.5771C68.0592 13.0191 68.0592 13.0191 67.8786 13.1997C67.4955 13.2271 67.1113 13.2398 66.7272 13.2448C66.4123 13.2518 66.4123 13.2518 66.0909 13.2589C65.5308 13.1997 65.5308 13.1997 65.229 12.984C64.905 12.5438 64.9218 12.2594 64.9223 11.7155C64.9211 11.5232 64.9198 11.3309 64.9186 11.1327C64.9197 10.925 64.9208 10.7173 64.9219 10.5034C64.9188 10.0648 64.9156 9.62621 64.9124 9.18764C64.9106 8.49524 64.9099 7.80286 64.9102 7.11045C64.9096 6.44287 64.9047 5.77543 64.8994 5.10787C64.9008 4.90091 64.9023 4.69394 64.9038 4.48071C64.9033 3.33832 64.9033 3.33832 64.4415 2.31621C64.2655 2.16086 64.2655 2.16086 64.0859 2.00236C64.2444 1.51383 64.396 1.15642 64.7406 0.77201C65.3603 0.462154 65.9426 0.458514 66.6144 0.557546Z" fill="#64BAB0" />
<path d="M71.8448 0.561704C72.3673 0.784048 72.6413 0.939099 72.9492 1.41406C73.1559 1.9465 73.1523 2.38123 73.1501 2.95239C73.15 3.18013 73.15 3.40787 73.15 3.64251C73.1481 3.89014 73.1462 4.13776 73.1443 4.38539C73.1436 4.63945 73.1431 4.89351 73.1428 5.14758C73.1414 5.81503 73.1379 6.48246 73.1339 7.1499C73.1301 7.83147 73.1285 8.51304 73.1267 9.19462C73.1228 10.531 73.1167 11.8674 73.109 13.2038C72.7291 13.2136 72.349 13.2206 71.969 13.2264C71.7574 13.2306 71.5458 13.2348 71.3277 13.2391C70.7612 13.2038 70.7612 13.2038 70.2194 12.8426C70.0409 12.3071 70.0144 11.9505 70.0103 11.3916C70.0085 11.2065 70.0066 11.0214 70.0047 10.8308C70.0034 10.631 70.0021 10.4312 70.0007 10.2253C69.9956 9.80321 69.9905 9.3811 69.9852 8.95899C69.9777 8.29276 69.9711 7.62655 69.9663 6.96029C69.9613 6.31781 69.9531 5.67545 69.9443 5.03302C69.9434 4.73442 69.9434 4.73442 69.9425 4.42979C69.9395 4.24359 69.9365 4.05739 69.9334 3.86554C69.932 3.70234 69.9305 3.53915 69.929 3.37101C69.844 2.81709 69.6127 2.47671 69.3164 2.00652C69.3296 1.45273 69.4155 1.20202 69.7679 0.776169C70.4557 0.449491 71.0971 0.462896 71.8448 0.561704Z" fill="#62B9AF" />
<path d="M38.6113 4.17535C38.8806 4.71393 38.8135 5.20769 38.7919 5.80077C38.4067 6.18595 37.4474 6.04467 36.904 6.05897C36.2195 6.08753 36.2195 6.08753 35.5972 6.34606C35.222 6.91296 35.2735 7.52043 35.268 8.17893C35.2648 8.32248 35.2615 8.46602 35.2582 8.61392C35.2484 9.07209 35.2423 9.53024 35.2363 9.98848C35.2303 10.2992 35.2241 10.61 35.2176 10.9208C35.2022 11.6823 35.1902 12.4438 35.1798 13.2055C34.8038 13.225 34.4275 13.239 34.0511 13.2506C33.8416 13.259 33.632 13.2674 33.4162 13.276C32.832 13.2055 32.832 13.2055 32.401 12.9316C31.9997 12.3139 32.0025 11.7547 32.0073 11.041C32.0062 10.9012 32.0051 10.7613 32.0039 10.6172C32.0026 10.3215 32.0032 10.0258 32.0055 9.7301C32.008 9.28122 32.0019 8.83304 31.995 8.38422C31.9821 5.80003 31.9821 5.80003 32.7481 4.77972C34.1836 3.46002 36.9925 3.03784 38.6113 4.17535Z" fill="#63B9AF" />
<path d="M4.64844 3.4502C6.76406 3.4502 6.76406 3.4502 7.53807 3.992C7.97035 4.56183 7.9575 5.09936 7.89927 5.79802C7.74025 6.35461 7.56542 6.50128 7.08656 6.83648C6.45446 7.06224 6.45446 7.06224 4.64844 7.06224C4.64844 5.87026 4.64844 4.67829 4.64844 3.4502Z" fill="#F6FAFA" />
<path d="M27.766 9.22981C27.766 9.8258 27.766 10.4218 27.766 11.0358C27.2374 11.212 26.8726 11.2462 26.3211 11.2503C26.0865 11.2541 26.0865 11.2541 25.8471 11.2581C25.4181 11.2164 25.4181 11.2164 24.8763 10.8552C24.786 10.3247 24.786 10.3247 24.8763 9.77162C25.6365 8.98521 26.7535 9.18194 27.766 9.22981Z" fill="#F6FBFA" />
<path d="M79.9643 9.22365C79.9643 9.81964 79.9643 10.4156 79.9643 11.0297C79.4396 11.2046 79.0674 11.2456 78.5195 11.2554C78.2848 11.2624 78.2848 11.2624 78.0454 11.2695C77.6165 11.2103 77.6165 11.2103 77.2948 10.9648C77.0747 10.6685 77.0747 10.6685 76.9844 10.217C77.0747 9.76546 77.0747 9.76546 77.402 9.43811C78.2513 9.12171 79.0679 9.18126 79.9643 9.22365Z" fill="#F8FBFB" />
<path d="M105.264 9.23072C105.264 9.82671 105.264 10.4227 105.264 11.0367C104.739 11.2116 104.367 11.2527 103.819 11.2625C103.584 11.2695 103.584 11.2695 103.345 11.2766C102.916 11.2173 102.916 11.2173 102.585 10.9796C102.374 10.6755 102.374 10.6755 102.43 10.0999C102.471 9.93225 102.512 9.76463 102.555 9.59192C103.498 9.32704 104.285 9.18995 105.264 9.23072Z" fill="#FCFDFD" />
<path d="M60.4643 9.23168C60.4691 9.5289 60.4726 9.82615 60.4755 10.1234C60.4776 10.2889 60.4797 10.4545 60.4819 10.625C60.4643 11.0377 60.4643 11.0377 60.2837 11.2183C59.9607 11.2409 59.6367 11.25 59.3129 11.2522C59.1365 11.2547 58.96 11.2573 58.7782 11.2599C58.297 11.2183 58.297 11.2183 57.7552 10.8571C57.6649 10.3266 57.6649 10.3266 57.7552 9.77348C58.5001 9.02862 59.4837 9.18027 60.4643 9.23168Z" fill="#FAFCFC" />
</g>
</svg>