<svg xmlns="http://www.w3.org/2000/svg" width="72.0" height="72.0" viewBox="0.0 0.0 72.0 72.0" fill="none">
<rect width="72" height="72" fill="white" />
<g clip-path="url(#clip0_5959_4299)">
<path d="M11.9562 35.5362C11.9562 28.585 11.9562 21.6337 11.9595 14.6857C11.9595 14.2238 11.9824 13.7586 12.061 13.3033C12.2281 12.3369 12.8144 11.744 13.7775 11.5933C15.268 11.364 16.7684 11.5278 18.2654 11.4918C19.2449 11.4688 20.2276 11.5114 21.2071 11.4787C21.8262 11.459 22.1014 11.6523 22.2324 12.314C22.5338 13.8438 23.4346 14.915 24.9906 15.3376C26.5663 15.7667 27.8897 15.3179 28.9773 14.1288C29.4687 13.5916 29.7701 12.9364 29.8618 12.2288C29.9306 11.7211 30.1337 11.4918 30.6283 11.4951C33.0524 11.4951 35.4798 11.459 37.9039 11.518C39.2208 11.5507 39.9742 12.3959 40.0758 13.7226C40.0889 13.9126 40.0856 14.1026 40.0889 14.2959C40.0954 15.6291 40.0954 15.6226 38.7458 15.6422C37.0293 15.6652 35.5027 16.0714 34.5986 17.7256C34.1924 18.466 34.0843 19.2653 34.0843 20.0941C34.0843 24.1561 34.0876 28.2181 34.0777 32.2768C34.0777 32.6077 34.2677 33.0859 33.8943 33.2366C33.5471 33.3742 33.3047 32.932 33.0393 32.7125C31.9223 31.7985 30.8183 30.8682 29.698 29.9575C29.3278 29.6562 28.9052 29.5677 28.4958 29.8756C28.1452 30.141 28.1289 30.5308 28.2304 30.9173C28.3058 31.1958 28.5613 31.3399 28.7709 31.5135C30.1337 32.647 31.4735 33.8033 32.8624 34.904C33.4619 35.379 33.4259 35.7164 32.8722 36.1685C31.48 37.2986 30.1107 38.4615 28.7185 39.5982C28.2042 40.0175 27.9487 40.5187 28.3909 41.0724C28.8299 41.6227 29.3802 41.3999 29.8356 41.0265C30.9723 40.0962 32.0893 39.1429 33.2129 38.1962C33.416 38.0259 33.606 37.731 33.8943 37.8359C34.2219 37.9538 34.081 38.3108 34.0843 38.5598C34.0941 42.7037 34.1367 46.8476 34.0745 50.9882C34.0352 53.5794 35.7975 55.4925 38.4411 55.3385C40.102 55.2435 40.1052 55.3221 40.0954 56.96C40.0856 58.7748 39.2666 59.5709 37.3208 59.5741C31.3261 59.5872 25.3281 59.5807 19.3333 59.5807C17.833 59.5807 16.3359 59.5872 14.8356 59.5807C12.7391 59.5676 11.9627 58.8043 11.9595 56.7144C11.9529 49.655 11.9595 42.5956 11.9595 35.5362H11.9562ZM23.8638 40.3681C23.8834 40.0339 23.6214 39.7981 23.3429 39.5688C21.9605 38.4222 20.5781 37.2757 19.199 36.1292C18.5307 35.5755 18.5438 35.4707 19.2285 34.9073C20.6338 33.7509 22.0359 32.5847 23.4346 31.4185C23.9162 31.0156 24.0931 30.4849 23.6836 29.987C23.2872 29.5055 22.7467 29.6201 22.3012 29.9936C20.4209 31.5594 18.5373 33.1187 16.6799 34.7173C16.0313 35.2742 16.051 35.7852 16.6897 36.3716C17.4104 37.0333 18.1704 37.6491 18.9238 38.2781C20.0507 39.2215 21.1809 40.1584 22.3143 41.092C22.6517 41.3705 23.0317 41.4917 23.4477 41.2722C23.772 41.1018 23.8769 40.7972 23.867 40.3746L23.8638 40.3681Z" fill="url(#paint0_angular_5959_4299)" />
<path d="M10.1938 35.5166C10.1938 42.7397 10.1905 49.9596 10.1971 57.1828C10.1971 59.2269 11.1962 60.5962 13.0372 61.1957C13.4631 61.3333 13.8955 61.3398 14.3279 61.3398C22.121 61.3431 29.9142 61.3496 37.7106 61.3398C40.2854 61.3365 41.8185 59.7903 41.8512 57.2188C41.8512 56.9731 41.8775 56.7242 41.8512 56.4851C41.7464 55.6595 42.0871 55.3745 42.9159 55.4171C44.0591 55.4761 44.0362 55.4302 44.0722 56.6226C44.1476 59.3547 43.1943 61.5167 40.708 62.8598C39.7744 63.3643 38.7654 63.551 37.7172 63.551C29.9502 63.551 22.1833 63.5608 14.4163 63.551C10.6295 63.5444 8.01211 60.9107 8.00883 57.0944C7.99573 46.1368 7.99901 35.1792 7.99901 24.2249C7.99901 20.8442 7.99245 17.4669 7.99901 14.0862C8.01211 10.1127 10.5803 7.54115 14.5539 7.53787C22.1833 7.53132 29.8159 7.58374 37.4453 7.51494C41.2845 7.48219 44.5341 10.1815 44.0624 15.1705C44.0264 15.5407 43.8593 15.7209 43.5055 15.734C43.1517 15.7471 42.798 15.7438 42.4442 15.7405C42.0412 15.7372 41.8578 15.521 41.8578 15.1214C41.8578 14.6038 41.8578 14.0862 41.8447 13.5686C41.7792 11.3411 40.2297 9.76215 37.9923 9.74577C34.0679 9.71629 30.1435 9.73267 26.2191 9.73267C22.2946 9.73267 18.3702 9.72612 14.4458 9.73267C11.7662 9.73922 10.1971 11.3182 10.1938 14.0142C10.1872 21.1816 10.1938 28.3491 10.1938 35.5166Z" fill="url(#paint1_angular_5959_4299)" />
<path d="M35.9447 35.5427C35.9447 30.3669 35.9447 25.1878 35.9447 20.012C35.9447 18.2562 36.7079 17.5028 38.4933 17.4929C39.3646 17.4897 40.236 17.5126 41.1074 17.4831C41.6151 17.4667 41.9067 17.6698 42.1229 18.1186C42.7748 19.4682 43.4758 20.7917 44.1211 22.1446C44.5437 23.0356 45.1825 23.4451 46.1816 23.432C48.6876 23.4025 51.1936 23.3992 53.6996 23.432C54.7347 23.4451 55.3965 22.9766 55.8354 22.0954C56.4906 20.7786 57.1687 19.4748 57.8009 18.1448C58.0335 17.66 58.3414 17.4602 58.8786 17.4798C59.8319 17.5126 60.7852 17.47 61.7384 17.4962C63.1306 17.5322 63.9922 18.3807 63.9922 19.7598C64.002 30.2752 64.002 40.7938 63.9922 51.3091C63.9922 52.7407 63.0946 53.5629 61.5648 53.5662C57.1228 53.576 52.6841 53.5694 48.2421 53.5694C44.999 53.5694 41.7592 53.5727 38.5162 53.5694C36.6785 53.5662 35.9447 52.8193 35.9414 50.9848C35.9414 45.8353 35.9414 40.6857 35.9414 35.5361L35.9447 35.5427ZM43.1187 51.3452C43.2628 51.3484 43.5282 51.2567 43.6756 51.0078C44.4847 49.6549 45.1988 48.2528 45.7852 46.7885C45.9883 46.284 45.723 45.8811 45.2251 45.6878C44.7304 45.4978 44.3864 45.7337 44.1539 46.1596C43.9213 46.5887 43.7149 47.0342 43.4856 47.4666C43.2694 47.8728 43.1318 48.4657 42.7911 48.6262C42.2637 48.8752 42.0606 48.148 41.6806 47.8859C41.412 47.7025 41.1368 47.6402 40.8355 47.673C40.3965 47.7221 40.1541 47.9678 40.1377 48.4231C40.1148 49.0488 42.3325 51.3419 43.1187 51.3452ZM40.842 37.7014C40.6487 37.7178 40.3769 37.8324 40.236 38.1338C40.0526 38.5204 40.1213 38.884 40.4162 39.1854C41.0418 39.8274 41.661 40.4793 42.3227 41.0853C42.8665 41.5833 43.443 41.5014 43.8132 40.8298C44.4945 39.5916 45.1202 38.3238 45.7263 37.0463C45.9752 36.5254 45.8835 36.0111 45.2938 35.7425C44.7173 35.4771 44.3602 35.8145 44.108 36.2797C43.7706 36.9021 43.443 37.5311 43.1613 38.1764C42.8894 38.7923 42.6011 38.9167 42.1261 38.3664C41.8248 38.0159 41.4874 37.685 40.842 37.7047V37.7014ZM45.8442 26.6816C45.8311 26.2131 45.6575 25.8921 45.248 25.7513C44.8287 25.6071 44.4716 25.7709 44.2554 26.1116C43.9508 26.5899 43.7018 27.1074 43.443 27.6152C43.0172 28.456 42.4439 28.5914 41.7232 28.0214C41.2646 27.6578 40.7634 27.5398 40.3441 28.0116C39.951 28.4538 40.1115 28.9222 40.5046 29.3153C41.0418 29.8558 41.5725 30.4029 42.1196 30.9303C42.8665 31.651 43.4463 31.5855 43.9311 30.6781C44.5339 29.5512 45.0842 28.3981 45.6476 27.2549C45.7426 27.0616 45.7918 26.8454 45.8442 26.6849V26.6816Z" fill="#E7ABAF" />
<path d="M49.9887 17.4965C51.7281 17.4965 53.4676 17.5161 55.2071 17.4866C55.9146 17.4768 56.0031 17.7094 55.6952 18.2925C55.2136 19.2064 54.7484 20.1302 54.3095 21.0638C54.0966 21.5192 53.7919 21.6895 53.2907 21.6862C51.0632 21.6666 48.8323 21.6666 46.6015 21.6862C46.097 21.6895 45.7989 21.506 45.586 21.054C45.1339 20.0942 44.6557 19.1475 44.1643 18.2106C43.8891 17.6865 43.9907 17.4834 44.6033 17.4899C46.3984 17.5096 48.1935 17.4965 49.9854 17.4965H49.9887Z" fill="#E7ABAF" />
</g>
<defs>
<radialGradient id="paint0_angular_5959_4299" cx="0" cy="0" r="1" gradientUnits="userSpaceOnUse" gradientTransform="translate(26.1336 44.9184) rotate(89.7589) scale(30.4301 28.7417)">
<stop stop-color="#EE4136" />
<stop offset="1" stop-color="#941209" />
</radialGradient>
<radialGradient id="paint1_angular_5959_4299" cx="0" cy="0" r="1" gradientUnits="userSpaceOnUse" gradientTransform="translate(26.1336 44.9184) rotate(89.7589) scale(30.4301 28.7417)">
<stop stop-color="#EE4136" />
<stop offset="1" stop-color="#941209" />
</radialGradient>
<clipPath id="clip0_5959_4299">
<rect width="56" height="56.0393" fill="white" transform="translate(8 7.51562)" />
</clipPath>
</defs>
</svg>