<svg xmlns="http://www.w3.org/2000/svg" width="127.0" height="127.0" viewBox="0.0 0.0 127.0 127.0" fill="none">
<g clip-path="url(#clip0_4939_3056)">
<mask id="mask0_4939_3056" style="mask-type:alpha" maskUnits="userSpaceOnUse" x="0" y="-14" width="120" height="131">
<path d="M3.87097 -12.0735C3.87097 -11.0096 3.00442 -10.1471 1.93548 -10.1471C0.866546 -10.1471 0 -11.0096 0 -12.0735C0 -13.1375 0.866546 -14 1.93548 -14C3.00442 -14 3.87097 -13.1375 3.87097 -12.0735Z" fill="#D2112B" />
<path d="M15.4839 -12.0735C15.4839 -11.0096 14.6173 -10.1471 13.5484 -10.1471C12.4794 -10.1471 11.6129 -11.0096 11.6129 -12.0735C11.6129 -13.1375 12.4794 -14 13.5484 -14C14.6173 -14 15.4839 -13.1375 15.4839 -12.0735Z" fill="#D2112B" />
<path d="M27.0968 -12.0735C27.0968 -11.0096 26.2302 -10.1471 25.1613 -10.1471C24.0924 -10.1471 23.2258 -11.0096 23.2258 -12.0735C23.2258 -13.1375 24.0924 -14 25.1613 -14C26.2302 -14 27.0968 -13.1375 27.0968 -12.0735Z" fill="#D2112B" />
<path d="M38.7097 -12.0735C38.7097 -11.0096 37.8431 -10.1471 36.7742 -10.1471C35.7053 -10.1471 34.8387 -11.0096 34.8387 -12.0735C34.8387 -13.1375 35.7053 -14 36.7742 -14C37.8431 -14 38.7097 -13.1375 38.7097 -12.0735Z" fill="#D2112B" />
<path d="M50.3226 -12.0735C50.3226 -11.0096 49.456 -10.1471 48.3871 -10.1471C47.3182 -10.1471 46.4516 -11.0096 46.4516 -12.0735C46.4516 -13.1375 47.3182 -14 48.3871 -14C49.456 -14 50.3226 -13.1375 50.3226 -12.0735Z" fill="#D2112B" />
<path d="M61.9355 -12.0735C61.9355 -11.0096 61.0689 -10.1471 60 -10.1471C58.9311 -10.1471 58.0645 -11.0096 58.0645 -12.0735C58.0645 -13.1375 58.9311 -14 60 -14C61.0689 -14 61.9355 -13.1375 61.9355 -12.0735Z" fill="#D2112B" />
<path d="M73.5484 -12.0735C73.5484 -11.0096 72.6818 -10.1471 71.6129 -10.1471C70.544 -10.1471 69.6774 -11.0096 69.6774 -12.0735C69.6774 -13.1375 70.544 -14 71.6129 -14C72.6818 -14 73.5484 -13.1375 73.5484 -12.0735Z" fill="#D2112B" />
<path d="M85.1613 -12.0735C85.1613 -11.0096 84.2947 -10.1471 83.2258 -10.1471C82.1569 -10.1471 81.2903 -11.0096 81.2903 -12.0735C81.2903 -13.1375 82.1569 -14 83.2258 -14C84.2947 -14 85.1613 -13.1375 85.1613 -12.0735Z" fill="#D2112B" />
<path d="M96.7742 -12.0735C96.7742 -11.0096 95.9076 -10.1471 94.8387 -10.1471C93.7698 -10.1471 92.9032 -11.0096 92.9032 -12.0735C92.9032 -13.1375 93.7698 -14 94.8387 -14C95.9076 -14 96.7742 -13.1375 96.7742 -12.0735Z" fill="#D2112B" />
<path d="M108.387 -12.0735C108.387 -11.0096 107.521 -10.1471 106.452 -10.1471C105.383 -10.1471 104.516 -11.0096 104.516 -12.0735C104.516 -13.1375 105.383 -14 106.452 -14C107.521 -14 108.387 -13.1375 108.387 -12.0735Z" fill="#D2112B" />
<path d="M120 -12.0735C120 -11.0096 119.133 -10.1471 118.065 -10.1471C116.996 -10.1471 116.129 -11.0096 116.129 -12.0735C116.129 -13.1375 116.996 -14 118.065 -14C119.133 -14 120 -13.1375 120 -12.0735Z" fill="#D2112B" />
<path d="M3.87097 -0.514707C3.87097 0.549254 3.00442 1.41176 1.93548 1.41176C0.866546 1.41176 0 0.549254 0 -0.514707C0 -1.57867 0.866546 -2.44118 1.93548 -2.44118C3.00442 -2.44118 3.87097 -1.57867 3.87097 -0.514707Z" fill="#D2112B" />
<path d="M15.4839 -0.514707C15.4839 0.549254 14.6173 1.41176 13.5484 1.41176C12.4794 1.41176 11.6129 0.549254 11.6129 -0.514707C11.6129 -1.57867 12.4794 -2.44118 13.5484 -2.44118C14.6173 -2.44118 15.4839 -1.57867 15.4839 -0.514707Z" fill="#D2112B" />
<path d="M27.0968 -0.514707C27.0968 0.549254 26.2302 1.41176 25.1613 1.41176C24.0924 1.41176 23.2258 0.549254 23.2258 -0.514707C23.2258 -1.57867 24.0924 -2.44118 25.1613 -2.44118C26.2302 -2.44118 27.0968 -1.57867 27.0968 -0.514707Z" fill="#D2112B" />
<path d="M38.7097 -0.514707C38.7097 0.549254 37.8431 1.41176 36.7742 1.41176C35.7053 1.41176 34.8387 0.549254 34.8387 -0.514707C34.8387 -1.57867 35.7053 -2.44118 36.7742 -2.44118C37.8431 -2.44118 38.7097 -1.57867 38.7097 -0.514707Z" fill="#D2112B" />
<path d="M50.3226 -0.514707C50.3226 0.549254 49.456 1.41176 48.3871 1.41176C47.3182 1.41176 46.4516 0.549254 46.4516 -0.514707C46.4516 -1.57867 47.3182 -2.44118 48.3871 -2.44118C49.456 -2.44118 50.3226 -1.57867 50.3226 -0.514707Z" fill="#D2112B" />
<path d="M61.9355 -0.514707C61.9355 0.549254 61.0689 1.41176 60 1.41176C58.9311 1.41176 58.0645 0.549254 58.0645 -0.514707C58.0645 -1.57867 58.9311 -2.44118 60 -2.44118C61.0689 -2.44118 61.9355 -1.57867 61.9355 -0.514707Z" fill="#D2112B" />
<path d="M73.5484 -0.514707C73.5484 0.549254 72.6818 1.41176 71.6129 1.41176C70.544 1.41176 69.6774 0.549254 69.6774 -0.514707C69.6774 -1.57867 70.544 -2.44118 71.6129 -2.44118C72.6818 -2.44118 73.5484 -1.57867 73.5484 -0.514707Z" fill="#D2112B" />
<path d="M85.1613 -0.514707C85.1613 0.549254 84.2947 1.41176 83.2258 1.41176C82.1569 1.41176 81.2903 0.549254 81.2903 -0.514707C81.2903 -1.57867 82.1569 -2.44118 83.2258 -2.44118C84.2947 -2.44118 85.1613 -1.57867 85.1613 -0.514707Z" fill="#D2112B" />
<path d="M96.7742 -0.514707C96.7742 0.549254 95.9076 1.41176 94.8387 1.41176C93.7698 1.41176 92.9032 0.549254 92.9032 -0.514707C92.9032 -1.57867 93.7698 -2.44118 94.8387 -2.44118C95.9076 -2.44118 96.7742 -1.57867 96.7742 -0.514707Z" fill="#D2112B" />
<path d="M108.387 -0.514707C108.387 0.549254 107.521 1.41176 106.452 1.41176C105.383 1.41176 104.516 0.549254 104.516 -0.514707C104.516 -1.57867 105.383 -2.44118 106.452 -2.44118C107.521 -2.44118 108.387 -1.57867 108.387 -0.514707Z" fill="#D2112B" />
<path d="M120 -0.514707C120 0.549254 119.133 1.41176 118.065 1.41176C116.996 1.41176 116.129 0.549254 116.129 -0.514707C116.129 -1.57867 116.996 -2.44118 118.065 -2.44118C119.133 -2.44118 120 -1.57867 120 -0.514707Z" fill="#D2112B" />
<path d="M3.87097 11.0441C3.87097 12.1081 3.00442 12.9706 1.93548 12.9706C0.866546 12.9706 0 12.1081 0 11.0441C0 9.98016 0.866546 9.11765 1.93548 9.11765C3.00442 9.11765 3.87097 9.98016 3.87097 11.0441Z" fill="#D2112B" />
<path d="M15.4839 11.0441C15.4839 12.1081 14.6173 12.9706 13.5484 12.9706C12.4794 12.9706 11.6129 12.1081 11.6129 11.0441C11.6129 9.98016 12.4794 9.11765 13.5484 9.11765C14.6173 9.11765 15.4839 9.98016 15.4839 11.0441Z" fill="#D2112B" />
<path d="M27.0968 11.0441C27.0968 12.1081 26.2302 12.9706 25.1613 12.9706C24.0924 12.9706 23.2258 12.1081 23.2258 11.0441C23.2258 9.98016 24.0924 9.11765 25.1613 9.11765C26.2302 9.11765 27.0968 9.98016 27.0968 11.0441Z" fill="#D2112B" />
<path d="M38.7097 11.0441C38.7097 12.1081 37.8431 12.9706 36.7742 12.9706C35.7053 12.9706 34.8387 12.1081 34.8387 11.0441C34.8387 9.98016 35.7053 9.11765 36.7742 9.11765C37.8431 9.11765 38.7097 9.98016 38.7097 11.0441Z" fill="#D2112B" />
<path d="M50.3226 11.0441C50.3226 12.1081 49.456 12.9706 48.3871 12.9706C47.3182 12.9706 46.4516 12.1081 46.4516 11.0441C46.4516 9.98016 47.3182 9.11765 48.3871 9.11765C49.456 9.11765 50.3226 9.98016 50.3226 11.0441Z" fill="#D2112B" />
<path d="M61.9355 11.0441C61.9355 12.1081 61.0689 12.9706 60 12.9706C58.9311 12.9706 58.0645 12.1081 58.0645 11.0441C58.0645 9.98016 58.9311 9.11765 60 9.11765C61.0689 9.11765 61.9355 9.98016 61.9355 11.0441Z" fill="#D2112B" />
<path d="M73.5484 11.0441C73.5484 12.1081 72.6818 12.9706 71.6129 12.9706C70.544 12.9706 69.6774 12.1081 69.6774 11.0441C69.6774 9.98016 70.544 9.11765 71.6129 9.11765C72.6818 9.11765 73.5484 9.98016 73.5484 11.0441Z" fill="#D2112B" />
<path d="M85.1613 11.0441C85.1613 12.1081 84.2947 12.9706 83.2258 12.9706C82.1569 12.9706 81.2903 12.1081 81.2903 11.0441C81.2903 9.98016 82.1569 9.11765 83.2258 9.11765C84.2947 9.11765 85.1613 9.98016 85.1613 11.0441Z" fill="#D2112B" />
<path d="M96.7742 11.0441C96.7742 12.1081 95.9076 12.9706 94.8387 12.9706C93.7698 12.9706 92.9032 12.1081 92.9032 11.0441C92.9032 9.98016 93.7698 9.11765 94.8387 9.11765C95.9076 9.11765 96.7742 9.98016 96.7742 11.0441Z" fill="#D2112B" />
<path d="M108.387 11.0441C108.387 12.1081 107.521 12.9706 106.452 12.9706C105.383 12.9706 104.516 12.1081 104.516 11.0441C104.516 9.98016 105.383 9.11765 106.452 9.11765C107.521 9.11765 108.387 9.98016 108.387 11.0441Z" fill="#D2112B" />
<path d="M120 11.0441C120 12.1081 119.133 12.9706 118.065 12.9706C116.996 12.9706 116.129 12.1081 116.129 11.0441C116.129 9.98016 116.996 9.11765 118.065 9.11765C119.133 9.11765 120 9.98016 120 11.0441Z" fill="#D2112B" />
<path d="M3.87097 22.6029C3.87097 23.6669 3.00442 24.5294 1.93548 24.5294C0.866546 24.5294 0 23.6669 0 22.6029C0 21.539 0.866546 20.6765 1.93548 20.6765C3.00442 20.6765 3.87097 21.539 3.87097 22.6029Z" fill="#D2112B" />
<path d="M15.4839 22.6029C15.4839 23.6669 14.6173 24.5294 13.5484 24.5294C12.4794 24.5294 11.6129 23.6669 11.6129 22.6029C11.6129 21.539 12.4794 20.6765 13.5484 20.6765C14.6173 20.6765 15.4839 21.539 15.4839 22.6029Z" fill="#D2112B" />
<path d="M27.0968 22.6029C27.0968 23.6669 26.2302 24.5294 25.1613 24.5294C24.0924 24.5294 23.2258 23.6669 23.2258 22.6029C23.2258 21.539 24.0924 20.6765 25.1613 20.6765C26.2302 20.6765 27.0968 21.539 27.0968 22.6029Z" fill="#D2112B" />
<path d="M38.7097 22.6029C38.7097 23.6669 37.8431 24.5294 36.7742 24.5294C35.7053 24.5294 34.8387 23.6669 34.8387 22.6029C34.8387 21.539 35.7053 20.6765 36.7742 20.6765C37.8431 20.6765 38.7097 21.539 38.7097 22.6029Z" fill="#D2112B" />
<path d="M50.3226 22.6029C50.3226 23.6669 49.456 24.5294 48.3871 24.5294C47.3182 24.5294 46.4516 23.6669 46.4516 22.6029C46.4516 21.539 47.3182 20.6765 48.3871 20.6765C49.456 20.6765 50.3226 21.539 50.3226 22.6029Z" fill="#D2112B" />
<path d="M61.9355 22.6029C61.9355 23.6669 61.0689 24.5294 60 24.5294C58.9311 24.5294 58.0645 23.6669 58.0645 22.6029C58.0645 21.539 58.9311 20.6765 60 20.6765C61.0689 20.6765 61.9355 21.539 61.9355 22.6029Z" fill="#D2112B" />
<path d="M73.5484 22.6029C73.5484 23.6669 72.6818 24.5294 71.6129 24.5294C70.544 24.5294 69.6774 23.6669 69.6774 22.6029C69.6774 21.539 70.544 20.6765 71.6129 20.6765C72.6818 20.6765 73.5484 21.539 73.5484 22.6029Z" fill="#D2112B" />
<path d="M85.1613 22.6029C85.1613 23.6669 84.2947 24.5294 83.2258 24.5294C82.1569 24.5294 81.2903 23.6669 81.2903 22.6029C81.2903 21.539 82.1569 20.6765 83.2258 20.6765C84.2947 20.6765 85.1613 21.539 85.1613 22.6029Z" fill="#D2112B" />
<path d="M96.7742 22.6029C96.7742 23.6669 95.9076 24.5294 94.8387 24.5294C93.7698 24.5294 92.9032 23.6669 92.9032 22.6029C92.9032 21.539 93.7698 20.6765 94.8387 20.6765C95.9076 20.6765 96.7742 21.539 96.7742 22.6029Z" fill="#D2112B" />
<path d="M108.387 22.6029C108.387 23.6669 107.521 24.5294 106.452 24.5294C105.383 24.5294 104.516 23.6669 104.516 22.6029C104.516 21.539 105.383 20.6765 106.452 20.6765C107.521 20.6765 108.387 21.539 108.387 22.6029Z" fill="#D2112B" />
<path d="M120 22.6029C120 23.6669 119.133 24.5294 118.065 24.5294C116.996 24.5294 116.129 23.6669 116.129 22.6029C116.129 21.539 116.996 20.6765 118.065 20.6765C119.133 20.6765 120 21.539 120 22.6029Z" fill="#D2112B" />
<path d="M3.87097 34.1618C3.87097 35.2257 3.00442 36.0882 1.93548 36.0882C0.866546 36.0882 0 35.2257 0 34.1618C0 33.0978 0.866546 32.2353 1.93548 32.2353C3.00442 32.2353 3.87097 33.0978 3.87097 34.1618Z" fill="#D2112B" />
<path d="M15.4839 34.1618C15.4839 35.2257 14.6173 36.0882 13.5484 36.0882C12.4794 36.0882 11.6129 35.2257 11.6129 34.1618C11.6129 33.0978 12.4794 32.2353 13.5484 32.2353C14.6173 32.2353 15.4839 33.0978 15.4839 34.1618Z" fill="#D2112B" />
<path d="M27.0968 34.1618C27.0968 35.2257 26.2302 36.0882 25.1613 36.0882C24.0924 36.0882 23.2258 35.2257 23.2258 34.1618C23.2258 33.0978 24.0924 32.2353 25.1613 32.2353C26.2302 32.2353 27.0968 33.0978 27.0968 34.1618Z" fill="#D2112B" />
<path d="M38.7097 34.1618C38.7097 35.2257 37.8431 36.0882 36.7742 36.0882C35.7053 36.0882 34.8387 35.2257 34.8387 34.1618C34.8387 33.0978 35.7053 32.2353 36.7742 32.2353C37.8431 32.2353 38.7097 33.0978 38.7097 34.1618Z" fill="#D2112B" />
<path d="M50.3226 34.1618C50.3226 35.2257 49.456 36.0882 48.3871 36.0882C47.3182 36.0882 46.4516 35.2257 46.4516 34.1618C46.4516 33.0978 47.3182 32.2353 48.3871 32.2353C49.456 32.2353 50.3226 33.0978 50.3226 34.1618Z" fill="#D2112B" />
<path d="M61.9355 34.1618C61.9355 35.2257 61.0689 36.0882 60 36.0882C58.9311 36.0882 58.0645 35.2257 58.0645 34.1618C58.0645 33.0978 58.9311 32.2353 60 32.2353C61.0689 32.2353 61.9355 33.0978 61.9355 34.1618Z" fill="#D2112B" />
<path d="M73.5484 34.1618C73.5484 35.2257 72.6818 36.0882 71.6129 36.0882C70.544 36.0882 69.6774 35.2257 69.6774 34.1618C69.6774 33.0978 70.544 32.2353 71.6129 32.2353C72.6818 32.2353 73.5484 33.0978 73.5484 34.1618Z" fill="#D2112B" />
<path d="M85.1613 34.1618C85.1613 35.2257 84.2947 36.0882 83.2258 36.0882C82.1569 36.0882 81.2903 35.2257 81.2903 34.1618C81.2903 33.0978 82.1569 32.2353 83.2258 32.2353C84.2947 32.2353 85.1613 33.0978 85.1613 34.1618Z" fill="#D2112B" />
<path d="M96.7742 34.1618C96.7742 35.2257 95.9076 36.0882 94.8387 36.0882C93.7698 36.0882 92.9032 35.2257 92.9032 34.1618C92.9032 33.0978 93.7698 32.2353 94.8387 32.2353C95.9076 32.2353 96.7742 33.0978 96.7742 34.1618Z" fill="#D2112B" />
<path d="M108.387 34.1618C108.387 35.2257 107.521 36.0882 106.452 36.0882C105.383 36.0882 104.516 35.2257 104.516 34.1618C104.516 33.0978 105.383 32.2353 106.452 32.2353C107.521 32.2353 108.387 33.0978 108.387 34.1618Z" fill="#D2112B" />
<path d="M120 34.1618C120 35.2257 119.133 36.0882 118.065 36.0882C116.996 36.0882 116.129 35.2257 116.129 34.1618C116.129 33.0978 116.996 32.2353 118.065 32.2353C119.133 32.2353 120 33.0978 120 34.1618Z" fill="#D2112B" />
<path d="M3.87097 45.7206C3.87097 46.7845 3.00442 47.6471 1.93548 47.6471C0.866546 47.6471 0 46.7845 0 45.7206C0 44.6566 0.866546 43.7941 1.93548 43.7941C3.00442 43.7941 3.87097 44.6566 3.87097 45.7206Z" fill="#D2112B" />
<path d="M15.4839 45.7206C15.4839 46.7845 14.6173 47.6471 13.5484 47.6471C12.4794 47.6471 11.6129 46.7845 11.6129 45.7206C11.6129 44.6566 12.4794 43.7941 13.5484 43.7941C14.6173 43.7941 15.4839 44.6566 15.4839 45.7206Z" fill="#D2112B" />
<path d="M27.0968 45.7206C27.0968 46.7845 26.2302 47.6471 25.1613 47.6471C24.0924 47.6471 23.2258 46.7845 23.2258 45.7206C23.2258 44.6566 24.0924 43.7941 25.1613 43.7941C26.2302 43.7941 27.0968 44.6566 27.0968 45.7206Z" fill="#D2112B" />
<path d="M38.7097 45.7206C38.7097 46.7845 37.8431 47.6471 36.7742 47.6471C35.7053 47.6471 34.8387 46.7845 34.8387 45.7206C34.8387 44.6566 35.7053 43.7941 36.7742 43.7941C37.8431 43.7941 38.7097 44.6566 38.7097 45.7206Z" fill="#D2112B" />
<path d="M50.3226 45.7206C50.3226 46.7845 49.456 47.6471 48.3871 47.6471C47.3182 47.6471 46.4516 46.7845 46.4516 45.7206C46.4516 44.6566 47.3182 43.7941 48.3871 43.7941C49.456 43.7941 50.3226 44.6566 50.3226 45.7206Z" fill="#D2112B" />
<path d="M61.9355 45.7206C61.9355 46.7845 61.0689 47.6471 60 47.6471C58.9311 47.6471 58.0645 46.7845 58.0645 45.7206C58.0645 44.6566 58.9311 43.7941 60 43.7941C61.0689 43.7941 61.9355 44.6566 61.9355 45.7206Z" fill="#D2112B" />
<path d="M73.5484 45.7206C73.5484 46.7845 72.6818 47.6471 71.6129 47.6471C70.544 47.6471 69.6774 46.7845 69.6774 45.7206C69.6774 44.6566 70.544 43.7941 71.6129 43.7941C72.6818 43.7941 73.5484 44.6566 73.5484 45.7206Z" fill="#D2112B" />
<path d="M85.1613 45.7206C85.1613 46.7845 84.2947 47.6471 83.2258 47.6471C82.1569 47.6471 81.2903 46.7845 81.2903 45.7206C81.2903 44.6566 82.1569 43.7941 83.2258 43.7941C84.2947 43.7941 85.1613 44.6566 85.1613 45.7206Z" fill="#D2112B" />
<path d="M96.7742 45.7206C96.7742 46.7845 95.9076 47.6471 94.8387 47.6471C93.7698 47.6471 92.9032 46.7845 92.9032 45.7206C92.9032 44.6566 93.7698 43.7941 94.8387 43.7941C95.9076 43.7941 96.7742 44.6566 96.7742 45.7206Z" fill="#D2112B" />
<path d="M108.387 45.7206C108.387 46.7845 107.521 47.6471 106.452 47.6471C105.383 47.6471 104.516 46.7845 104.516 45.7206C104.516 44.6566 105.383 43.7941 106.452 43.7941C107.521 43.7941 108.387 44.6566 108.387 45.7206Z" fill="#D2112B" />
<path d="M120 45.7206C120 46.7845 119.133 47.6471 118.065 47.6471C116.996 47.6471 116.129 46.7845 116.129 45.7206C116.129 44.6566 116.996 43.7941 118.065 43.7941C119.133 43.7941 120 44.6566 120 45.7206Z" fill="#D2112B" />
<path d="M3.87097 57.2794C3.87097 58.3434 3.00442 59.2059 1.93548 59.2059C0.866546 59.2059 0 58.3434 0 57.2794C0 56.2154 0.866546 55.3529 1.93548 55.3529C3.00442 55.3529 3.87097 56.2154 3.87097 57.2794Z" fill="#D2112B" />
<path d="M15.4839 57.2794C15.4839 58.3434 14.6173 59.2059 13.5484 59.2059C12.4794 59.2059 11.6129 58.3434 11.6129 57.2794C11.6129 56.2154 12.4794 55.3529 13.5484 55.3529C14.6173 55.3529 15.4839 56.2154 15.4839 57.2794Z" fill="#D2112B" />
<path d="M27.0968 57.2794C27.0968 58.3434 26.2302 59.2059 25.1613 59.2059C24.0924 59.2059 23.2258 58.3434 23.2258 57.2794C23.2258 56.2154 24.0924 55.3529 25.1613 55.3529C26.2302 55.3529 27.0968 56.2154 27.0968 57.2794Z" fill="#D2112B" />
<path d="M38.7097 57.2794C38.7097 58.3434 37.8431 59.2059 36.7742 59.2059C35.7053 59.2059 34.8387 58.3434 34.8387 57.2794C34.8387 56.2154 35.7053 55.3529 36.7742 55.3529C37.8431 55.3529 38.7097 56.2154 38.7097 57.2794Z" fill="#D2112B" />
<path d="M50.3226 57.2794C50.3226 58.3434 49.456 59.2059 48.3871 59.2059C47.3182 59.2059 46.4516 58.3434 46.4516 57.2794C46.4516 56.2154 47.3182 55.3529 48.3871 55.3529C49.456 55.3529 50.3226 56.2154 50.3226 57.2794Z" fill="#D2112B" />
<path d="M61.9355 57.2794C61.9355 58.3434 61.0689 59.2059 60 59.2059C58.9311 59.2059 58.0645 58.3434 58.0645 57.2794C58.0645 56.2154 58.9311 55.3529 60 55.3529C61.0689 55.3529 61.9355 56.2154 61.9355 57.2794Z" fill="#D2112B" />
<path d="M73.5484 57.2794C73.5484 58.3434 72.6818 59.2059 71.6129 59.2059C70.544 59.2059 69.6774 58.3434 69.6774 57.2794C69.6774 56.2154 70.544 55.3529 71.6129 55.3529C72.6818 55.3529 73.5484 56.2154 73.5484 57.2794Z" fill="#D2112B" />
<path d="M85.1613 57.2794C85.1613 58.3434 84.2947 59.2059 83.2258 59.2059C82.1569 59.2059 81.2903 58.3434 81.2903 57.2794C81.2903 56.2154 82.1569 55.3529 83.2258 55.3529C84.2947 55.3529 85.1613 56.2154 85.1613 57.2794Z" fill="#D2112B" />
<path d="M96.7742 57.2794C96.7742 58.3434 95.9076 59.2059 94.8387 59.2059C93.7698 59.2059 92.9032 58.3434 92.9032 57.2794C92.9032 56.2154 93.7698 55.3529 94.8387 55.3529C95.9076 55.3529 96.7742 56.2154 96.7742 57.2794Z" fill="#D2112B" />
<path d="M108.387 57.2794C108.387 58.3434 107.521 59.2059 106.452 59.2059C105.383 59.2059 104.516 58.3434 104.516 57.2794C104.516 56.2154 105.383 55.3529 106.452 55.3529C107.521 55.3529 108.387 56.2154 108.387 57.2794Z" fill="#D2112B" />
<path d="M120 57.2794C120 58.3434 119.133 59.2059 118.065 59.2059C116.996 59.2059 116.129 58.3434 116.129 57.2794C116.129 56.2154 116.996 55.3529 118.065 55.3529C119.133 55.3529 120 56.2154 120 57.2794Z" fill="#D2112B" />
<path d="M3.87097 68.8382C3.87097 69.9022 3.00442 70.7647 1.93548 70.7647C0.866546 70.7647 0 69.9022 0 68.8382C0 67.7743 0.866546 66.9118 1.93548 66.9118C3.00442 66.9118 3.87097 67.7743 3.87097 68.8382Z" fill="#D2112B" />
<path d="M15.4839 68.8382C15.4839 69.9022 14.6173 70.7647 13.5484 70.7647C12.4794 70.7647 11.6129 69.9022 11.6129 68.8382C11.6129 67.7743 12.4794 66.9118 13.5484 66.9118C14.6173 66.9118 15.4839 67.7743 15.4839 68.8382Z" fill="#D2112B" />
<path d="M27.0968 68.8382C27.0968 69.9022 26.2302 70.7647 25.1613 70.7647C24.0924 70.7647 23.2258 69.9022 23.2258 68.8382C23.2258 67.7743 24.0924 66.9118 25.1613 66.9118C26.2302 66.9118 27.0968 67.7743 27.0968 68.8382Z" fill="#D2112B" />
<path d="M38.7097 68.8382C38.7097 69.9022 37.8431 70.7647 36.7742 70.7647C35.7053 70.7647 34.8387 69.9022 34.8387 68.8382C34.8387 67.7743 35.7053 66.9118 36.7742 66.9118C37.8431 66.9118 38.7097 67.7743 38.7097 68.8382Z" fill="#D2112B" />
<path d="M50.3226 68.8382C50.3226 69.9022 49.456 70.7647 48.3871 70.7647C47.3182 70.7647 46.4516 69.9022 46.4516 68.8382C46.4516 67.7743 47.3182 66.9118 48.3871 66.9118C49.456 66.9118 50.3226 67.7743 50.3226 68.8382Z" fill="#D2112B" />
<path d="M61.9355 68.8382C61.9355 69.9022 61.0689 70.7647 60 70.7647C58.9311 70.7647 58.0645 69.9022 58.0645 68.8382C58.0645 67.7743 58.9311 66.9118 60 66.9118C61.0689 66.9118 61.9355 67.7743 61.9355 68.8382Z" fill="#D2112B" />
<path d="M73.5484 68.8382C73.5484 69.9022 72.6818 70.7647 71.6129 70.7647C70.544 70.7647 69.6774 69.9022 69.6774 68.8382C69.6774 67.7743 70.544 66.9118 71.6129 66.9118C72.6818 66.9118 73.5484 67.7743 73.5484 68.8382Z" fill="#D2112B" />
<path d="M85.1613 68.8382C85.1613 69.9022 84.2947 70.7647 83.2258 70.7647C82.1569 70.7647 81.2903 69.9022 81.2903 68.8382C81.2903 67.7743 82.1569 66.9118 83.2258 66.9118C84.2947 66.9118 85.1613 67.7743 85.1613 68.8382Z" fill="#D2112B" />
<path d="M96.7742 68.8382C96.7742 69.9022 95.9076 70.7647 94.8387 70.7647C93.7698 70.7647 92.9032 69.9022 92.9032 68.8382C92.9032 67.7743 93.7698 66.9118 94.8387 66.9118C95.9076 66.9118 96.7742 67.7743 96.7742 68.8382Z" fill="#D2112B" />
<path d="M108.387 68.8382C108.387 69.9022 107.521 70.7647 106.452 70.7647C105.383 70.7647 104.516 69.9022 104.516 68.8382C104.516 67.7743 105.383 66.9118 106.452 66.9118C107.521 66.9118 108.387 67.7743 108.387 68.8382Z" fill="#D2112B" />
<path d="M120 68.8382C120 69.9022 119.133 70.7647 118.065 70.7647C116.996 70.7647 116.129 69.9022 116.129 68.8382C116.129 67.7743 116.996 66.9118 118.065 66.9118C119.133 66.9118 120 67.7743 120 68.8382Z" fill="#D2112B" />
<path d="M3.87097 80.3971C3.87097 81.461 3.00442 82.3235 1.93548 82.3235C0.866546 82.3235 0 81.461 0 80.3971C0 79.3331 0.866546 78.4706 1.93548 78.4706C3.00442 78.4706 3.87097 79.3331 3.87097 80.3971Z" fill="#D2112B" />
<path d="M15.4839 80.3971C15.4839 81.461 14.6173 82.3235 13.5484 82.3235C12.4794 82.3235 11.6129 81.461 11.6129 80.3971C11.6129 79.3331 12.4794 78.4706 13.5484 78.4706C14.6173 78.4706 15.4839 79.3331 15.4839 80.3971Z" fill="#D2112B" />
<path d="M27.0968 80.3971C27.0968 81.461 26.2302 82.3235 25.1613 82.3235C24.0924 82.3235 23.2258 81.461 23.2258 80.3971C23.2258 79.3331 24.0924 78.4706 25.1613 78.4706C26.2302 78.4706 27.0968 79.3331 27.0968 80.3971Z" fill="#D2112B" />
<path d="M38.7097 80.3971C38.7097 81.461 37.8431 82.3235 36.7742 82.3235C35.7053 82.3235 34.8387 81.461 34.8387 80.3971C34.8387 79.3331 35.7053 78.4706 36.7742 78.4706C37.8431 78.4706 38.7097 79.3331 38.7097 80.3971Z" fill="#D2112B" />
<path d="M50.3226 80.3971C50.3226 81.461 49.456 82.3235 48.3871 82.3235C47.3182 82.3235 46.4516 81.461 46.4516 80.3971C46.4516 79.3331 47.3182 78.4706 48.3871 78.4706C49.456 78.4706 50.3226 79.3331 50.3226 80.3971Z" fill="#D2112B" />
<path d="M61.9355 80.3971C61.9355 81.461 61.0689 82.3235 60 82.3235C58.9311 82.3235 58.0645 81.461 58.0645 80.3971C58.0645 79.3331 58.9311 78.4706 60 78.4706C61.0689 78.4706 61.9355 79.3331 61.9355 80.3971Z" fill="#D2112B" />
<path d="M73.5484 80.3971C73.5484 81.461 72.6818 82.3235 71.6129 82.3235C70.544 82.3235 69.6774 81.461 69.6774 80.3971C69.6774 79.3331 70.544 78.4706 71.6129 78.4706C72.6818 78.4706 73.5484 79.3331 73.5484 80.3971Z" fill="#D2112B" />
<path d="M85.1613 80.3971C85.1613 81.461 84.2947 82.3235 83.2258 82.3235C82.1569 82.3235 81.2903 81.461 81.2903 80.3971C81.2903 79.3331 82.1569 78.4706 83.2258 78.4706C84.2947 78.4706 85.1613 79.3331 85.1613 80.3971Z" fill="#D2112B" />
<path d="M96.7742 80.3971C96.7742 81.461 95.9076 82.3235 94.8387 82.3235C93.7698 82.3235 92.9032 81.461 92.9032 80.3971C92.9032 79.3331 93.7698 78.4706 94.8387 78.4706C95.9076 78.4706 96.7742 79.3331 96.7742 80.3971Z" fill="#D2112B" />
<path d="M108.387 80.3971C108.387 81.461 107.521 82.3235 106.452 82.3235C105.383 82.3235 104.516 81.461 104.516 80.3971C104.516 79.3331 105.383 78.4706 106.452 78.4706C107.521 78.4706 108.387 79.3331 108.387 80.3971Z" fill="#D2112B" />
<path d="M120 80.3971C120 81.461 119.133 82.3235 118.065 82.3235C116.996 82.3235 116.129 81.461 116.129 80.3971C116.129 79.3331 116.996 78.4706 118.065 78.4706C119.133 78.4706 120 79.3331 120 80.3971Z" fill="#D2112B" />
<path d="M3.87097 91.9559C3.87097 93.0198 3.00442 93.8823 1.93548 93.8823C0.866546 93.8823 0 93.0198 0 91.9559C0 90.8919 0.866546 90.0294 1.93548 90.0294C3.00442 90.0294 3.87097 90.8919 3.87097 91.9559Z" fill="#D2112B" />
<path d="M15.4839 91.9559C15.4839 93.0198 14.6173 93.8823 13.5484 93.8823C12.4794 93.8823 11.6129 93.0198 11.6129 91.9559C11.6129 90.8919 12.4794 90.0294 13.5484 90.0294C14.6173 90.0294 15.4839 90.8919 15.4839 91.9559Z" fill="#D2112B" />
<path d="M27.0968 91.9559C27.0968 93.0198 26.2302 93.8823 25.1613 93.8823C24.0924 93.8823 23.2258 93.0198 23.2258 91.9559C23.2258 90.8919 24.0924 90.0294 25.1613 90.0294C26.2302 90.0294 27.0968 90.8919 27.0968 91.9559Z" fill="#D2112B" />
<path d="M38.7097 91.9559C38.7097 93.0198 37.8431 93.8823 36.7742 93.8823C35.7053 93.8823 34.8387 93.0198 34.8387 91.9559C34.8387 90.8919 35.7053 90.0294 36.7742 90.0294C37.8431 90.0294 38.7097 90.8919 38.7097 91.9559Z" fill="#D2112B" />
<path d="M50.3226 91.9559C50.3226 93.0198 49.456 93.8823 48.3871 93.8823C47.3182 93.8823 46.4516 93.0198 46.4516 91.9559C46.4516 90.8919 47.3182 90.0294 48.3871 90.0294C49.456 90.0294 50.3226 90.8919 50.3226 91.9559Z" fill="#D2112B" />
<path d="M61.9355 91.9559C61.9355 93.0198 61.0689 93.8823 60 93.8823C58.9311 93.8823 58.0645 93.0198 58.0645 91.9559C58.0645 90.8919 58.9311 90.0294 60 90.0294C61.0689 90.0294 61.9355 90.8919 61.9355 91.9559Z" fill="#D2112B" />
<path d="M73.5484 91.9559C73.5484 93.0198 72.6818 93.8823 71.6129 93.8823C70.544 93.8823 69.6774 93.0198 69.6774 91.9559C69.6774 90.8919 70.544 90.0294 71.6129 90.0294C72.6818 90.0294 73.5484 90.8919 73.5484 91.9559Z" fill="#D2112B" />
<path d="M85.1613 91.9559C85.1613 93.0198 84.2947 93.8823 83.2258 93.8823C82.1569 93.8823 81.2903 93.0198 81.2903 91.9559C81.2903 90.8919 82.1569 90.0294 83.2258 90.0294C84.2947 90.0294 85.1613 90.8919 85.1613 91.9559Z" fill="#D2112B" />
<path d="M96.7742 91.9559C96.7742 93.0198 95.9076 93.8823 94.8387 93.8823C93.7698 93.8823 92.9032 93.0198 92.9032 91.9559C92.9032 90.8919 93.7698 90.0294 94.8387 90.0294C95.9076 90.0294 96.7742 90.8919 96.7742 91.9559Z" fill="#D2112B" />
<path d="M108.387 91.9559C108.387 93.0198 107.521 93.8823 106.452 93.8823C105.383 93.8823 104.516 93.0198 104.516 91.9559C104.516 90.8919 105.383 90.0294 106.452 90.0294C107.521 90.0294 108.387 90.8919 108.387 91.9559Z" fill="#D2112B" />
<path d="M120 91.9559C120 93.0198 119.133 93.8823 118.065 93.8823C116.996 93.8823 116.129 93.0198 116.129 91.9559C116.129 90.8919 116.996 90.0294 118.065 90.0294C119.133 90.0294 120 90.8919 120 91.9559Z" fill="#D2112B" />
<path d="M3.87097 103.515C3.87097 104.579 3.00442 105.441 1.93548 105.441C0.866546 105.441 0 104.579 0 103.515C0 102.451 0.866546 101.588 1.93548 101.588C3.00442 101.588 3.87097 102.451 3.87097 103.515Z" fill="#D2112B" />
<path d="M15.4839 103.515C15.4839 104.579 14.6173 105.441 13.5484 105.441C12.4794 105.441 11.6129 104.579 11.6129 103.515C11.6129 102.451 12.4794 101.588 13.5484 101.588C14.6173 101.588 15.4839 102.451 15.4839 103.515Z" fill="#D2112B" />
<path d="M27.0968 103.515C27.0968 104.579 26.2302 105.441 25.1613 105.441C24.0924 105.441 23.2258 104.579 23.2258 103.515C23.2258 102.451 24.0924 101.588 25.1613 101.588C26.2302 101.588 27.0968 102.451 27.0968 103.515Z" fill="#D2112B" />
<path d="M38.7097 103.515C38.7097 104.579 37.8431 105.441 36.7742 105.441C35.7053 105.441 34.8387 104.579 34.8387 103.515C34.8387 102.451 35.7053 101.588 36.7742 101.588C37.8431 101.588 38.7097 102.451 38.7097 103.515Z" fill="#D2112B" />
<path d="M50.3226 103.515C50.3226 104.579 49.456 105.441 48.3871 105.441C47.3182 105.441 46.4516 104.579 46.4516 103.515C46.4516 102.451 47.3182 101.588 48.3871 101.588C49.456 101.588 50.3226 102.451 50.3226 103.515Z" fill="#D2112B" />
<path d="M61.9355 103.515C61.9355 104.579 61.0689 105.441 60 105.441C58.9311 105.441 58.0645 104.579 58.0645 103.515C58.0645 102.451 58.9311 101.588 60 101.588C61.0689 101.588 61.9355 102.451 61.9355 103.515Z" fill="#D2112B" />
<path d="M73.5484 103.515C73.5484 104.579 72.6818 105.441 71.6129 105.441C70.544 105.441 69.6774 104.579 69.6774 103.515C69.6774 102.451 70.544 101.588 71.6129 101.588C72.6818 101.588 73.5484 102.451 73.5484 103.515Z" fill="#D2112B" />
<path d="M85.1613 103.515C85.1613 104.579 84.2947 105.441 83.2258 105.441C82.1569 105.441 81.2903 104.579 81.2903 103.515C81.2903 102.451 82.1569 101.588 83.2258 101.588C84.2947 101.588 85.1613 102.451 85.1613 103.515Z" fill="#D2112B" />
<path d="M96.7742 103.515C96.7742 104.579 95.9076 105.441 94.8387 105.441C93.7698 105.441 92.9032 104.579 92.9032 103.515C92.9032 102.451 93.7698 101.588 94.8387 101.588C95.9076 101.588 96.7742 102.451 96.7742 103.515Z" fill="#D2112B" />
<path d="M108.387 103.515C108.387 104.579 107.521 105.441 106.452 105.441C105.383 105.441 104.516 104.579 104.516 103.515C104.516 102.451 105.383 101.588 106.452 101.588C107.521 101.588 108.387 102.451 108.387 103.515Z" fill="#D2112B" />
<path d="M120 103.515C120 104.579 119.133 105.441 118.065 105.441C116.996 105.441 116.129 104.579 116.129 103.515C116.129 102.451 116.996 101.588 118.065 101.588C119.133 101.588 120 102.451 120 103.515Z" fill="#D2112B" />
<path d="M3.87097 115.074C3.87097 116.137 3.00442 117 1.93548 117C0.866546 117 0 116.137 0 115.074C0 114.01 0.866546 113.147 1.93548 113.147C3.00442 113.147 3.87097 114.01 3.87097 115.074Z" fill="#D2112B" />
<path d="M15.4839 115.074C15.4839 116.137 14.6173 117 13.5484 117C12.4794 117 11.6129 116.137 11.6129 115.074C11.6129 114.01 12.4794 113.147 13.5484 113.147C14.6173 113.147 15.4839 114.01 15.4839 115.074Z" fill="#D2112B" />
<path d="M27.0968 115.074C27.0968 116.137 26.2302 117 25.1613 117C24.0924 117 23.2258 116.137 23.2258 115.074C23.2258 114.01 24.0924 113.147 25.1613 113.147C26.2302 113.147 27.0968 114.01 27.0968 115.074Z" fill="#D2112B" />
<path d="M38.7097 115.074C38.7097 116.137 37.8431 117 36.7742 117C35.7053 117 34.8387 116.137 34.8387 115.074C34.8387 114.01 35.7053 113.147 36.7742 113.147C37.8431 113.147 38.7097 114.01 38.7097 115.074Z" fill="#D2112B" />
<path d="M50.3226 115.074C50.3226 116.137 49.456 117 48.3871 117C47.3182 117 46.4516 116.137 46.4516 115.074C46.4516 114.01 47.3182 113.147 48.3871 113.147C49.456 113.147 50.3226 114.01 50.3226 115.074Z" fill="#D2112B" />
<path d="M61.9355 115.074C61.9355 116.137 61.0689 117 60 117C58.9311 117 58.0645 116.137 58.0645 115.074C58.0645 114.01 58.9311 113.147 60 113.147C61.0689 113.147 61.9355 114.01 61.9355 115.074Z" fill="#D2112B" />
<path d="M73.5484 115.074C73.5484 116.137 72.6818 117 71.6129 117C70.544 117 69.6774 116.137 69.6774 115.074C69.6774 114.01 70.544 113.147 71.6129 113.147C72.6818 113.147 73.5484 114.01 73.5484 115.074Z" fill="#D2112B" />
<path d="M85.1613 115.074C85.1613 116.137 84.2947 117 83.2258 117C82.1569 117 81.2903 116.137 81.2903 115.074C81.2903 114.01 82.1569 113.147 83.2258 113.147C84.2947 113.147 85.1613 114.01 85.1613 115.074Z" fill="#D2112B" />
<path d="M96.7742 115.074C96.7742 116.137 95.9076 117 94.8387 117C93.7698 117 92.9032 116.137 92.9032 115.074C92.9032 114.01 93.7698 113.147 94.8387 113.147C95.9076 113.147 96.7742 114.01 96.7742 115.074Z" fill="#D2112B" />
<path d="M108.387 115.074C108.387 116.137 107.521 117 106.452 117C105.383 117 104.516 116.137 104.516 115.074C104.516 114.01 105.383 113.147 106.452 113.147C107.521 113.147 108.387 114.01 108.387 115.074Z" fill="#D2112B" />
<path d="M120 115.074C120 116.137 119.133 117 118.065 117C116.996 117 116.129 116.137 116.129 115.074C116.129 114.01 116.996 113.147 118.065 113.147C119.133 113.147 120 114.01 120 115.074Z" fill="#D2112B" />
</mask>
<g mask="url(#mask0_4939_3056)">
<path d="M55.5625 55.5625V111.125H0V54.7687C0 16.6687 35.7188 11.9062 35.7188 11.9062L40.4813 23.0188C40.4813 23.0188 24.6062 25.4 21.4312 38.1C18.2562 47.625 24.6062 55.5625 24.6062 55.5625H55.5625ZM127 55.5625V111.125H71.4375V54.7687C71.4375 16.6687 107.156 11.9062 107.156 11.9062L111.919 23.0188C111.919 23.0188 96.0438 25.4 92.8688 38.1C89.6938 47.625 96.0438 55.5625 96.0438 55.5625H127Z" fill="#D2112B" />
</g>
</g>
<defs>
<clipPath id="clip0_4939_3056">
<rect width="127" height="127" fill="white" />
</clipPath>
</defs>
</svg>