<svg xmlns="http://www.w3.org/2000/svg" width="58.0" height="58.0" viewBox="0.0 0.0 58.0 58.0" fill="none">
<rect width="58" height="58" rx="29" fill="url(#paint0_linear_4608_3030)" />
<g clip-path="url(#clip0_4608_3030)">
<path d="M18.4964 29.7194C18.5354 30.4341 18.534 31.1155 18.616 31.7886C18.8163 33.4378 19.0499 35.0842 19.2807 36.7293C19.4253 37.7569 20.1554 38.5245 21.1663 38.6761C22.7405 38.9139 24.3146 39.1878 25.8985 39.3283C28.4377 39.5522 30.9824 39.5299 33.5147 39.1851C34.623 39.0335 35.7285 38.8583 36.834 38.6789C37.8213 38.519 38.5625 37.8014 38.7127 36.803C38.9491 35.24 39.1493 33.6728 39.3551 32.1056C39.4191 31.6217 39.5998 31.3325 39.9336 31.2574C40.4703 31.1378 40.9028 31.491 40.8681 32.0653C40.8249 32.7675 40.7596 33.4712 40.6609 34.1678C40.5148 35.1955 40.3702 36.2259 40.1561 37.241C39.8056 38.8972 38.6125 39.9374 36.8187 40.2085C35.4156 40.4213 34.0153 40.6994 32.6038 40.8009C30.8767 40.9247 29.1385 40.9525 27.4072 40.9122C26.0125 40.8802 24.6191 40.7119 23.2313 40.5506C22.3622 40.4505 21.4945 40.2947 20.6449 40.0875C18.9317 39.6676 18.0598 38.4884 17.7511 36.7974C17.3075 34.357 17.0558 31.9026 17.0099 29.426C17.0071 29.3106 16.9988 29.1951 17.0002 29.0797C17.0085 28.5207 17.2602 28.2231 17.8164 28.2162C19.2738 28.1981 20.7325 28.1995 22.1898 28.2162C22.7182 28.2217 22.988 28.5193 22.9783 28.9838C22.9699 29.4343 22.6779 29.7096 22.1509 29.7152C21.0746 29.7263 19.9982 29.7194 18.9233 29.7194C18.7996 29.7194 18.6758 29.7194 18.4964 29.7194Z" fill="white" />
<path d="M39.5029 28.1914C39.4723 27.5601 39.4793 26.9469 39.407 26.3434C39.2109 24.6941 38.9814 23.0477 38.7687 21.3999C38.6074 20.1511 37.8787 19.4127 36.4645 19.168C33.7584 18.6994 31.0412 18.424 28.2921 18.4741C26.1144 18.513 23.9576 18.7341 21.8189 19.1388C21.57 19.1861 21.3155 19.2111 21.0694 19.2709C19.8985 19.5518 19.3659 20.3653 19.2185 21.5014C19.0308 22.9434 18.8333 24.384 18.6484 25.8261C18.5858 26.3114 18.4051 26.5978 18.0685 26.6729C17.522 26.7953 17.0951 26.4282 17.1355 25.8289C17.1827 25.1377 17.2453 24.4466 17.3426 23.7611C17.4887 22.7334 17.6277 21.7016 17.8502 20.6879C18.2187 19.0206 19.4132 17.9874 21.1946 17.719C22.5976 17.5076 23.9966 17.2281 25.4094 17.1266C27.1351 17.0042 28.8733 16.9764 30.6046 17.0181C31.9993 17.0515 33.3941 17.2059 34.7791 17.3825C35.7942 17.5118 36.8219 17.6745 37.7911 17.986C39.2957 18.4699 40.0383 19.6519 40.2469 21.1746C40.493 22.9698 40.7252 24.7665 40.9213 26.5673C41.0033 27.3237 40.9922 28.0927 41.0006 28.8548C41.0061 29.4277 40.7266 29.7113 40.1481 29.7155C38.7131 29.7266 37.2794 29.7239 35.8443 29.7155C35.5342 29.7141 35.238 29.6251 35.0989 29.3081C34.9766 29.03 34.9849 28.7463 35.181 28.4918C35.3812 28.2318 35.6719 28.2123 35.9625 28.2109C37.0152 28.2067 38.0678 28.2109 39.1205 28.2081C39.2331 28.2081 39.3458 28.1984 39.5029 28.1914Z" fill="white" />
<path d="M25.3281 28.8919C25.4755 28.5165 25.5645 28.0826 25.7926 27.7433C26.6283 26.4959 27.5058 25.2764 28.3777 24.0527C28.685 23.6202 29.2843 23.5882 29.5902 24.0138C30.5011 25.2848 31.4091 26.5599 32.2741 27.8643C32.7649 28.6041 32.7288 29.4189 32.2421 30.1476C31.3938 31.4144 30.4997 32.6507 29.6139 33.8924C29.3094 34.3193 28.7058 34.3333 28.3999 33.905C27.4766 32.6131 26.5602 31.3171 25.6799 29.996C25.4853 29.7054 25.4547 29.3049 25.3295 28.8933L25.3281 28.8919ZM28.9993 25.7575C28.4653 26.5196 27.9758 27.233 27.4696 27.9352C26.7771 28.8975 26.6714 28.903 27.4043 29.9112C27.9355 30.6427 28.4514 31.3866 29.0048 32.1695C29.7001 31.1725 30.3829 30.2297 31.0128 29.2521C31.1157 29.0935 31.0629 28.7292 30.9447 28.5498C30.3328 27.6195 29.6765 26.7184 28.9993 25.7575Z" fill="white" />
</g>
<defs>
<linearGradient id="paint0_linear_4608_3030" x1="29" y1="0" x2="29" y2="58" gradientUnits="userSpaceOnUse">
<stop stop-color="#EF7160" />
<stop offset="1" stop-color="#941209" />
</linearGradient>
<clipPath id="clip0_4608_3030">
<rect width="24" height="23.9291" fill="white" transform="translate(17 17)" />
</clipPath>
</defs>
</svg>