<svg xmlns="http://www.w3.org/2000/svg" width="87" height="165" viewBox="0.0 0.0 196.0 371.0" fill="none">
<g opacity="0.2">
<path d="M114.159 1.53942C115.362 1.01378 116.571 0.500585 117.786 0H258.214C259.429 0.500585 260.638 1.01378 261.841 1.53942H114.159Z" fill="#301F1F" />
<path d="M85.9012 16.9336C86.6846 16.4147 87.472 15.9015 88.2634 15.3942H287.737C288.528 15.9015 289.315 16.4147 290.099 16.9336H85.9012Z" fill="#301F1F" />
<path d="M65.7477 32.3278C66.3379 31.811 66.9312 31.2978 67.5277 30.7884H308.472C309.069 31.2978 309.662 31.811 310.252 32.3278H65.7477Z" fill="#301F1F" />
<path d="M50.0857 47.722C50.5535 47.2062 51.024 46.6931 51.4973 46.1826H324.503C324.976 46.6931 325.447 47.2062 325.914 47.722H50.0857Z" fill="#301F1F" />
<path d="M37.5106 63.1162C37.8889 62.601 38.2696 62.0879 38.6527 61.5768H337.347C337.73 62.0879 338.111 62.601 338.489 63.1162H37.5106Z" fill="#301F1F" />
<path d="M27.3042 78.5104C27.6111 77.9956 27.9203 77.4825 28.2318 76.971H347.768C348.08 77.4825 348.389 77.9956 348.696 78.5104H27.3042Z" fill="#301F1F" />
<path d="M19.0445 93.9046C19.2912 93.3901 19.5402 92.877 19.7913 92.3651H356.209C356.46 92.877 356.709 93.3901 356.956 93.9046H19.0445Z" fill="#301F1F" />
<path d="M12.4625 109.299C12.6566 108.785 12.8527 108.271 13.0509 107.759H362.949C363.147 108.271 363.343 108.785 363.537 109.299H12.4625Z" fill="#301F1F" />
<path d="M7.37837 124.693C7.52463 124.179 7.67293 123.666 7.82326 123.154H368.177C368.327 123.666 368.475 124.179 368.622 124.693H7.37837Z" fill="#301F1F" />
<path d="M3.66809 140.087C3.77006 139.573 3.87402 139.06 3.97998 138.548H372.02C372.126 139.06 372.23 139.573 372.332 140.087H3.66809Z" fill="#301F1F" />
<path d="M1.24588 155.481C1.30594 154.968 1.36798 154.454 1.43199 153.942H374.568C374.632 154.454 374.694 154.968 374.754 155.481H1.24588Z" fill="#301F1F" />
<path d="M0.0532463 170.876C0.0729975 170.362 0.0947169 169.849 0.118397 169.336H375.882C375.905 169.849 375.927 170.362 375.947 170.876H0.0532463Z" fill="#301F1F" />
<path d="M0.0532463 186.27C0.0335348 185.757 0.0157836 185.244 0 184.73H376C375.984 185.244 375.966 185.757 375.947 186.27H0.0532463Z" fill="#301F1F" />
<path d="M1.24588 201.664C1.18597 201.151 1.12802 200.638 1.07206 200.124H374.928C374.872 200.638 374.814 201.151 374.754 201.664H1.24588Z" fill="#301F1F" />
<path d="M3.66809 217.058C3.56642 216.546 3.46674 216.033 3.36906 215.519H372.631C372.533 216.033 372.434 216.546 372.332 217.058H3.66809Z" fill="#301F1F" />
<path d="M7.37837 232.452C7.23261 231.94 7.08888 231.427 6.94719 230.913H369.053C368.911 231.427 368.767 231.94 368.622 232.452H7.37837Z" fill="#301F1F" />
<path d="M12.4625 247.846C12.2693 247.334 12.0782 246.821 11.8891 246.307H364.111C363.922 246.821 363.731 247.334 363.537 247.846H12.4625Z" fill="#301F1F" />
<path d="M19.0445 263.241C18.7989 262.729 18.5555 262.216 18.3143 261.701H357.686C357.445 262.216 357.201 262.729 356.956 263.241H19.0445Z" fill="#301F1F" />
<path d="M27.3042 278.635C26.9992 278.123 26.6964 277.61 26.396 277.095H349.604C349.304 277.61 349.001 278.123 348.696 278.635H27.3042Z" fill="#301F1F" />
<path d="M37.5106 294.029C37.1353 293.518 36.7625 293.005 36.392 292.49H339.608C339.238 293.005 338.865 293.518 338.489 294.029H37.5106Z" fill="#301F1F" />
<path d="M50.0857 309.423C49.6227 308.913 49.1623 308.4 48.7046 307.884H327.295C326.838 308.4 326.377 308.913 325.914 309.423H50.0857Z" fill="#301F1F" />
<path d="M65.7477 324.817C65.1658 324.308 64.587 323.795 64.0113 323.278H311.989C311.413 323.795 310.834 324.308 310.252 324.817H65.7477Z" fill="#301F1F" />
<path d="M85.9012 340.212C85.1349 339.704 84.3725 339.191 83.614 338.672H292.386C291.628 339.191 290.865 339.704 290.099 340.212H85.9012Z" fill="#301F1F" />
<path d="M114.159 355.606C113.011 355.104 111.869 354.591 110.732 354.066H265.268C264.131 354.591 262.989 355.104 261.841 355.606H114.159Z" fill="#301F1F" />
<path d="M211.906 369.461C204.077 370.476 196.098 371 188 371C179.902 371 171.923 370.476 164.094 369.461H211.906Z" fill="#301F1F" />
</g>
</svg>