<svg xmlns="http://www.w3.org/2000/svg" width="90.0" height="46.0" viewBox="0.0 0.0 90.0 46.0" fill="none">
<path fill-rule="evenodd" clip-rule="evenodd" d="M22.8606 0L23.5817 0.40743L33.9303 6.254L44.2788 0.40743L45 0L45.7212 0.40743L56.0697 6.25399L66.4183 0.40743L67.1394 0L67.8606 0.40743L78.2091 6.25399L88.5577 0.40743L90 3.00583L78.9303 9.25983L78.2091 9.66726L77.488 9.25983L67.1394 3.41326L56.7909 9.25983L56.0697 9.66726L55.3485 9.25983L45 3.41326L34.6514 9.25983L33.9303 9.66726L33.2091 9.25983L22.8606 3.41326L12.512 9.25983L11.7909 9.66726L11.0697 9.25983L0 3.00583L1.44232 0.40743L11.7909 6.254L22.1394 0.40743L22.8606 0ZM22.8606 18.1664L23.5817 18.5738L33.9303 24.4204L44.2788 18.5738L45 18.1664L45.7212 18.5738L56.0697 24.4204L66.4183 18.5738L67.1394 18.1664L67.8606 18.5738L78.2091 24.4204L88.5577 18.5738L90 21.1722L78.9303 27.4262L78.2091 27.8336L77.488 27.4262L67.1394 21.5796L56.7909 27.4262L56.0697 27.8336L55.3485 27.4262L45 21.5796L34.6514 27.4262L33.9303 27.8336L33.2091 27.4262L22.8606 21.5796L12.512 27.4262L11.7909 27.8336L11.0697 27.4262L0 21.1722L1.44232 18.5738L11.7909 24.4204L22.1394 18.5738L22.8606 18.1664ZM23.5817 36.7402L22.8606 36.3327L22.1394 36.7402L11.7909 42.5867L1.44232 36.7402L0 39.3386L11.0697 45.5926L11.7909 46L12.512 45.5926L22.8606 39.746L33.2091 45.5926L33.9303 46L34.6514 45.5926L45 39.746L55.3485 45.5926L56.0697 46L56.7909 45.5926L67.1394 39.746L77.488 45.5926L78.2091 46L78.9303 45.5926L90 39.3386L88.5577 36.7402L78.2091 42.5867L67.8606 36.7402L67.1394 36.3327L66.4183 36.7402L56.0697 42.5867L45.7212 36.7402L45 36.3327L44.2788 36.7402L33.9303 42.5867L23.5817 36.7402Z" fill="#F0493E" />
</svg>