<svg width="72" height="72" viewBox="0 0 72 72" fill="none" xmlns="http://www.w3.org/2000/svg">
<g clip-path="url(#clip0_5959_4183)">
<path d="M14.5117 35.9786C14.5117 29.707 14.5117 23.4325 14.5117 17.161C14.5117 15.1708 15.143 14.5396 17.1331 14.5337C18.9071 14.5308 20.6839 14.5688 22.4578 14.5162C23.2118 14.4928 23.5128 14.7354 23.6677 15.4747C23.9863 16.9944 25.1465 17.9208 26.7713 18.1108C27.9637 18.251 29.4308 17.4269 30.0006 16.2609C30.1701 15.916 30.2958 15.5332 30.3484 15.1562C30.4215 14.6535 30.6962 14.5279 31.1462 14.5308C33.189 14.5396 35.2318 14.5103 37.2717 14.5483C38.7241 14.5746 39.3875 15.2877 39.4051 16.746C39.4226 18.1809 39.3817 19.6158 39.4226 21.0478C39.4401 21.7083 39.1742 21.8807 38.5634 21.8749C36.62 21.8486 34.6707 21.9304 32.7302 21.8515C29.6353 21.7258 27.0314 23.8504 27.0198 27.5502C27.0051 31.779 27.0168 36.0107 27.0168 40.2424C27.0168 41.4201 27.0168 41.4143 25.804 41.426C25.2984 41.4289 24.7782 41.3529 24.3253 41.6832C23.6706 42.1595 23.4515 42.8112 23.5187 43.5974C23.8343 47.341 26.7889 50.091 30.5588 50.1173C33.2095 50.1349 35.8601 50.1378 38.5079 50.1115C39.2063 50.1027 39.4489 50.3423 39.4284 51.0408C39.3846 52.3997 39.4197 53.7645 39.4138 55.1235C39.408 56.7103 38.6978 57.438 37.0846 57.4468C33.8758 57.4614 30.667 57.4526 27.4581 57.4526C24.0067 57.4526 20.5524 57.4526 17.101 57.4526C15.1517 57.4526 14.5146 56.8155 14.5146 54.878C14.5146 48.5801 14.5146 42.2852 14.5146 35.9873L14.5117 35.9786Z" fill="url(#paint0_angular_5959_4183)"/>
<path d="M42.8378 41.4164C38.4366 41.4164 34.0355 41.4164 29.6343 41.4164C28.6699 41.4164 28.6611 41.4047 28.6611 40.4374C28.6611 36.1589 28.7166 31.8776 28.6377 27.5991C28.5939 25.267 30.0054 23.4083 32.8636 23.4229C38.8195 23.4551 44.7783 23.4288 50.7343 23.4376C51.7776 23.4376 52.8209 23.3733 53.8642 23.5165C55.679 23.7678 57.0292 25.1998 57.0409 27.0351C57.0672 31.5561 57.038 36.08 57.0613 40.601C57.0643 41.3433 56.7048 41.4222 56.1116 41.4222C51.687 41.4105 47.2624 41.4164 42.8378 41.4164ZM46.5347 36.8808C46.5406 37.2052 46.6984 37.4273 46.9789 37.5763C47.3793 37.7867 47.6774 37.5763 47.9638 37.3367C49.5244 36.0274 51.0879 34.7211 52.6397 33.4001C53.5895 32.5936 53.5895 32.2458 52.6397 31.4421C51.1229 30.1533 49.5945 28.8791 48.0661 27.6049C47.4757 27.1111 46.9731 27.0701 46.6662 27.5056C46.2805 28.0521 46.5756 28.4554 47.0023 28.8148C48.1538 29.7822 49.2964 30.7612 50.4566 31.7227C51.3334 32.4504 51.3275 32.427 50.4186 33.1722C49.2584 34.1278 48.1187 35.1068 46.9702 36.08C46.7247 36.2875 46.5143 36.5213 46.5318 36.8778L46.5347 36.8808ZM32.3989 32.313C32.393 32.7806 32.5888 33.0436 32.8665 33.2686C33.7286 33.9817 34.5819 34.7006 35.4411 35.4166C36.2448 36.0859 37.0456 36.7551 37.8522 37.4214C38.2525 37.7517 38.6646 37.7809 39.0036 37.363C39.3309 36.9568 39.2345 36.5476 38.8692 36.1969C38.764 36.0946 38.65 36.004 38.5389 35.9105C37.4401 34.9899 36.3383 34.0723 35.2424 33.1459C34.3686 32.4065 34.3861 32.4153 35.2863 31.6701C36.4845 30.6823 37.6651 29.6711 38.8458 28.6599C39.2257 28.3326 39.3455 27.8943 39.0182 27.4968C38.6909 27.1023 38.2087 27.1344 37.8375 27.4442C36.1192 28.8733 34.4241 30.3287 32.7204 31.7753C32.5304 31.936 32.396 32.1376 32.3989 32.3101V32.313ZM44.4569 28.4086C44.4686 27.7481 44.3926 27.3478 43.8607 27.2659C43.3668 27.1929 43.0862 27.4647 42.9489 27.9089C42.8904 28.093 42.8437 28.283 42.8057 28.4729C42.2884 31.1148 41.7711 33.7596 41.2539 36.4044C41.1165 37.1087 41.3445 37.626 41.8588 37.6611C42.5105 37.7049 42.7209 37.2373 42.8261 36.6967C43.0804 35.3874 43.3347 34.0752 43.5918 32.766C43.8928 31.2434 44.1968 29.7208 44.4598 28.4057L44.4569 28.4086Z" fill="#E7ABAF"/>
<path d="M12.9529 35.996C12.9529 42.3903 12.9617 48.7875 12.947 55.1818C12.9441 56.6313 13.4 57.8003 14.6859 58.5601C15.1739 58.8494 15.7 59.0131 16.2786 59.0131C23.4035 59.0102 30.5284 59.0219 37.6504 59.0014C39.4682 58.9956 40.8739 57.5986 40.9352 55.7663C40.9878 54.1881 40.9557 52.6071 40.9645 51.0261C40.9703 50.1464 41.0141 50.1143 41.9464 50.1143C42.8874 50.1143 42.9137 50.1347 42.9137 51.0261C42.9167 52.534 42.9254 54.042 42.9137 55.55C42.8904 58.5513 40.5699 60.9594 37.5569 60.974C30.5051 61.012 23.4532 61.0091 16.4014 60.974C13.3796 60.9594 11.0942 58.6273 11.0182 55.5705C10.9832 54.1618 11.0095 52.7503 11.0095 51.3388C11.0095 39.836 11.0153 28.3363 11.0065 16.8335C11.0007 14.5569 11.8716 12.7947 13.891 11.6491C14.6976 11.1903 15.5743 11.012 16.4803 11.012C23.4591 11.0033 30.4378 10.9887 37.4166 11.015C40.6167 11.0266 42.902 13.3851 42.9137 16.5851C42.9196 18.0697 42.8728 19.5543 42.9313 21.0331C42.9634 21.8455 42.528 21.8601 41.9347 21.8747C41.3005 21.8893 40.9265 21.7783 40.9528 21.0126C40.9966 19.5806 40.9762 18.1428 40.9615 16.7079C40.9352 14.2822 39.6172 12.9642 37.2033 12.9613C30.394 12.9555 23.5876 13.0051 16.7784 12.9321C14.6011 12.9087 12.912 14.4605 12.9354 16.8072C12.9996 23.2015 12.9558 29.5987 12.9558 35.993L12.9529 35.996Z" fill="url(#paint1_angular_5959_4183)"/>
<path d="M42.7902 48.5422C38.9005 48.5422 35.0136 48.5451 31.1238 48.5422C29.8672 48.5422 28.6661 48.3493 27.5848 47.6304C26.2726 46.7595 25.5098 45.5409 25.2088 44.0241C25.0335 43.1474 25.1825 42.9954 26.0856 42.9925C30.2413 42.9896 34.397 42.9925 38.5527 42.9925C45.5022 42.9925 52.4547 42.9925 59.4043 42.9925C60.6376 42.9925 60.7515 43.1445 60.4213 44.3573C59.679 47.081 57.6859 48.5305 54.6027 48.5422C50.6662 48.5568 46.7297 48.5451 42.7931 48.5451L42.7902 48.5422Z" fill="#E7ABAF"/>
</g>
<defs>
<radialGradient id="paint0_angular_5959_4183" cx="0" cy="0" r="1" gradientUnits="userSpaceOnUse" gradientTransform="translate(26.7767 51.5633) rotate(88.7006) scale(14.9319 12.7005)">
<stop stop-color="#EE4136"/>
<stop offset="1" stop-color="#941209"/>
</radialGradient>
<radialGradient id="paint1_angular_5959_4183" cx="0" cy="0" r="1" gradientUnits="userSpaceOnUse" gradientTransform="translate(27.0386 44.3729) rotate(89.7611) scale(27.1508 25.4156)">
<stop stop-color="#EE4136"/>
<stop offset="1" stop-color="#941209"/>
</radialGradient>
<clipPath id="clip0_5959_4183">
<rect width="49.5762" height="50" fill="white" transform="translate(11 11)"/>
</clipPath>
</defs>
</svg>
