<svg width="72" height="72" viewBox="0 0 72 72" fill="none" xmlns="http://www.w3.org/2000/svg">
<path d="M57.3174 49.9286C57.3174 54.916 53.2149 58.997 48.2036 58.9994C43.2401 59.0018 39.0207 54.8635 39.0589 49.9357C39.0994 44.7313 43.3116 40.8506 48.2275 40.8506C53.2507 40.8506 57.3174 44.9269 57.3174 49.9286ZM44.7236 44.2423C43.1327 44.2328 42.2502 45.2966 42.5007 46.8851C42.6342 47.7223 42.899 48.5094 43.3522 49.213C43.6408 49.6638 43.6193 50.024 43.3522 50.4676C42.8894 51.238 42.6104 52.0824 42.4935 52.9816C42.2955 54.5129 43.4547 55.6625 44.9717 55.4383C45.9258 55.2976 46.8178 54.9732 47.6526 54.5105C48.0176 54.3078 48.2871 54.3268 48.6377 54.5105C49.4797 54.9589 50.3574 55.3071 51.3187 55.4336C52.7235 55.6196 53.7897 54.7323 53.7945 53.3227C53.7992 52.2517 53.358 51.3167 52.8619 50.4128C52.6496 50.0264 52.6067 49.7115 52.8499 49.318C53.3007 48.5881 53.587 47.7843 53.7468 46.9376C54.0592 45.2822 53.0861 44.1564 51.4093 44.2399C50.4338 44.2876 49.5512 44.6406 48.726 45.1272C48.299 45.38 47.9603 45.38 47.5262 45.1272C46.6652 44.6287 45.7445 44.259 44.7236 44.2399V44.2423Z" fill="#E7ABAF"/>
<path d="M48.1806 53.0128C48.0637 52.9437 47.954 52.8959 47.861 52.8244C46.8902 52.0635 45.9862 51.2359 45.2444 50.2412C45.0584 49.9908 44.9916 49.7833 45.2158 49.5042C46.0053 48.5287 46.883 47.6462 47.8729 46.8734C48.0995 46.6969 48.2855 46.7064 48.5097 46.8781C49.5234 47.6533 50.4322 48.5335 51.2097 49.5472C51.3886 49.7785 51.36 49.9526 51.1907 50.1768C50.4203 51.2001 49.4948 52.0611 48.4906 52.8459C48.4 52.9174 48.2879 52.9556 48.1806 53.0128ZM49.3684 49.9359C49.3755 49.2848 48.8651 48.772 48.202 48.7648C47.539 48.7577 47.0428 49.2538 47.0428 49.9264C47.0428 50.5561 47.5342 51.0641 48.1639 51.0808C48.7959 51.0975 49.3636 50.5585 49.3684 49.9359Z" fill="#E7ABAF"/>
<path d="M44.8022 54.5943C43.8481 54.5847 43.3734 54.0338 43.4641 53.1345C43.538 52.3928 43.8457 51.7249 44.1892 51.0738C44.3156 50.8328 44.4658 50.8018 44.6423 51.007C45.4056 51.8943 46.2237 52.7267 47.1253 53.4756C47.3281 53.6426 47.278 53.7666 47.0633 53.8644C46.3048 54.2126 45.5296 54.506 44.8045 54.5943H44.8022Z" fill="#E7ABAF"/>
<path d="M52.908 53.1271C52.9009 54.1218 52.4358 54.5606 51.6057 54.5248C50.7948 54.4891 50.0816 54.1575 49.3732 53.7998C49.1037 53.6638 49.1371 53.5207 49.3422 53.3633C50.2366 52.6692 51.0166 51.863 51.725 50.9852C51.9086 50.7587 52.0827 50.7682 52.2235 51.033C52.6003 51.7366 52.8436 52.4784 52.9056 53.1247L52.908 53.1271Z" fill="#E7ABAF"/>
<path d="M44.9279 45.2471C45.5385 45.302 46.2707 45.5906 46.9767 45.9555C47.2105 46.0748 47.2606 46.2107 47.0244 46.3896C46.1061 47.0861 45.3047 47.9042 44.582 48.7986C44.3721 49.0586 44.2409 48.999 44.1145 48.7366C43.7854 48.0568 43.4848 47.3675 43.4419 46.6019C43.3894 45.6645 43.8021 45.2423 44.9255 45.2471H44.9279Z" fill="#E7ABAF"/>
<path d="M52.8592 46.515C52.8115 47.2854 52.5348 47.9795 52.1699 48.6473C51.9838 48.986 51.8216 48.9479 51.6046 48.6688C50.9439 47.8221 50.2093 47.0469 49.3411 46.4053C49.0763 46.2097 49.124 46.0785 49.3816 45.9306C50.0399 45.5514 50.734 45.2604 51.4949 45.1888C52.3321 45.1101 52.9117 45.6873 52.8592 46.515Z" fill="#E7ABAF"/>
<path fill-rule="evenodd" clip-rule="evenodd" d="M44.4023 16.1839C40.2493 14.5227 35.8923 14.0143 30.3753 14L30.3788 14.0072C27.6901 13.9678 23.9775 14.3759 20.358 15.4679C18.414 16.0514 16.5057 16.7424 15.0164 18.2174C13.7777 19.4418 13.7669 20.6197 14.9663 21.8692C16.069 23.0184 17.4831 23.6449 18.9367 24.1963C21.7722 25.2703 24.7294 25.7644 27.7367 25.9828C33.1248 26.3694 38.4449 26.058 43.5932 24.2715C45.1971 23.713 46.7401 22.9898 47.918 21.6937C48.8882 20.6269 48.8775 19.4848 47.9109 18.4215C46.9478 17.3582 45.7055 16.7066 44.4023 16.1839ZM36.8324 47.9172C36.6501 48.755 36.5541 49.6249 36.5541 50.5174C36.5541 52.8132 37.1897 54.9606 38.2945 56.7931C35.0104 57.3618 31.6809 57.4975 28.3061 57.2375C24.8119 56.969 21.4 56.4176 18.1564 55.0393C17.7403 54.8631 17.3345 54.656 16.928 54.4486C16.8554 54.4115 16.7827 54.3745 16.71 54.3375C14.8483 53.3888 13.7993 52.0355 14.032 49.7764C14.1475 48.6486 14.1208 47.5062 14.094 46.3633C14.081 45.8048 14.0679 45.2461 14.0714 44.689C14.0714 44.6317 14.0643 44.5693 14.057 44.5056C14.0329 44.295 14.0071 44.0703 14.2325 43.9658C14.4123 43.8812 14.5511 44.0153 14.6864 44.146C14.7343 44.1923 14.7818 44.2382 14.8304 44.2737C17.4332 46.1533 20.4334 47.0376 23.523 47.5603C27.9668 48.3156 32.4106 48.4624 36.8324 47.9172ZM48.6732 38.345C43.3981 38.3676 38.9151 41.7457 37.2484 46.4551C31.2317 47.3579 25.2346 46.9578 19.2806 45.0396C17.6874 44.5276 16.1909 43.8009 14.9844 42.5872C14.3686 41.9678 14.0356 41.2446 14.0679 40.3496C14.0903 39.6671 14.085 38.9828 14.0797 38.2992C14.0773 38.0003 14.075 37.7016 14.075 37.4031H14.0714C14.0714 37.0354 14.0722 36.6681 14.073 36.301C14.0746 35.567 14.0762 34.8336 14.0714 34.0987C14.0679 33.5509 14.2147 33.3504 14.7266 33.7335C17.7518 36.0105 21.3034 36.8876 24.9444 37.3888C30.1356 38.1048 35.3268 38.0189 40.4643 36.884C43.1495 36.2897 45.763 35.4949 47.9612 33.7299C47.9876 33.709 48.0141 33.6856 48.0411 33.6617C48.1714 33.5467 48.3126 33.422 48.5054 33.5258C48.6868 33.627 48.678 33.8146 48.6698 33.9881V33.9882V33.9882V33.9883C48.6681 34.0236 48.6665 34.0582 48.6665 34.0915C48.6672 34.5481 48.6685 35.0046 48.6697 35.461L48.6698 35.4708V35.4715C48.6724 36.4295 48.675 37.3871 48.6732 38.345ZM48.6609 27.8964C48.6636 27.6306 48.6663 27.3649 48.6663 27.0995V27.0959C48.6663 26.7486 48.6667 26.4014 48.6671 26.0541C48.6679 25.3595 48.6687 24.665 48.6663 23.9704C48.6663 23.9312 48.6685 23.8899 48.6708 23.8481C48.6804 23.6722 48.6906 23.4852 48.5374 23.3869C48.3285 23.2545 48.1679 23.3929 48.016 23.524C47.9831 23.5524 47.9506 23.5804 47.918 23.6053C46.1065 24.9872 44.03 25.782 41.8533 26.3298C36.0033 27.8048 30.0889 27.9552 24.1458 27.0315C20.7733 26.5052 17.5082 25.6209 14.6906 23.5587C14.0927 23.1219 14.0713 23.4943 14.0713 23.9525C14.0713 24.5232 14.074 25.0938 14.0767 25.6644C14.0833 27.0593 14.09 28.4542 14.0569 29.8491C14.0283 31.1164 14.6119 32.0043 15.5678 32.7132C17.0428 33.8087 18.7076 34.5283 20.4583 35.0367C26.5767 36.8196 32.7811 36.902 39.0142 35.8279C41.8712 35.3374 44.6386 34.5033 47.0445 32.7848C48.097 32.0294 48.7271 31.0484 48.6734 29.6915C48.6487 29.0941 48.6548 28.495 48.6609 27.8965V27.8965V27.8964Z" fill="url(#paint0_angular_5959_4205)"/>
<defs>
<radialGradient id="paint0_angular_5959_4205" cx="0" cy="0" r="1" gradientUnits="userSpaceOnUse" gradientTransform="translate(31.1847 20.8023) rotate(-90) scale(12.1725 14.2673)">
<stop stop-color="#EE4136"/>
<stop offset="1" stop-color="#941209"/>
</radialGradient>
</defs>
</svg>
