<svg width="72" height="72" viewBox="0 0 72 72" fill="none" xmlns="http://www.w3.org/2000/svg">
<rect width="72" height="72" fill="white"/>
<path fill-rule="evenodd" clip-rule="evenodd" d="M7.25925 13C6.0115 13 5 14.0115 5 15.2593V46.8888C5 48.1366 6.0115 49.1481 7.25925 49.1481H10.6481V20.9074C10.6481 19.6596 11.6596 18.6481 12.9074 18.6481H56.9628V15.2593C56.9628 14.0115 55.9513 13 54.7036 13H7.25925Z" fill="#E7ABAF"/>
<path fill-rule="evenodd" clip-rule="evenodd" d="M16.2983 22.0381C15.0506 22.0381 14.0391 23.0496 14.0391 24.2973V55.9269C14.0391 57.1746 15.0506 58.1861 16.2983 58.1861H63.7427C64.9904 58.1861 66.0019 57.1746 66.0019 55.9269V24.2973C66.0019 23.0496 64.9904 22.0381 63.7427 22.0381H16.2983ZM42.5247 31.1603C42.7642 31.0533 43.0363 31.0458 43.2813 31.1394C43.5263 31.233 43.7241 31.4202 43.8311 31.6596C43.9381 31.8991 43.9456 32.1712 43.852 32.4162L37.4232 49.2299C37.3782 49.353 37.3091 49.4659 37.22 49.562C37.131 49.6581 37.0237 49.7356 36.9044 49.7899C36.7851 49.8442 36.6563 49.8742 36.5253 49.8783C36.3943 49.8824 36.2638 49.8604 36.1414 49.8136C36.019 49.7668 35.9071 49.6962 35.8123 49.6058C35.7174 49.5154 35.6414 49.407 35.5888 49.287C35.5362 49.167 35.5079 49.0377 35.5057 48.9067C35.5034 48.7757 35.5272 48.6455 35.5757 48.5238L42.0045 31.71C42.0982 31.4651 42.2853 31.2673 42.5247 31.1603ZM45.4053 35.6722L50.6626 38.9132L50.7442 38.9948C51.1346 39.3865 51.3539 39.917 51.3539 40.47C51.3539 41.023 51.1346 41.5535 50.7442 41.9452L50.6626 42.0267L45.4053 45.2678C45.2947 45.3392 45.171 45.3879 45.0414 45.4109C44.9118 45.4338 44.7789 45.4307 44.6506 45.4017C44.5222 45.3727 44.4009 45.3183 44.2938 45.2418C44.1867 45.1653 44.0959 45.0682 44.0269 44.9561C43.9578 44.8441 43.9118 44.7194 43.8915 44.5893C43.8712 44.4593 43.8771 44.3265 43.9088 44.1987C43.9405 44.071 43.9974 43.9509 44.0761 43.8454C44.1549 43.7399 44.2539 43.6512 44.3673 43.5845L49.3733 40.4982C49.3783 40.4797 49.3783 40.4603 49.3733 40.4418L44.3673 37.3555C44.2568 37.2873 44.1608 37.1981 44.0847 37.0928C44.0087 36.9876 43.9541 36.8683 43.9242 36.742C43.8942 36.6156 43.8894 36.4846 43.9101 36.3564C43.9308 36.2282 43.9765 36.1054 44.0446 35.9948C44.1128 35.8843 44.202 35.7883 44.3073 35.7122C44.4126 35.6362 44.5318 35.5816 44.6581 35.5517C44.7845 35.5217 44.9155 35.5169 45.0437 35.5376C45.1719 35.5583 45.2948 35.604 45.4053 35.6722ZM29.5786 40.577L34.5847 43.6633C34.8079 43.8009 34.9673 44.0216 35.0278 44.2768C35.0883 44.532 35.045 44.8007 34.9074 45.0239C34.7697 45.2472 34.549 45.4066 34.2938 45.4671C34.0387 45.5276 33.7699 45.4843 33.5467 45.3466L28.2894 42.1055L28.2078 42.0239C27.8174 41.6323 27.5981 41.1018 27.5981 40.5488C27.5981 39.9957 27.8174 39.4653 28.2078 39.0736L28.2894 38.992L33.5467 35.7509C33.6573 35.6795 33.781 35.6309 33.9106 35.6079C34.0402 35.5849 34.173 35.5881 34.3014 35.6171C34.4298 35.6461 34.5511 35.7005 34.6582 35.777C34.7653 35.8535 34.856 35.9506 34.9251 36.0627C34.9942 36.1747 35.0402 36.2994 35.0605 36.4294C35.0808 36.5595 35.0749 36.6923 35.0432 36.82C35.0115 36.9478 34.9546 37.0679 34.8759 37.1734C34.7971 37.2789 34.6981 37.3676 34.5847 37.4343L29.5786 40.5206C29.5737 40.5391 29.5737 40.5585 29.5786 40.577Z" fill="url(#paint0_angular_5959_4269)"/>
<defs>
<radialGradient id="paint0_angular_5959_4269" cx="0" cy="0" r="1" gradientUnits="userSpaceOnUse" gradientTransform="translate(40.1378 46.1647) rotate(89.4622) scale(19.6291 41.356)">
<stop stop-color="#EE4136"/>
<stop offset="1" stop-color="#941209"/>
</radialGradient>
</defs>
</svg>
