<svg width="72" height="72" viewBox="0 0 72 72" fill="none" xmlns="http://www.w3.org/2000/svg">
<rect width="72" height="72" fill="white"/>
<path d="M40.0701 33.257C41.7024 33.1792 43.1403 33.1195 44.5753 33.0387C47.0566 32.9042 49.5409 32.8055 52.0163 32.5993C54.381 32.402 55.7592 30.1837 54.952 27.9386C54.4527 26.5544 53.6516 25.3108 52.946 24.0283C52.656 23.4991 52.5903 23.1284 53.0088 22.5754C54.1179 21.1105 54.4737 19.4513 53.9176 17.6426C53.6516 16.7727 53.6695 16.7667 54.6022 16.7667C55.822 16.7667 57.0417 16.7577 58.2584 16.7697C60.1777 16.7906 61.81 18.1688 62.1388 20.0522C62.2315 20.5873 62.2734 21.1404 62.2734 21.6845C62.2823 29.0985 62.2794 36.5096 62.2794 43.9236C62.2794 45.0298 62.2764 45.0328 61.1553 45.0328C44.4886 45.0328 27.819 45.0328 11.1523 45.0328C10.387 45.0328 10.0033 44.6461 10.0013 43.8728C10.0013 36.3123 9.99834 28.7487 10.0013 21.1882C10.0013 18.9819 11.1732 17.3437 13.0806 16.8743C13.4363 16.7876 13.819 16.7697 14.1897 16.7697C20.1598 16.7637 26.1299 16.7637 32.1 16.7697C32.3451 16.7697 32.6829 16.6621 32.8085 16.8653C32.9759 17.1434 32.6202 17.3317 32.4886 17.5529C31.5081 19.2091 30.091 20.3452 28.3362 21.1284C27.1134 21.6755 25.9565 22.3691 24.7637 22.9879C23.4184 23.6875 22.7517 24.7996 22.7637 26.3033C22.7696 26.7816 22.6411 27.1583 22.3421 27.526C21.4154 28.674 21.2988 29.8848 22.0551 31.1882C22.6172 32.1538 23.1104 33.1613 23.6396 34.1479C24.4019 35.5739 25.3855 36.1 26.9879 35.9356C27.2988 35.9027 27.5708 35.9326 27.8309 36.1299C28.7368 36.8235 29.7353 37.1882 30.8952 36.9461C31.3526 36.8504 31.6336 37.1673 31.9356 37.4214C33.6575 38.8893 35.3586 40.381 37.1075 41.819C39.3885 43.6964 42.5813 42.9909 43.7472 40.39C44.5335 38.6351 43.9744 36.6351 42.3152 35.248C41.5977 34.6471 40.8444 34.0851 40.0671 33.251L40.0701 33.257Z" fill="url(#paint0_angular_5959_4255)"/>
<path d="M36.1867 46.5186C44.4946 46.5186 52.7995 46.5186 61.1075 46.5186C61.9067 46.5186 62.3063 46.9132 62.3063 47.7024C62.3063 48.2495 62.3063 48.7966 62.3063 49.3437C62.3003 52.2525 60.8145 53.819 57.9146 53.9804C57.7652 53.9894 57.6157 53.9864 57.4662 53.9864C43.2659 53.9864 29.0626 53.9864 14.8623 53.9864C13.3048 53.9864 11.9176 53.6486 10.9042 52.3242C10.2764 51.5051 10.097 50.5724 10.0432 49.6008C9.99834 48.8085 10.0432 48.0103 10.0252 47.2151C10.0133 46.7009 10.2405 46.4857 10.7427 46.5156C10.9669 46.5275 11.1912 46.5156 11.4154 46.5156C19.6725 46.5156 27.9296 46.5156 36.1867 46.5156V46.5186ZM36.1299 49.1254C35.6605 49.1583 35.4034 49.4573 35.3915 49.8878C35.3795 50.3272 35.6276 50.6441 36.1179 50.6411C36.5933 50.6411 36.8504 50.3691 36.8593 49.9027C36.8683 49.4304 36.5873 49.1942 36.1299 49.1224V49.1254Z" fill="url(#paint1_angular_5959_4255)"/>
<path d="M36.0761 62.9879C32.0731 62.9879 28.0701 62.97 24.0671 63.0029C23.3078 63.0088 23.0955 62.7697 23.1015 62.0253C23.1224 59.1464 23.7771 58.4647 26.656 58.4588C28.4318 58.4558 28.1747 58.6172 28.1986 56.8952C28.2196 55.4991 27.9565 55.4722 29.6067 55.4752C34.082 55.4782 38.5574 55.4752 43.0327 55.4752C44.1179 55.4752 44.1179 55.4812 44.1209 56.5425C44.1269 58.4528 44.1269 58.4498 46.0551 58.4647C46.4498 58.4677 46.8533 58.4887 47.239 58.5634C48.4707 58.7996 49.1762 59.6635 49.1942 60.9162C49.2161 62.2973 48.5484 62.9879 47.1912 62.9879C43.4871 62.9879 39.7831 62.9879 36.0761 62.9879Z" fill="url(#paint2_angular_5959_4255)"/>
<path d="M40.6583 31.6425C39.8421 31.8966 39.3578 31.3914 38.9094 30.5214C37.1306 27.0775 35.2831 23.6694 33.4325 20.2643C33.1276 19.7023 33.1665 19.3077 33.5581 18.7965C35.7913 15.9056 37.9796 12.9818 40.2038 10.082C41.3967 8.5274 42.9333 8.66193 43.866 10.3959C46.9901 16.2225 50.0992 22.0551 53.2113 27.8847C53.4953 28.4168 53.7464 28.94 53.5491 29.5827C53.2771 30.4646 52.715 30.9878 51.7913 31.0416C49.014 31.203 46.2367 31.3406 43.4594 31.487C42.5925 31.5319 41.7225 31.5797 40.6583 31.6395V31.6425Z" fill="#E7ABAF"/>
<path d="M30.2634 35.3762C29.235 35.43 28.664 34.8411 28.2454 34.0549C27.2499 32.1924 26.2723 30.3239 25.2858 28.4584C25.0317 27.9771 24.7267 27.5138 24.5205 27.0115C24.1049 25.9951 24.377 25.0593 25.3336 24.5063C26.7507 23.6871 28.2155 22.9517 29.6625 22.1804C30.2096 21.8874 30.7686 21.6184 31.2977 21.2955C31.782 20.9996 32.075 21.0623 32.3501 21.5885C33.2559 23.3284 34.2006 25.0474 35.1273 26.7783C35.9016 28.2223 36.658 29.6752 37.4472 31.1102C37.6924 31.5556 37.6356 31.7978 37.1662 32.0399C35.223 33.0354 33.2948 34.0608 31.3605 35.0803C31.0048 35.2686 30.64 35.4181 30.2634 35.3792V35.3762Z" fill="#E7ABAF"/>
<path d="M42.4725 38.7007C42.5144 39.75 42.0809 40.4914 41.2229 40.9578C40.3559 41.4272 39.4232 41.5049 38.607 40.913C36.6967 39.5228 34.9897 37.8846 33.1661 36.3868C32.903 36.1716 32.9957 36.0101 33.2408 35.8816C34.628 35.1551 36.0181 34.4346 37.4023 33.7052C37.6982 33.5497 37.9224 33.6544 38.1437 33.8427C39.3186 34.8382 40.5054 35.8218 41.6653 36.8352C42.2334 37.3315 42.5473 37.9713 42.4725 38.7007Z" fill="#E7ABAF"/>
<path d="M52.6022 19.3587C52.5932 19.8908 52.381 20.5485 52.0401 21.1674C51.8339 21.5411 51.6366 21.556 51.4243 21.1524C50.4766 19.3467 49.52 17.547 48.5723 15.7443C48.4916 15.5949 48.357 15.4095 48.4676 15.26C48.6171 15.0538 48.8772 15.1315 49.0925 15.1554C51.0416 15.3766 52.5783 17.1434 52.6022 19.3587Z" fill="#E7ABAF"/>
<path d="M23.1319 29.5766C23.1498 29.2298 23.1767 28.889 23.4548 28.8113C23.7687 28.7216 23.7956 29.1042 23.9002 29.2985C24.6924 30.7574 25.4697 32.2253 26.244 33.6962C26.3397 33.8815 26.5998 34.1147 26.4144 34.2821C26.2051 34.4704 25.8882 34.3479 25.664 34.1835C25.5086 34.0698 25.3621 33.9144 25.2694 33.747C24.5998 32.5302 23.945 31.3075 23.2933 30.0818C23.2036 29.9114 23.1708 29.7081 23.1289 29.5826L23.1319 29.5766Z" fill="#E7ABAF"/>
<defs>
<radialGradient id="paint0_angular_5959_4255" cx="0" cy="0" r="1" gradientUnits="userSpaceOnUse" gradientTransform="translate(36.0039 50.5029) rotate(88.8334) scale(22.2397 36.8558)">
<stop stop-color="#EE4136"/>
<stop offset="0.968333" stop-color="#97130B"/>
<stop offset="1" stop-color="#941209"/>
</radialGradient>
<radialGradient id="paint1_angular_5959_4255" cx="0" cy="0" r="1" gradientUnits="userSpaceOnUse" gradientTransform="translate(36.0039 50.5029) rotate(88.8334) scale(22.2397 36.8558)">
<stop stop-color="#EE4136"/>
<stop offset="0.968333" stop-color="#97130B"/>
<stop offset="1" stop-color="#941209"/>
</radialGradient>
<radialGradient id="paint2_angular_5959_4255" cx="0" cy="0" r="1" gradientUnits="userSpaceOnUse" gradientTransform="translate(36.0039 50.5029) rotate(88.8334) scale(22.2397 36.8558)">
<stop stop-color="#EE4136"/>
<stop offset="0.968333" stop-color="#97130B"/>
<stop offset="1" stop-color="#941209"/>
</radialGradient>
</defs>
</svg>
