<svg width="72" height="72" viewBox="0 0 72 72" fill="none" xmlns="http://www.w3.org/2000/svg">
<path d="M39.5206 33.9638C37.6771 33.9638 35.8726 33.9638 34.0681 33.9638C31.402 33.9671 29.8544 35.5212 29.8479 38.2068C29.8414 40.6681 29.8414 43.1294 29.8479 45.5874C29.8544 48.3153 31.389 49.8401 34.1331 49.8467C35.9116 49.8499 37.6934 49.8467 39.5824 49.8467C39.5824 50.5457 39.5596 51.1862 39.5856 51.8235C39.6572 53.5434 39.7645 55.2634 39.81 56.9866C39.8165 57.2239 39.5889 57.5036 39.4036 57.7051C38.1583 59.0512 36.9748 60.4363 36.3961 62.2603C35.6873 60.0591 34.1884 58.4562 32.6278 56.9216C26.7786 51.1699 20.0321 46.566 13.3668 41.8516C9.12382 38.8474 6.24313 34.7799 5.26773 29.5875C4.03872 23.0523 7.09823 14.872 13.2693 11.1004C16.2573 9.2764 19.5476 8.76269 23.0038 9.09433C25.4586 9.32842 27.7768 10.0242 29.9162 11.224C32.5237 12.6838 34.5266 14.8394 36.4123 17.0731C39.3581 13.3991 42.8272 10.4404 47.6522 9.42921C55.0458 7.87832 61.7923 10.5217 65.5184 17.6844C67.3911 21.2836 68.1649 25.0974 67.6252 29.1258C67.2903 31.6196 66.354 33.9021 64.8551 36.0545C64.2048 35.0303 63.3952 34.2662 62.215 34.0711C61.6623 33.9801 61.09 33.9736 60.5243 33.9703C58.8791 33.9573 57.2307 33.9671 55.4717 33.9671C55.4717 32.9364 55.4717 31.948 55.4717 30.9596C55.4717 29.9875 55.488 29.012 55.4685 28.0399C55.4229 25.8582 53.8363 24.2586 51.6546 24.2391C48.9788 24.2131 46.2997 24.2261 43.6238 24.2358C41.2113 24.2456 39.6279 25.816 39.5922 28.2545C39.5661 30.0655 39.5824 31.8765 39.5791 33.6907C39.5791 33.7428 39.5596 33.7948 39.5271 33.9736L39.5206 33.9638Z" fill="url(#paint0_angular_6091_2994)"/>
<path d="M41.529 47.9029C38.9832 47.9029 36.5512 47.9029 34.1224 47.9029C32.4805 47.9029 31.8563 47.2852 31.853 45.6725C31.853 43.1299 31.8498 40.5906 31.853 38.0481C31.853 36.5752 32.5 35.938 33.9761 35.938C36.4569 35.938 38.9409 35.938 41.5258 35.938C41.5258 35.5836 41.5258 35.2975 41.5258 35.0113C41.5258 32.8199 41.516 30.6318 41.529 28.4404C41.5388 26.8472 42.215 26.2002 43.8179 26.2002C46.3052 26.2002 48.7925 26.2002 51.2798 26.2002C52.8209 26.2002 53.5102 26.8797 53.5134 28.3981C53.5134 30.6155 53.5134 32.8329 53.5134 35.0504C53.5134 35.317 53.5134 35.5803 53.5134 35.938C54.0857 35.938 54.5929 35.938 55.0969 35.938C57.1777 35.938 59.2618 35.925 61.3427 35.9445C62.4741 35.9542 63.2317 36.6858 63.2415 37.8075C63.261 40.5126 63.261 43.2145 63.2415 45.9196C63.2317 47.1746 62.4676 47.8997 61.1964 47.9062C58.9529 47.9159 56.7063 47.9062 54.4628 47.9062C54.1735 47.9062 53.8809 47.9062 53.5102 47.9062C53.5102 48.8165 53.5102 49.6489 53.5102 50.478C53.5102 52.1817 53.5167 53.8854 53.5102 55.5891C53.5037 56.8441 52.8469 57.6114 51.6114 57.6277C48.9095 57.6699 46.2044 57.6667 43.4993 57.6277C42.1923 57.6082 41.542 56.8636 41.529 55.4655C41.5095 53.2741 41.5225 51.086 41.5225 48.8946C41.5225 48.6019 41.5225 48.3093 41.5225 47.9062L41.529 47.9029Z" fill="#E7ABAF"/>
<defs>
<radialGradient id="paint0_angular_6091_2994" cx="0" cy="0" r="1" gradientUnits="userSpaceOnUse" gradientTransform="translate(20.2784 24.2784) rotate(27.4744) scale(23.9175 41.3305)">
<stop stop-color="#EE4136"/>
<stop offset="1" stop-color="#941209"/>
</radialGradient>
</defs>
</svg>
