<svg width="72" height="72" viewBox="0 0 72 72" fill="none" xmlns="http://www.w3.org/2000/svg">
<g clip-path="url(#clip0_5959_4193)">
<path d="M31.9316 14.0005C37.651 14.0005 43.3743 14.0005 49.0937 14.0005C52.0681 14.0005 53.915 15.8396 53.9383 18.8412C53.9616 21.4268 53.9538 24.0124 53.9383 26.598C53.9266 28.5576 53.0324 29.4402 51.0805 29.448C48.4288 29.4597 45.781 29.4247 43.1293 29.4597C38.8291 29.5102 35.6992 31.9364 34.5288 36.0656C34.3072 36.8548 34.3228 37.6675 34.3228 38.4723C34.315 43.7096 34.3228 48.943 34.3111 54.1803C34.3111 54.7285 34.2722 55.2806 34.1867 55.8172C34.0117 56.9214 33.4091 57.5357 32.3204 57.7612C31.9744 57.8351 31.6166 57.8973 31.2667 57.9012C28.0668 57.9128 24.8669 57.9245 21.667 57.9012C20.5278 57.8934 19.4624 57.6329 18.9764 56.4043C18.436 55.0395 19.1825 53.6631 20.6288 53.391C21.1343 53.2977 21.6553 53.2627 22.1685 53.2588C24.3342 53.2432 26.4999 53.2354 28.6656 53.2588C29.3538 53.2666 29.6726 53.0333 29.657 52.3062C29.5754 48.5347 30.2169 49.2424 26.6671 49.1996C23.0473 49.1568 19.4274 49.1918 15.8076 49.1879C14.9328 49.1879 14.0502 49.1607 13.2181 48.9002C11.2663 48.2859 10.026 46.6373 10.0221 44.5183C9.99876 35.8906 9.98709 27.259 10.0221 18.6313C10.0337 15.7891 11.9156 14.0083 14.7656 14.0005C20.485 13.9928 26.2083 14.0005 31.9277 14.0005H31.9316Z" fill="url(#paint0_angular_5959_4193)"/>
<path d="M55.2693 36.3684C55.837 36.8972 56.3852 37.4143 56.8673 38.0014C57.921 39.2962 58.5897 40.7581 58.8347 42.4106C58.9086 42.9199 58.9008 42.9199 59.414 42.9199C60.3005 42.9199 60.5999 43.2232 60.6038 44.1019C60.6038 45.0311 60.6038 45.9604 60.6038 46.8858C60.6038 47.6362 60.2733 47.9705 59.5307 47.9744C58.5781 47.9783 57.6294 47.9783 56.6768 47.9744C55.9264 47.9744 55.6037 47.6401 55.5998 46.8935C55.5998 45.9293 55.5998 44.9689 55.5998 44.0047C55.5998 43.2504 55.9225 42.9277 56.669 42.9199C57.1784 42.9121 57.1978 42.9082 57.0928 42.4183C56.5368 39.8366 55.0632 37.9975 52.6332 36.9322C52.431 36.8428 52.3882 36.9011 52.3688 37.1033C52.3104 37.7293 52.0111 38.0248 51.3812 38.0364C50.3742 38.0559 49.3671 38.0559 48.3601 38.0364C47.7302 38.0248 47.4386 37.7332 47.3803 37.0994C47.3609 36.8817 47.3026 36.8544 47.112 36.9361C44.6159 38.0287 43.1539 39.9377 42.6174 42.5894C42.5707 42.8227 42.6329 42.9393 42.8857 42.9238C42.9868 42.916 43.0878 42.9238 43.1928 42.9238C43.8266 42.9549 44.1493 43.2776 44.1571 43.9075C44.1648 44.9378 44.1648 45.9682 44.1571 46.9985C44.1532 47.609 43.8305 47.9589 43.22 47.9706C42.178 47.99 41.136 47.99 40.094 47.9706C39.5069 47.9589 39.1686 47.6128 39.1609 47.0219C39.1453 45.9798 39.1453 44.9378 39.1609 43.8958C39.1686 43.2698 39.5108 42.9471 40.1407 42.9199C40.8211 42.8927 40.8172 42.8888 40.9533 42.2045C41.3926 39.9533 42.4696 38.0792 44.2659 36.6367C44.3515 36.5667 44.4331 36.4928 44.5809 36.3684C43.8421 36.3684 43.1812 36.3684 42.5202 36.3684C42.3297 36.3684 42.2947 36.5356 42.2286 36.66C41.311 38.3825 38.9937 38.4991 37.9167 36.8817C37.1507 35.7308 37.5045 34.1289 38.6982 33.3629C39.8374 32.6281 41.4082 32.9741 42.1042 34.1678C42.3219 34.541 42.5552 34.6421 42.9556 34.6343C44.2932 34.611 45.6268 34.6149 46.9643 34.6343C47.2909 34.6382 47.4192 34.5371 47.3842 34.2105C47.3609 33.985 47.3687 33.7556 47.462 33.5418C47.6097 33.1957 47.8702 32.9974 48.2474 32.9935C49.336 32.9858 50.4208 32.9819 51.5095 32.9935C52.0344 33.0013 52.3571 33.3668 52.3843 33.9267C52.4076 34.3933 52.6565 34.6266 53.1308 34.6266C54.4333 34.6266 55.7359 34.6188 57.0384 34.6304C57.2989 34.6304 57.435 34.5527 57.5633 34.3155C58.2631 33.0324 59.8145 32.6086 61.0354 33.3474C62.2329 34.0744 62.6178 35.6763 61.8441 36.8506C61.3464 37.6087 60.6349 38.0287 59.7017 37.9975C58.7258 37.9664 57.991 37.5271 57.5438 36.6523C57.435 36.4423 57.3144 36.349 57.0773 36.3568C56.4785 36.3723 55.8797 36.3607 55.2771 36.3607L55.2693 36.3684Z" fill="#E7ABAF"/>
<path d="M50.7144 41.8662C51.0566 42.4105 51.3676 42.9004 51.6748 43.3942C52.639 44.9534 53.5916 46.5203 54.5753 48.0677C54.8747 48.5382 54.8941 48.962 54.5986 49.4247C54.0893 50.214 53.6344 51.0344 53.2417 51.8898C53.1367 52.1153 53.0123 52.2241 52.744 52.1503C52.5729 52.1036 52.3824 52.1269 52.2036 52.1269C50.415 52.1503 48.6265 52.0686 46.838 52.1736C46.6902 52.1814 46.6319 52.0997 46.5814 51.9986C46.1303 51.046 45.5782 50.1479 45.0572 49.2342C44.8706 48.9037 44.8745 48.5771 45.0844 48.2427C46.3325 46.2364 47.5728 44.2224 48.817 42.2161C48.8715 42.1267 48.9064 41.9595 49.0425 42.0062C49.1669 42.049 49.1047 42.2045 49.1047 42.3133C49.1047 44.1602 49.1047 46.0032 49.1086 47.85C49.1086 48.3283 49.3419 48.6432 49.7191 48.6976C50.2634 48.7793 50.6367 48.4566 50.6405 47.8928C50.6405 46.0459 50.6405 44.203 50.6405 42.3561C50.6405 42.2239 50.6133 42.0839 50.7066 41.8701L50.7144 41.8662Z" fill="#E7ABAF"/>
<path d="M49.8752 57.909C49.0704 57.909 48.2695 57.9129 47.4646 57.909C46.4382 57.9013 45.75 57.2053 45.7422 56.1749C45.7422 55.9028 45.7422 55.6306 45.7422 55.3584C45.7539 54.4797 46.3604 53.7721 47.2352 53.7215C48.9538 53.6243 50.6723 53.6827 52.3909 53.6904C52.4453 53.6904 52.5036 53.706 52.558 53.7138C53.4095 53.8304 54.0005 54.4992 54.0083 55.3623C54.0083 55.6695 54.0122 55.9728 54.0083 56.2799C53.9928 57.1781 53.2851 57.8935 52.3831 57.9052C51.5471 57.9168 50.7073 57.9052 49.8714 57.9052L49.8752 57.909Z" fill="#E7ABAF"/>
</g>
<defs>
<radialGradient id="paint0_angular_5959_4193" cx="0" cy="0" r="1" gradientUnits="userSpaceOnUse" gradientTransform="translate(25.8572 31.0773) rotate(132.274) scale(36.2669 53.1999)">
<stop stop-color="#EE4136"/>
<stop offset="1" stop-color="#941209"/>
</radialGradient>
<clipPath id="clip0_5959_4193">
<rect width="52.2368" height="43.9123" fill="white" transform="translate(10 14)"/>
</clipPath>
</defs>
</svg>
